<?xml version="1.0" standalone="no"?>
<!DOCTYPE svg PUBLIC "-//W3C//DTD SVG 20010904//EN"
 "http://www.w3.org/TR/2001/REC-SVG-20010904/DTD/svg10.dtd">
<svg version="1.0" xmlns="http://www.w3.org/2000/svg"
 width="3000.000000pt" height="3000.000000pt" viewBox="0 0 3000.000000 3000.000000"
 preserveAspectRatio="xMidYMid meet">

<g transform="translate(0.000000,3000.000000) scale(0.100000,-0.100000)"
fill="#000000" stroke="none">
<path d="M10585 24069 c-524 -23 -1236 -92 -2010 -194 -1390 -183 -1770 -240
-2200 -330 -822 -174 -1436 -430 -1872 -782 -123 -99 -286 -271 -449 -474
-124 -153 -150 -190 -124 -174 5 3 96 26 202 51 1230 289 2675 480 4608 609
206 13 407 27 445 30 124 9 523 24 815 31 370 8 681 -6 1161 -52 l66 -7 22 74
c82 275 195 501 330 657 198 231 531 349 926 328 139 -7 347 -30 455 -50 73
-14 69 -14 -168 -15 -133 -1 -286 -6 -340 -11 -461 -50 -765 -259 -953 -654
-181 -381 -275 -892 -448 -2416 -56 -490 -140 -1379 -176 -1850 -8 -113 -17
-234 -20 -270 -15 -184 -47 -687 -65 -1015 -39 -721 -46 -901 -70 -1720 -14
-473 -24 -1871 -14 -1877 15 -8 341 55 588 114 l169 40 -7 237 c-9 316 -11
2444 -2 2696 3 110 8 279 11 375 15 499 41 915 90 1405 14 138 31 333 39 435
8 112 19 198 28 218 14 31 16 18 24 -205 14 -371 10 -716 -14 -1113 -50 -846
-67 -1696 -57 -3010 4 -575 9 -1092 10 -1150 1 -58 5 -283 9 -500 4 -217 9
-460 11 -540 24 -749 47 -2554 43 -3455 -3 -715 4 -1200 17 -1214 3 -2 176 42
387 97 211 56 577 151 813 212 803 207 883 230 889 255 3 13 4 299 2 636 -2
338 0 677 4 754 51 807 271 1660 559 2160 l62 107 -10 1152 c-11 1127 -25
2333 -36 2971 -19 1158 -36 2027 -45 2320 -5 187 -12 421 -15 520 -3 99 -10
331 -15 515 -5 184 -12 425 -15 535 -7 241 -24 547 -34 595 -8 41 23 34 -365
80 -325 39 -451 59 -473 75 -25 19 -34 185 -9 185 8 0 59 -4 113 -10 54 -5
170 -17 258 -25 234 -22 522 -57 533 -64 18 -11 93 -1406 117 -2186 3 -93 7
-237 10 -320 3 -82 7 -278 10 -435 4 -157 8 -359 11 -450 2 -91 6 -941 9
-1890 l6 -1725 27 3 c289 25 849 86 1522 166 337 41 836 97 1105 126 55 6 615
67 1245 136 630 68 1489 160 1910 204 421 44 851 89 955 100 105 11 426 45
715 75 289 30 545 57 570 60 25 3 108 12 185 20 199 20 1454 152 1675 175 102
11 336 36 520 55 323 34 629 70 1340 154 448 54 829 96 1090 121 118 12 222
23 230 25 76 21 622 83 818 92 l134 6 -6 126 c-3 69 -8 216 -11 326 -10 368
-15 559 -20 720 -3 88 -7 241 -10 340 -3 99 -8 218 -10 265 -3 47 -7 148 -10
225 -10 246 -44 829 -70 1185 -13 190 -29 433 -35 540 -26 477 -73 718 -186
942 -90 181 -259 349 -441 441 -100 51 -203 77 -713 177 -283 56 -942 186
-1465 289 -522 104 -1096 217 -1275 251 -387 74 -1699 336 -4010 800 -932 187
-1785 358 -1895 380 -110 21 -420 82 -690 135 -269 53 -625 123 -790 155 -165
33 -403 79 -530 104 -613 119 -1224 240 -1880 371 -396 80 -886 176 -1090 214
-887 167 -945 175 -1470 210 -159 11 -1046 11 -1280 0z m450 -191 c-672 -115
-1224 -278 -1960 -578 -598 -244 -869 -333 -1180 -389 -60 -11 -236 -31 -390
-46 -521 -48 -1058 -116 -1705 -214 -269 -41 -540 -72 -540 -62 1 10 457 256
705 379 416 208 738 346 1070 458 333 114 460 138 1060 204 313 34 574 64 995
115 493 59 1349 132 1665 142 110 3 201 6 202 7 1 0 30 -1 65 -3 l63 -4 -50
-9z m98 -338 c39 -40 40 -41 35 -103 -7 -86 -46 -157 -129 -239 -86 -85 -118
-102 -176 -93 -89 13 -154 60 -170 123 -16 66 47 186 139 264 80 68 122 87
197 88 61 0 65 -2 104 -40z m1611 -465 c169 -27 396 -67 641 -115 274 -53 516
-98 985 -185 256 -47 607 -113 780 -145 810 -151 929 -172 1820 -325 212 -36
459 -79 550 -95 91 -16 338 -59 550 -94 212 -36 464 -79 560 -95 738 -127
2993 -503 3870 -646 393 -64 1363 -224 2155 -355 792 -131 1548 -255 1680
-275 132 -20 307 -50 389 -66 82 -16 191 -35 243 -41 51 -7 93 -16 93 -20 0
-14 -74 -9 -176 12 -124 26 -540 95 -919 154 -159 25 -360 56 -445 70 -85 14
-387 62 -670 106 -283 45 -625 98 -760 120 -135 21 -477 75 -760 120 -614 96
-1053 166 -1600 255 -223 36 -517 84 -655 106 -299 48 -1682 279 -2090 348
-159 28 -423 72 -585 100 -382 65 -423 72 -1075 186 -1014 177 -1633 287
-2690 480 -1058 193 -1188 217 -1485 275 -345 67 -504 91 -629 92 -97 2 -111
-1 -165 -26 -157 -76 -334 -324 -435 -609 -46 -130 -141 -649 -141 -768 l0
-36 143 -6 c152 -7 237 -24 303 -63 38 -22 43 -28 52 -81 6 -32 8 -80 5 -107
l-6 -49 -56 7 c-174 19 -313 27 -394 23 -51 -2 -97 -2 -103 0 -12 4 -12 12 6
243 30 388 65 623 125 830 114 397 304 628 561 684 98 21 148 19 328 -9z
m-7890 -246 c64 -50 1 -172 -137 -268 -40 -27 -53 -31 -83 -25 -46 8 -82 41
-90 79 -8 45 45 118 132 181 83 59 133 68 178 33z m7896 -1358 c5 -11 10 -42
10 -70 0 -47 -5 -57 -64 -136 -99 -132 -195 -331 -237 -492 -19 -74 -56 -310
-61 -385 -1 -21 -3 -38 -4 -38 -7 0 -164 -21 -191 -26 -32 -5 -33 -4 -33 28 0
90 56 325 114 477 127 332 283 583 398 640 53 26 55 26 68 2z m417 -6 c25 -17
40 -59 46 -132 l4 -53 -68 0 c-70 0 -118 12 -131 33 -9 15 -10 123 -1 156 6
22 9 23 67 16 34 -3 71 -13 83 -20z m2088 -686 c116 -10 338 -32 495 -48 157
-16 692 -66 1190 -112 498 -45 906 -83 906 -83 1 -1 5 -82 8 -181 3 -99 8
-236 11 -305 3 -69 7 -204 10 -300 3 -96 14 -431 25 -745 24 -683 48 -1441 55
-1730 3 -115 8 -281 11 -367 3 -87 2 -182 -1 -212 l-7 -55 -52 -5 c-28 -3
-130 -8 -226 -11 -231 -8 -758 -32 -1100 -50 -977 -54 -1561 -78 -1574 -64 -2
2 -7 137 -10 299 -4 162 -11 459 -16 660 -5 201 -12 487 -15 635 -7 367 -14
667 -20 865 -3 91 -7 298 -10 460 -3 162 -8 342 -10 400 -2 58 -7 260 -10 450
-3 190 -8 386 -11 437 l-5 92 73 -5 c40 -3 168 -14 283 -25z m-3173 -125 c26
-16 -1 -190 -61 -395 -23 -81 -33 -142 -42 -264 -15 -195 -21 -1514 -8 -1635
14 -132 42 -206 132 -343 44 -67 93 -148 109 -180 41 -81 68 -92 218 -90 200
2 376 50 442 120 71 74 83 195 83 858 0 705 -28 1336 -65 1473 -26 96 -113
148 -274 165 -61 6 -106 15 -106 21 0 6 10 71 22 144 l22 132 76 0 c274 0
1172 -49 1188 -65 9 -9 16 -3172 7 -3323 -7 -119 -8 -124 -43 -175 -65 -96
-265 -348 -482 -607 -118 -142 -350 -419 -515 -616 -165 -198 -392 -467 -505
-599 -113 -132 -257 -303 -321 -380 -65 -77 -128 -150 -142 -163 l-24 -23 -8
158 c-8 193 -10 1690 -1 1898 3 83 8 260 11 395 7 310 29 715 60 1125 45 580
56 785 65 1210 5 231 15 476 22 545 17 165 15 373 -6 485 -21 118 -21 122 12
134 25 10 115 6 134 -5z m5973 -144 c33 -5 218 -23 410 -40 962 -84 2078 -199
2094 -216 6 -5 41 -729 61 -1224 5 -140 12 -300 15 -355 5 -108 11 -259 20
-480 3 -77 8 -185 10 -240 2 -55 7 -181 10 -280 3 -99 8 -225 10 -280 2 -55 7
-217 11 -360 6 -216 4 -262 -7 -272 -15 -12 -98 -18 -504 -33 -143 -5 -296
-12 -340 -15 -235 -16 -1352 -63 -1585 -67 l-145 -3 -7 115 c-3 63 -11 295
-18 515 -6 220 -15 531 -20 690 -9 275 -13 380 -25 660 -3 66 -17 437 -30 825
-13 388 -27 787 -31 888 -3 100 -2 182 2 182 5 0 36 -4 69 -10z m2970 -290
c311 -27 638 -61 1215 -126 267 -30 516 -58 553 -61 38 -3 70 -11 72 -17 2 -6
9 -146 15 -311 6 -165 13 -327 16 -360 2 -33 9 -168 14 -300 6 -132 17 -393
26 -580 39 -905 55 -1597 35 -1609 -26 -16 -1072 -71 -1746 -91 -104 -3 -236
-8 -292 -11 -82 -5 -103 -3 -103 8 -6 159 -19 432 -40 883 -16 345 -19 413
-25 580 -3 88 -8 210 -10 270 -3 61 -7 184 -10 275 -3 91 -7 212 -10 270 -3
58 -12 290 -20 515 -8 226 -18 472 -21 548 l-6 137 53 0 c30 0 158 -9 284 -20z
m2397 -251 c170 -16 503 -51 740 -78 238 -28 485 -56 548 -63 l115 -13 6 -305
c6 -268 17 -529 34 -755 2 -38 7 -113 10 -165 3 -52 10 -170 16 -262 5 -92 14
-315 19 -495 5 -180 14 -446 21 -590 10 -195 10 -268 1 -287 -13 -29 -33 -32
-222 -41 -69 -3 -264 -12 -435 -20 -285 -13 -564 -25 -998 -43 -93 -4 -172 -5
-176 -2 -5 3 -13 138 -20 300 -6 162 -16 399 -21 525 -6 127 -14 356 -20 510
-6 154 -15 393 -20 530 -5 138 -12 320 -16 405 -3 85 -12 299 -20 475 -7 176
-14 341 -14 368 l0 47 73 -6 c39 -3 210 -19 379 -35z m1773 -189 c248 -23 379
-38 820 -90 182 -21 360 -42 398 -45 58 -6 68 -10 72 -29 4 -18 14 -200 40
-696 2 -52 7 -147 10 -210 13 -316 17 -394 31 -635 8 -143 24 -375 34 -515 11
-140 20 -319 20 -396 l0 -142 -27 -10 c-26 -10 -271 -25 -838 -52 -115 -5
-324 -15 -463 -21 -139 -7 -255 -9 -258 -6 -8 7 -11 65 -18 317 -6 195 -10
312 -21 550 -3 58 -10 251 -15 430 -6 179 -12 361 -15 405 -2 44 -7 172 -10
285 -3 113 -8 230 -10 260 -2 30 -7 165 -10 300 -3 135 -8 262 -10 283 -5 36
-5 37 28 37 18 0 127 -9 242 -20z m1506 -174 c159 -23 432 -53 845 -95 206
-21 376 -40 378 -42 2 -2 15 -272 30 -599 15 -327 29 -617 31 -645 2 -27 7
-122 10 -210 3 -88 8 -185 10 -215 7 -75 23 -363 31 -541 6 -145 6 -145 -17
-161 -18 -11 -99 -20 -329 -36 -527 -38 -957 -57 -976 -44 -7 4 -14 67 -18
167 -4 88 -9 187 -11 220 -3 33 -12 204 -20 380 -23 489 -44 921 -65 1350 -22
442 -23 485 -12 485 5 0 55 -7 113 -14z m-14628 -868 c0 -191 -2 -351 -6 -354
-4 -4 -10 -4 -14 0 -10 10 -15 846 -6 866 14 32 25 -180 26 -512z m1975 -4758
c28 -12 52 -26 52 -30 0 -13 -35 -39 -80 -58 -74 -32 -170 -52 -321 -67 -79
-8 -194 -22 -254 -31 -88 -13 -119 -14 -153 -4 -75 20 -102 68 -67 117 27 38
118 54 430 78 115 9 212 19 215 22 11 12 128 -6 178 -27z m-72 -325 c27 -8 58
-21 69 -29 17 -12 17 -16 5 -31 -42 -50 -147 -78 -390 -100 -96 -9 -178 -19
-182 -21 -4 -3 -54 -5 -111 -5 -103 -1 -177 16 -177 40 0 21 72 64 145 87 41
13 130 30 197 39 68 8 155 19 193 23 110 14 197 13 251 -3z m-329 -3712 c9
-32 11 -248 2 -257 -8 -9 -330 -92 -561 -146 -239 -55 -386 -87 -898 -194
-195 -41 -366 -77 -380 -81 -45 -11 -61 12 -71 108 -6 48 -9 115 -7 149 l3 62
205 42 c227 46 494 103 790 169 107 24 319 68 470 99 447 89 436 88 447 49z"/>
<path d="M9660 22693 c-618 -19 -2183 -142 -3020 -239 -1051 -121 -2205 -323
-2745 -481 l-60 -18 -91 -182 c-93 -188 -173 -380 -264 -634 l-51 -145 -372
-122 c-426 -140 -542 -181 -696 -250 -300 -134 -441 -280 -501 -517 -20 -79
-43 -324 -33 -350 3 -10 -17 -20 -69 -35 -99 -29 -152 -61 -173 -106 -79 -167
-77 -1106 5 -1735 35 -269 62 -342 147 -398 85 -56 169 -76 323 -76 150 1 216
18 252 65 40 55 43 117 43 965 -1 784 -11 1136 -34 1198 -6 14 -35 44 -66 67
-71 53 -81 76 -59 149 25 87 71 159 159 247 132 133 273 208 630 332 94 33
198 71 233 85 l63 26 -7 -22 c-505 -1591 -839 -3331 -944 -4922 -5 -88 -12
-187 -15 -220 -31 -385 -36 -1090 -22 -2820 4 -528 7 -973 7 -988 0 -62 86
-104 293 -143 70 -13 189 -39 265 -58 621 -156 1781 -364 2842 -510 1116 -154
2342 -274 3270 -320 168 -9 357 -18 420 -21 63 -3 243 -10 400 -15 157 -5 305
-15 329 -21 68 -19 105 -63 129 -155 40 -153 66 -345 122 -886 40 -386 55
-517 63 -524 4 -5 315 60 582 120 110 25 238 51 284 58 78 12 84 11 97 -7 8
-10 14 -40 14 -67 0 -37 -4 -50 -19 -58 -32 -17 -174 -48 -370 -80 -101 -17
-188 -33 -193 -36 -24 -15 -133 -21 -223 -12 -117 10 -141 7 -149 -26 -13 -51
15 -133 109 -322 52 -105 95 -200 95 -212 l0 -22 -39 19 c-89 46 -175 208
-235 446 -19 72 -27 90 -41 88 -251 -22 -832 -27 -1082 -8 -32 3 -132 9 -223
15 -511 33 -1082 85 -1550 141 -91 11 -392 46 -670 79 -1263 150 -1703 209
-2285 306 -841 139 -1559 309 -2241 529 -207 67 -299 112 -321 155 -10 21 -9
28 8 46 l20 22 122 -58 c307 -145 835 -303 1467 -440 80 -17 195 -42 255 -55
582 -126 1508 -272 2620 -415 663 -85 1703 -183 2340 -220 99 -5 221 -12 270
-15 158 -10 594 -23 770 -24 157 -1 493 13 500 21 6 6 -104 953 -135 1168 -18
118 -34 232 -37 252 -7 45 -2 44 -263 58 -329 17 -397 20 -895 35 -574 18
-957 38 -1475 80 -36 3 -180 14 -320 25 -814 65 -1248 109 -2220 226 -1820
218 -2876 403 -3007 526 -51 48 -12 116 112 198 58 38 103 78 116 102 13 25
-42 58 -96 58 -79 -1 -188 -75 -240 -165 -32 -54 -55 -154 -55 -240 0 -59 40
-358 115 -859 l17 -108 -45 -88 c-53 -103 -64 -159 -47 -230 23 -98 137 -189
320 -259 69 -27 454 -145 665 -205 497 -140 1075 -266 1755 -380 283 -48 947
-151 1042 -162 56 -7 59 -9 120 -78 35 -39 105 -115 157 -169 52 -53 92 -99
90 -101 -10 -9 -389 -95 -819 -186 -1667 -351 -2486 -572 -2609 -703 -21 -23
-22 -29 -12 -59 13 -40 58 -85 121 -121 238 -135 1024 -356 2185 -613 1688
-374 4216 -838 5120 -940 186 -21 705 -30 859 -15 231 23 444 67 776 162 602
172 1541 542 2173 855 156 77 158 78 200 66 265 -76 402 -100 622 -109 245 -9
478 20 810 102 99 24 214 51 255 59 341 69 596 250 838 596 l32 46 758 252
c416 140 836 281 932 314 96 33 355 122 575 198 578 199 898 311 2155 753 615
217 1859 653 2355 827 176 62 444 159 596 215 290 109 465 166 566 184 39 8
187 11 405 10 390 -3 435 3 587 71 47 21 183 81 301 133 118 53 262 116 319
142 58 26 330 122 606 215 661 222 896 317 1000 405 36 30 39 35 30 61 -39
110 -514 185 -1353 213 -139 5 -255 11 -258 14 -3 3 6 63 20 133 13 71 27 147
31 169 l6 40 107 42 c247 98 573 207 1217 408 330 103 644 209 714 243 77 36
181 126 165 142 -28 27 -314 -62 -969 -302 -682 -251 -1002 -342 -1087 -309
-22 8 -28 17 -28 40 0 28 4 30 103 65 185 64 446 146 1316 411 371 112 676
206 677 208 6 6 26 1147 41 2331 6 507 6 518 -13 512 -67 -20 -296 -49 -1084
-135 -151 -17 -374 -42 -495 -56 -293 -34 -807 -93 -925 -106 -85 -9 -224 -25
-870 -99 -96 -11 -512 -58 -925 -105 -1069 -122 -1470 -167 -2060 -235 -286
-33 -779 -89 -1095 -125 -316 -36 -730 -83 -920 -105 -599 -68 -1304 -149
-1630 -185 -173 -20 -774 -87 -1335 -150 -1361 -153 -1319 -148 -1815 -210
-381 -47 -533 -64 -809 -91 l-64 -6 6 -441 c4 -243 12 -539 18 -657 6 -118 9
-323 7 -455 l-4 -240 -37 -95 c-21 -52 -77 -182 -124 -290 -122 -276 -147
-343 -202 -535 -110 -382 -183 -800 -221 -1265 -13 -155 -21 -1070 -11 -1300
4 -85 6 -157 4 -159 -2 -4 -326 -92 -988 -267 -302 -80 -633 -167 -735 -194
-423 -112 -707 -177 -733 -167 -7 2 13 16 43 29 30 14 65 37 78 50 l23 25 1
2849 c1 1567 -2 2863 -6 2880 l-7 32 -57 -13 c-82 -19 -510 -100 -687 -129
-466 -78 -888 -118 -1365 -131 -553 -14 -771 -17 -1335 -17 -535 0 -1148 11
-1475 27 -58 2 -163 7 -235 10 -151 7 -737 43 -810 50 -27 3 -138 12 -245 20
-1015 80 -2392 287 -2805 421 -124 40 -243 110 -222 130 7 7 160 -27 407 -91
710 -184 1823 -335 2870 -390 58 -3 139 -8 180 -10 113 -8 457 -23 1035 -46
590 -23 1935 -34 2365 -19 475 16 1346 74 1446 95 l21 5 6 822 c4 453 11 969
17 1148 13 438 29 885 35 995 3 50 10 187 15 305 16 331 39 739 50 900 73
1038 121 1584 225 2550 24 228 63 591 85 805 49 471 82 744 120 970 16 94 27
171 25 173 -16 16 -375 58 -610 72 -157 9 -671 11 -925 3z m-6281 -1840 c0
-16 -12 -61 -27 -102 -32 -86 0 -68 -317 -171 -406 -133 -609 -235 -756 -381
-82 -81 -106 -122 -163 -278 -26 -69 -53 -136 -62 -149 l-16 -25 -32 32 c-30
31 -31 33 -29 120 4 230 142 414 433 581 114 65 227 114 532 230 142 54 293
114 335 133 97 43 103 44 102 10z m7157 -870 c55 -5 60 -7 57 -27 -10 -62
-130 -1443 -158 -1816 -3 -41 -8 -100 -10 -130 -20 -227 -72 -1001 -79 -1170
-3 -69 -11 -264 -16 -435 -13 -363 -36 -745 -51 -829 -32 -178 -170 -283 -437
-332 -139 -26 -491 -29 -847 -9 -326 19 -670 17 -738 -4 -38 -12 -38 -12 -20
-35 10 -13 88 -111 174 -217 170 -211 290 -373 320 -431 13 -26 19 -58 19
-106 0 -68 -1 -70 -30 -82 -40 -17 -74 -2 -135 58 -69 70 -135 173 -295 467
-65 120 -277 401 -463 615 -270 310 -439 470 -644 608 -109 72 -130 92 -99 92
41 0 18 24 -61 64 -100 50 -206 88 -402 147 -75 23 -143 45 -151 50 -18 10
252 4 450 -12 175 -13 323 -32 545 -70 99 -17 196 -33 215 -36 l35 -5 -25 21
c-43 35 -201 117 -299 156 -115 46 -324 99 -446 114 -363 45 -775 4 -1105
-109 -46 -16 -86 -27 -88 -25 -2 2 8 59 22 127 36 173 84 445 166 938 112 676
153 890 300 1590 72 343 140 686 140 708 0 14 8 23 23 26 26 6 441 30 867 51
317 15 765 32 1215 44 330 10 1963 13 2051 4z m-4466 -137 c0 -12 -72 -396
-130 -696 -67 -344 -90 -478 -220 -1245 -33 -198 -76 -450 -95 -560 -19 -110
-61 -360 -94 -555 -33 -195 -83 -474 -110 -620 -73 -393 -131 -757 -131 -827
0 -14 -27 -15 -242 -9 -134 3 -396 8 -583 11 -323 5 -652 19 -777 34 l-57 6
63 88 c137 192 502 592 682 747 218 188 448 344 530 359 27 5 127 12 222 16
95 4 175 12 178 17 12 19 -20 69 -65 102 -117 85 -328 121 -608 105 -169 -10
-286 -39 -424 -108 -79 -39 -289 -174 -289 -185 0 -2 46 10 103 26 238 67 324
79 577 84 l235 5 -132 -65 c-72 -35 -152 -74 -176 -86 -24 -12 -91 -68 -149
-124 -57 -56 -151 -133 -208 -173 -233 -159 -615 -526 -826 -793 -107 -136
-144 -197 -171 -277 -29 -91 -47 -119 -85 -139 -40 -21 -58 -5 -58 51 0 59 52
158 149 283 l80 102 -42 2 c-23 0 -46 2 -52 3 -5 2 -120 3 -255 4 l-245 1 12
198 c54 887 210 2014 418 3024 140 682 197 953 201 957 16 17 893 112 1484
160 593 49 1290 91 1290 77z m-4134 -157 c16 -17 19 -35 18 -103 -2 -93 -22
-226 -34 -226 -10 0 -16 20 -25 84 -8 56 4 266 15 266 4 0 15 -9 26 -21z
m4384 -3313 c313 -56 595 -207 890 -477 92 -85 273 -274 365 -384 28 -32 66
-77 85 -100 73 -82 122 -145 113 -145 -89 -4 -534 3 -703 10 -303 13 -1125 39
-1332 42 l-168 2 0 26 c0 73 140 966 155 990 6 10 77 27 190 45 106 17 279 13
405 -9z m20997 -1603 c48 -59 27 -148 -44 -189 -51 -30 -61 -26 -92 40 -25 51
-26 77 -5 119 30 60 52 76 87 66 18 -5 42 -21 54 -36z m-1586 -49 c124 -36
261 -145 344 -273 56 -87 75 -127 119 -244 35 -95 110 -367 102 -374 -2 -2
-13 25 -26 59 -36 100 -125 283 -174 356 -59 90 -152 177 -223 210 -120 55
-287 36 -408 -47 -148 -102 -323 -381 -425 -676 -103 -299 -168 -653 -208
-1133 l-17 -197 -150 -38 c-211 -53 -1423 -368 -1830 -476 -788 -208 -1954
-525 -2980 -811 -77 -22 -396 -110 -710 -195 -749 -205 -1577 -444 -1592 -459
-2 -1 -5 -121 -7 -267 -2 -160 -10 -315 -20 -393 -9 -71 -14 -131 -11 -134 2
-3 85 16 182 42 401 107 922 260 1838 541 487 149 1839 551 2510 746 77 23
183 54 235 69 52 16 230 68 395 115 165 47 431 126 590 175 844 258 1161 350
1470 426 13 3 11 0 -7 -11 -53 -30 -197 -77 -486 -161 -162 -46 -402 -120
-535 -163 -370 -122 -420 -137 -582 -180 -246 -64 -875 -255 -2320 -702 -1194
-370 -1801 -554 -2390 -722 -609 -175 -995 -281 -1001 -274 -4 4 13 167 31
297 14 100 17 735 5 890 -56 711 -251 1285 -570 1676 -223 271 -516 409 -839
391 -241 -13 -443 -108 -631 -297 -359 -359 -627 -892 -775 -1540 -91 -399
-143 -843 -165 -1405 -6 -154 -13 -321 -16 -372 l-6 -91 -91 -17 c-51 -9 -161
-32 -245 -51 -85 -20 -157 -33 -160 -29 -4 4 -7 235 -6 513 1 512 9 687 50
1042 85 754 298 1412 622 1924 244 386 478 620 759 760 383 191 760 171 1090
-56 43 -29 126 -100 185 -157 272 -262 463 -567 623 -996 105 -282 215 -817
250 -1217 4 -43 10 -80 14 -82 15 -10 734 180 1346 355 115 33 248 71 295 84
47 12 159 43 250 68 190 52 813 220 1005 270 72 19 344 91 605 160 740 196
1145 302 1820 477 344 89 720 186 835 216 116 30 403 103 638 163 235 59 429
110 431 112 3 2 9 67 16 144 18 217 49 520 66 630 81 551 266 1026 476 1220
123 114 264 151 409 109z m-1952 -463 c24 -24 35 -116 26 -204 l-7 -65 -67
-16 c-74 -17 -197 -36 -235 -36 -16 0 -44 17 -77 48 -47 43 -52 52 -57 100 -5
52 -4 54 40 96 51 49 118 71 253 85 44 5 86 9 93 10 6 0 21 -8 31 -18z m4589
-697 c3 -47 0 -54 -29 -78 -68 -57 -156 -89 -458 -166 -108 -27 -286 -74 -396
-105 -218 -61 -903 -241 -1028 -271 -76 -17 -77 -17 -92 2 -8 11 -15 41 -15
71 0 93 32 115 250 167 58 14 312 75 565 136 449 108 899 224 1060 274 44 14
94 24 110 23 29 -2 30 -4 33 -53z m-9250 -206 l-3 -143 -145 -27 c-80 -15
-157 -29 -172 -32 l-28 -5 0 163 0 164 63 6 c91 9 144 12 220 14 l68 2 -3
-142z m6544 -65 c76 -74 140 -237 179 -459 21 -115 24 -160 24 -419 0 -294 -5
-351 -45 -540 -81 -383 -259 -565 -419 -429 -108 93 -165 287 -192 654 -30
398 25 787 148 1049 84 177 210 237 305 144z m-21465 -53 c979 -62 1719 -115
2363 -170 412 -35 850 -86 942 -111 65 -17 123 -118 155 -269 16 -75 18 -137
18 -510 0 -356 -3 -444 -18 -545 -35 -236 -98 -411 -171 -472 l-31 -26 -320 6
c-925 17 -2788 242 -3209 387 -92 31 -113 46 -130 92 -60 160 -106 660 -106
1144 0 333 4 352 91 437 32 31 67 57 79 57 11 0 163 -9 337 -20z m-1567 -150
c87 -45 193 -210 227 -356 l16 -70 68 34 c194 100 345 8 421 -253 20 -70 23
-101 23 -245 -1 -152 -3 -172 -28 -246 -46 -139 -119 -231 -215 -271 -53 -22
-151 -22 -185 0 -36 23 -77 108 -117 240 -18 59 -37 107 -42 107 -5 0 -37 -23
-72 -50 -104 -82 -176 -100 -240 -61 -39 25 -89 106 -119 196 -24 69 -24 80
-26 438 l-2 367 26 49 c52 95 137 155 204 144 13 -2 40 -12 61 -23z m7931
-676 c209 -61 413 -362 449 -662 20 -166 -10 -326 -92 -492 -45 -91 -65 -117
-143 -195 -94 -95 -182 -149 -287 -176 -43 -12 -54 -11 -141 18 -52 17 -117
46 -145 63 -69 42 -139 123 -188 215 -21 41 -41 75 -44 75 -3 -1 -25 -37 -49
-81 -151 -272 -360 -336 -536 -163 -139 136 -228 355 -241 593 -5 93 -3 134
11 197 51 233 174 422 320 490 71 34 163 33 232 -2 69 -34 167 -140 223 -240
l45 -81 48 91 c151 286 339 408 538 350z m-1814 -316 c110 -42 278 -241 330
-390 24 -71 29 -270 9 -364 -36 -162 -116 -284 -220 -333 -191 -89 -449 39
-571 283 -99 198 -82 375 56 609 49 82 85 125 138 161 85 60 163 70 258 34z
m7353 -739 c173 -40 355 -215 460 -443 129 -279 187 -629 177 -1060 -20 -896
-375 -1598 -863 -1712 -53 -12 -68 -12 -120 2 -133 34 -282 144 -383 284 -148
203 -252 515 -291 875 -14 125 -13 495 0 624 80 746 393 1282 830 1422 63 20
125 23 190 8z m-13467 -549 c103 -39 167 -135 175 -264 7 -119 -29 -246 -94
-331 -30 -40 -41 -42 -107 -18 -65 23 -122 74 -154 137 -31 61 -43 187 -24
263 24 94 105 233 136 233 8 0 38 -9 68 -20z m8742 -202 c3 -13 9 -78 12 -144
5 -113 4 -122 -13 -128 -371 -112 -609 -160 -852 -172 l-137 -7 -41 167 c-39
163 -40 167 -20 170 12 3 82 9 156 16 160 13 413 49 635 89 88 16 181 29 206
30 40 1 48 -2 54 -21z m-6922 -223 c50 -8 229 -30 397 -50 168 -19 487 -58
710 -85 223 -28 585 -70 804 -95 219 -24 401 -47 404 -49 9 -10 11 -146 5
-395 l-6 -254 -126 7 c-137 7 -449 36 -656 61 -71 8 -206 24 -300 35 -93 11
-206 25 -250 30 -44 6 -186 22 -315 36 -206 22 -451 55 -701 95 l-76 12 -7 60
c-14 135 -2 607 16 607 4 0 50 -7 101 -15z m4712 -489 c241 -114 262 -497 39
-720 -37 -36 -41 -38 -90 -33 -155 16 -259 127 -282 302 -17 128 13 258 87
372 57 88 89 111 147 106 27 -2 71 -14 99 -27z"/>
<path d="M3792 13054 c-7 -32 -12 -79 -12 -105 0 -47 1 -48 38 -59 99 -26 749
-94 1522 -160 814 -68 1883 -144 2125 -151 l70 -2 -2 53 c-3 64 -42 152 -78
176 -17 11 -60 20 -123 25 -53 5 -236 20 -407 35 -170 14 -515 45 -765 70
-1155 113 -1596 147 -2196 169 l-161 6 -11 -57z"/>
<path d="M3772 12610 c2 -71 6 -132 9 -135 7 -6 786 -98 1311 -155 884 -95
1650 -153 2193 -166 138 -3 256 -7 263 -9 9 -3 12 28 12 134 l0 138 -97 7
c-1437 94 -2250 162 -3288 276 -198 22 -371 40 -384 40 l-23 0 4 -130z"/>
<path d="M3780 12333 c0 -10 5 -75 11 -144 l12 -126 251 -36 c604 -89 1423
-184 1991 -232 612 -52 1470 -90 1485 -65 4 7 8 56 9 109 1 53 4 110 7 127 6
31 6 31 -48 37 -29 4 -102 7 -162 7 -117 0 -355 11 -746 36 -696 43 -1570 135
-2548 269 -139 19 -255 35 -258 35 -2 0 -4 -8 -4 -17z"/>
<path d="M3826 11868 c9 -89 34 -158 65 -181 48 -35 289 -82 804 -156 867
-125 1996 -247 2480 -267 134 -6 170 -4 217 10 35 10 59 23 62 34 22 73 66
238 66 247 0 9 -50 14 -167 19 -430 17 -1333 80 -1803 126 -540 54 -1092 125
-1542 200 -97 17 -179 30 -183 30 -3 0 -3 -28 1 -62z"/>
<path d="M16105 11090 c-11 -66 1 -96 51 -125 25 -14 114 -93 199 -174 86 -80
169 -155 185 -164 l30 -18 0 38 c0 89 -53 220 -122 307 -84 105 -205 176 -297
176 -38 0 -39 -1 -46 -40z"/>
<path d="M15659 10992 c-180 -156 -230 -269 -163 -364 16 -23 50 -53 75 -67
l46 -25 34 39 c19 22 65 73 102 114 80 89 123 151 138 202 10 32 9 40 -16 77
-27 41 -92 82 -131 82 -10 0 -49 -26 -85 -58z"/>
<path d="M16636 10239 c-30 -150 -57 -822 -33 -845 12 -12 16 -1 37 92 52 240
70 599 36 717 -19 67 -31 78 -40 36z"/>
<path d="M15246 9957 c-57 -118 -71 -184 -71 -337 0 -193 35 -281 116 -295
l37 -7 45 90 c57 114 70 188 65 376 -3 127 -6 148 -24 173 -19 26 -95 72 -121
73 -7 0 -28 -33 -47 -73z"/>
<path d="M16350 8962 c-47 -48 -121 -119 -165 -158 -100 -88 -142 -158 -126
-207 7 -19 26 -42 47 -55 36 -23 37 -24 83 -7 71 27 168 131 219 235 42 85 72
182 72 230 0 27 -17 51 -34 49 -6 0 -49 -40 -96 -87z"/>
<path d="M15492 8860 c-150 -152 -109 -282 123 -393 111 -53 132 -60 170 -53
44 9 95 51 95 79 0 66 -104 214 -226 322 -122 108 -105 103 -162 45z"/>
</g>
</svg>
