<?xml version="1.0" standalone="no"?>
<!DOCTYPE svg PUBLIC "-//W3C//DTD SVG 20010904//EN"
 "http://www.w3.org/TR/2001/REC-SVG-20010904/DTD/svg10.dtd">
<svg version="1.0" xmlns="http://www.w3.org/2000/svg"
 width="1140.000000pt" height="855.000000pt" viewBox="0 0 1140.000000 855.000000"
 preserveAspectRatio="xMidYMid meet">

<g transform="translate(0.000000,855.000000) scale(0.100000,-0.100000)"
fill="#000000" stroke="none">
<path d="M3470 6470 c-99 -10 -746 -96 -835 -111 -509 -87 -1177 -401 -1224
-575 -10 -37 -34 -389 -46 -664 -3 -69 -10 -154 -15 -190 -8 -58 -17 -206 -25
-405 -6 -172 -18 -291 -31 -310 -16 -23 -18 -191 -7 -674 4 -208 10 -307 18
-318 10 -13 91 -26 391 -65 1391 -177 1424 -181 1679 -181 l180 -1 395 73
c217 40 411 75 431 78 30 4 43 -1 85 -32 88 -68 201 -105 319 -105 174 0 314
80 403 230 l39 64 819 146 819 147 14 -26 c30 -58 41 -61 228 -61 l172 0 35
31 c25 21 41 48 53 87 9 31 18 58 19 60 13 23 1444 126 1452 104 2 -6 12 -22
22 -35 19 -23 25 -25 194 -32 124 -5 186 -3 210 5 39 13 71 50 82 96 4 16 12
32 18 36 6 4 103 8 216 8 l205 0 168 52 169 52 -6 220 c-4 122 -8 372 -11 558
-5 313 -9 365 -36 423 -5 11 -22 51 -38 90 -16 38 -35 73 -43 77 -7 4 -184 23
-393 43 -209 19 -664 62 -1012 95 -622 59 -633 59 -710 44 -76 -15 -83 -15
-276 15 l-197 30 -53 44 -52 44 -315 78 c-173 42 -648 159 -1055 260 -407 100
-999 247 -1315 325 -316 78 -615 148 -665 156 -113 18 -363 25 -475 14z m505
-45 c50 -8 150 -29 224 -47 l134 -33 24 -64 c13 -35 22 -65 21 -66 -2 -2 -111
21 -243 51 -133 30 -248 51 -260 48 -11 -4 -119 -62 -241 -130 l-221 -124 -56
11 c-41 8 -54 15 -49 24 4 7 74 77 156 155 179 172 211 190 336 190 47 0 126
-7 175 -15z m930 -220 c281 -70 517 -128 525 -131 15 -4 46 -92 36 -101 -3 -3
-242 48 -532 114 l-526 118 -18 45 c-33 85 -34 93 -13 86 10 -3 248 -62 528
-131z m-754 25 c123 -27 227 -50 231 -50 5 0 8 -25 8 -56 0 -53 -1 -56 -22
-51 -13 3 -149 31 -302 63 l-280 57 -104 -52 c-58 -29 -101 -56 -96 -60 5 -5
169 -38 364 -75 480 -91 450 -84 450 -107 0 -10 -4 -19 -8 -19 -16 0 -915 169
-918 173 -2 2 74 46 168 98 231 125 239 129 264 129 12 0 122 -22 245 -50z
m-1089 -41 c-2 -53 1 -79 11 -87 7 -6 54 -12 105 -13 63 -1 92 -5 89 -13 -2
-7 -41 -11 -111 -11 -126 0 -129 2 -120 90 9 91 18 88 -269 82 -349 -7 -571
-48 -785 -144 -91 -40 -192 -67 -192 -49 0 11 115 64 216 99 245 85 534 126
879 123 l180 -1 -3 -76z m-47 2 c-12 -11 -246 -54 -440 -81 -152 -20 -416 -46
-560 -54 -134 -7 -26 10 155 24 174 13 444 49 670 89 198 35 186 33 175 22z
m1945 -139 l525 -117 3 -43 c2 -30 -1 -42 -10 -42 -13 0 -729 144 -958 193
l-105 22 -3 53 c-2 38 1 52 10 51 7 0 249 -53 538 -117z m916 -88 l391 -96 17
-34 c21 -46 20 -55 -6 -49 -13 3 -185 41 -383 86 -198 44 -368 82 -377 85 -12
4 -48 78 -48 101 0 6 24 1 406 -93z m-2555 26 c14 0 17 -35 23 -297 3 -164 11
-386 16 -493 5 -107 12 -314 15 -460 3 -146 7 -303 9 -350 2 -47 1 -151 -1
-231 l-6 -145 -169 -39 c-92 -21 -170 -36 -173 -33 -2 2 43 74 102 159 141
204 145 215 144 348 -1 190 -20 1202 -26 1354 -6 172 -2 201 29 193 11 -3 28
-6 37 -6z m1149 -201 c575 -99 1491 -258 2035 -353 l990 -172 3 -37 c2 -28 0
-37 -12 -37 -9 0 -391 56 -849 125 -1866 281 -3038 457 -3147 474 l-115 17 -3
88 -3 88 28 -6 c15 -3 498 -87 1073 -187z m1440 51 c201 -44 375 -82 388 -85
18 -4 22 -12 22 -40 0 -19 -4 -35 -9 -35 -6 0 -187 36 -403 80 -216 44 -394
80 -395 80 -2 0 -3 21 -3 46 0 39 3 45 18 40 9 -3 181 -41 382 -86z m-960 -25
c278 -52 515 -97 528 -100 14 -4 22 -13 22 -26 0 -15 -5 -19 -17 -15 -20 6
-1042 196 -1055 196 -4 0 -8 11 -8 25 0 15 5 23 13 20 6 -2 239 -47 517 -100z
m-1797 59 c46 -4 77 -11 77 -18 0 -8 -129 -11 -452 -11 -558 -1 -804 -22
-1186 -101 -174 -36 -182 -38 -182 -27 0 12 235 64 415 92 151 24 397 49 585
60 184 10 643 13 743 5z m3410 -79 c144 -37 278 -70 297 -75 23 -7 41 -20 53
-41 10 -18 16 -33 14 -36 -2 -2 -139 27 -304 64 l-300 67 -14 35 c-8 20 -15
39 -17 44 -5 11 -11 12 271 -58z m-3753 -135 l0 -180 -22 0 c-13 0 -258 -12
-545 -27 -288 -14 -525 -25 -527 -22 -3 2 -2 76 2 164 7 151 8 160 27 163 20
3 21 -1 17 -153 -4 -146 -3 -155 14 -155 49 -1 934 41 972 46 l42 5 0 170 c0
106 4 169 10 169 6 0 10 -67 10 -180z m3800 25 c369 -81 340 -72 340 -107 0
-26 -3 -30 -22 -26 -13 3 -152 31 -310 63 l-288 58 0 38 c0 26 4 37 13 34 6
-2 127 -29 267 -60z m-517 -86 c196 -37 227 -46 227 -61 0 -10 -3 -18 -6 -18
-10 0 -759 141 -776 146 -10 3 -18 13 -18 23 0 20 -55 28 573 -90z m1177 21
c23 -6 42 -20 53 -40 10 -16 15 -30 10 -30 -4 0 -92 18 -194 41 l-187 42 -16
34 c-9 18 -16 35 -16 37 0 3 214 -49 350 -84z m-2816 -92 c8 -131 20 -476 22
-648 2 -223 14 -590 20 -637 5 -42 -8 -59 -20 -28 -3 9 -8 152 -12 318 -3 166
-7 304 -9 307 -2 3 -6 112 -9 241 -3 128 -9 303 -12 387 -4 100 -3 152 4 152
6 0 13 -41 16 -92z m2716 32 l195 -42 69 -104 c38 -57 67 -107 64 -109 -3 -3
-121 16 -263 42 -236 44 -283 58 -263 79 3 2 110 -16 238 -41 129 -24 235 -43
237 -42 1 2 -20 30 -47 63 l-49 59 -193 40 -193 40 -3 34 c-2 18 0 31 5 28 4
-2 96 -23 203 -47z m-502 -71 c246 -46 282 -55 282 -71 0 -14 -6 -17 -22 -13
-21 5 -329 62 -515 96 -60 11 -73 17 -73 32 0 15 5 18 23 14 12 -3 149 -29
305 -58z m806 -2 c-4 -11 5 -13 35 -12 30 1 38 -1 34 -12 -5 -12 -7 -12 -14
-1 -7 10 -9 10 -9 -2 0 -12 -2 -12 -9 -2 -7 11 -9 11 -14 -1 -4 -10 2 -13 21
-11 15 1 28 3 30 4 1 1 7 4 12 5 6 1 11 4 13 5 1 1 18 3 38 4 26 2 36 -1 32
-10 -2 -7 1 -15 8 -20 7 -4 10 -3 6 3 -4 6 5 9 21 8 15 -1 33 2 39 8 9 6 15 4
18 -6 4 -9 17 -14 36 -12 31 3 57 -25 43 -47 -4 -7 -3 -8 5 -4 20 13 52 -78
56 -157 2 -67 2 -68 -5 -17 l-7 55 -3 -65 -3 -65 -8 80 c-4 44 -6 89 -4 100 3
11 2 14 -1 6 -5 -11 -8 -11 -15 0 -7 12 -9 11 -9 -1 0 -13 -1 -13 -10 0 -9 13
-10 13 -10 0 0 -13 -2 -13 -9 -1 -17 27 -23 -30 -12 -124 l10 -90 -4 105 c-3
111 0 106 15 -25 l9 -80 -4 105 c-4 120 1 115 15 -15 l9 -90 -4 105 c-2 77 -1
93 5 60 5 -25 9 -68 9 -96 1 -47 3 -51 24 -50 21 1 22 -3 28 -109 4 -60 8
-216 10 -345 l4 -235 -30 0 -30 0 -5 -345 -5 -345 -1 430 c0 237 3 394 6 350
l6 -80 4 85 3 85 7 -60 c6 -56 7 -54 7 30 0 61 -2 80 -7 60 -4 -16 -6 56 -3
160 2 105 1 185 -4 179 -4 -5 -33 -10 -63 -10 -53 1 -55 0 -58 -28 -2 -16 1
-32 6 -35 5 -3 12 -66 15 -138 5 -113 4 -133 -8 -133 -11 0 -15 -11 -15 -36
l0 -36 45 4 45 3 -2 -415 -3 -415 -5 385 -5 385 -5 -385 -5 -385 -5 365 -5
365 -5 -365 -5 -365 -5 345 -5 345 -95 0 -95 0 -5 -350 -5 -350 -1 445 c0 245
3 405 6 355 l6 -90 4 105 4 105 6 -75 6 -75 4 85 c3 71 4 76 7 30 l4 -55 44 3
c44 4 45 5 45 39 0 20 -4 32 -10 28 -6 -4 -10 32 -10 99 l0 106 -65 0 c-64 0
-65 0 -65 28 0 15 -3 79 -6 142 l-7 116 89 -1 89 0 6 -40 6 -40 3 45 c2 43 3
44 11 15 5 -19 7 15 4 90 l-3 120 13 -115 14 -115 -5 105 c-3 58 -7 116 -10
130 -4 18 -3 21 4 11 8 -11 11 -9 17 9 5 15 10 19 15 10 5 -9 9 -8 13 3 4 12
0 15 -14 12 -15 -3 -19 0 -15 11 4 9 2 12 -5 8 -7 -4 -10 -1 -7 7 3 8 14 13
26 13 14 -1 19 3 15 13 -5 12 -7 12 -14 1 -7 -10 -9 -10 -9 1 0 11 -4 10 -16
-5 -15 -19 -16 -19 -10 1 6 20 6 20 -9 1 -11 -15 -15 -16 -16 -5 0 12 -1 12
-6 0 -4 -10 -9 -8 -19 10 -8 15 -13 18 -14 9 0 -12 -2 -12 -9 -2 -7 11 -9 11
-14 -1 -4 -12 0 -15 14 -12 14 3 19 0 16 -9 -4 -10 3 -13 24 -11 23 2 29 -1
25 -12 -3 -8 -1 -11 4 -8 13 8 13 -5 0 -25 -9 -13 -10 -13 -10 0 0 13 -1 13
-10 0 -9 -13 -10 -13 -10 0 -1 9 -6 6 -14 -9 -10 -17 -15 -20 -19 -10 -5 13
-1 -57 7 -144 2 -20 0 -35 -5 -31 -5 3 -10 40 -11 82 l-2 77 -6 -80 -7 -80 1
94 c1 51 -1 85 -5 75 -7 -18 -8 -18 -9 1 l-1 20 -9 -20 c-5 -11 -10 -56 -11
-100 l-2 -80 -7 100 c-7 100 -4 137 10 116 4 -7 11 -2 18 14 9 20 9 25 0 19
-8 -5 -9 -2 -5 10 4 11 3 15 -4 11 -6 -4 -10 -1 -8 6 1 8 1 21 0 29 -1 13 -2
13 -11 0 -9 -13 -10 -13 -10 0 0 11 -3 10 -11 -4 -9 -15 -13 -16 -20 -5 -7 12
-9 11 -9 -1 0 -12 -2 -12 -9 -2 -7 11 -9 11 -14 -1 -4 -11 2 -14 24 -12 33 3
33 2 18 -27 -8 -15 -8 -19 0 -14 14 9 14 -4 1 -24 -9 -13 -10 -13 -10 0 0 13
-1 13 -10 0 -9 -13 -10 -13 -10 0 0 13 -1 13 -10 0 -5 -8 -8 -60 -5 -115 l4
-100 -10 100 c-8 81 -16 113 -43 170 -19 38 -32 73 -30 77 8 13 14 9 8 -5z
m-3594 -57 c239 -28 455 -53 480 -57 l45 -8 -50 -5 -50 -5 1 -115 c1 -194 15
-627 22 -713 9 -108 5 -137 -17 -137 -25 0 -30 40 -31 240 0 91 -4 210 -9 265
-6 55 -10 178 -10 274 0 96 -3 176 -5 179 -3 2 -199 27 -436 55 -385 46 -430
53 -430 69 0 14 6 16 28 13 15 -3 223 -28 462 -55z m4470 35 c165 -17 257 -30
262 -38 9 -13 11 -37 3 -37 -14 0 -547 51 -584 56 l-44 6 29 18 c38 24 36 24
334 -5z m-2967 -206 c4 -112 9 -287 12 -389 2 -102 7 -258 10 -347 5 -136 3
-163 -9 -163 -16 0 -21 79 -17 247 1 57 -2 138 -8 180 -5 43 -13 215 -16 382
-6 252 -5 303 6 299 11 -4 16 -51 22 -209z m-2153 181 c0 -12 -7 -20 -17 -20
-581 -3 -1335 -35 -1660 -70 -125 -14 -143 -13 -143 5 0 8 9 15 19 15 11 0 98
7 193 15 368 32 970 61 1403 68 77 2 155 4 173 5 26 2 32 -2 32 -18z m4396
-19 c1 -9 3 -23 6 -31 3 -8 3 -11 0 -6 -3 5 -10 -2 -17 -15 -9 -15 -12 -56
-10 -124 l4 -100 -9 100 c-4 55 -5 107 0 115 4 8 7 29 5 46 -1 17 3 31 10 31
6 0 11 -7 11 -16z m1322 -16 c140 -14 258 -27 263 -31 5 -3 9 -13 9 -23 0 -16
-17 -15 -286 9 -287 27 -303 31 -304 67 0 8 11 10 33 7 17 -2 146 -16 285 -29z
m-653 -5 c176 -16 323 -30 326 -30 4 0 9 -11 11 -25 3 -15 1 -25 -6 -25 -6 0
-171 13 -366 29 -195 16 -356 28 -358 27 -3 -4 20 -70 28 -79 7 -8 582 -56
673 -57 30 0 37 -4 37 -19 0 -16 -6 -18 -37 -15 -21 2 -159 13 -308 24 -148
11 -296 23 -327 26 l-56 6 -23 54 c-12 30 -19 57 -16 61 19 19 74 52 87 52 8
1 159 -13 335 -29z m-2350 -257 c4 -137 7 -313 7 -393 0 -80 4 -176 8 -214 9
-72 3 -166 -10 -166 -4 0 -8 62 -9 138 -1 75 -6 209 -11 297 -12 201 -13 585
-1 585 5 0 12 -111 16 -247z m3622 201 c271 -26 292 -30 297 -48 3 -11 4 -21
3 -22 -2 -1 -621 57 -623 59 -1 1 -5 13 -9 26 -6 21 -5 23 16 18 13 -3 155
-18 316 -33z m-607 -5 c199 -17 258 -25 268 -37 6 -9 9 -19 5 -23 -7 -7 -429
22 -540 37 -38 5 -43 8 -43 30 0 23 3 25 28 20 15 -3 142 -15 282 -27z m-5110
4 c0 -10 5 -81 10 -158 5 -77 12 -228 14 -335 3 -107 8 -255 12 -327 5 -94 4
-133 -4 -133 -6 0 -11 8 -11 18 -7 242 -11 344 -20 477 -19 289 -23 475 -12
475 6 0 11 -8 11 -17z m3719 -137 c1 -92 -6 -62 -12 49 -3 67 -2 85 3 55 5
-25 9 -72 9 -104z m20 5 c1 -95 -5 -70 -11 44 -4 65 -3 86 3 60 4 -22 8 -69 8
-104z m126 35 c0 -52 -3 -89 -7 -83 -13 21 -8 177 6 177 0 0 1 -42 1 -94z m20
-2 c0 -52 -3 -85 -7 -72 -11 41 -7 168 6 168 0 0 1 -43 1 -96z m-88 -56 c-2
-24 -4 -5 -4 42 0 47 2 66 4 43 2 -24 2 -62 0 -85z m1972 90 c184 -16 255 -26
258 -36 3 -7 3 -15 0 -18 -5 -5 -470 29 -579 42 -40 5 -48 9 -48 26 0 19 4 20
58 15 31 -3 171 -16 311 -29z m351 11 c7 -11 10 -22 8 -24 -2 -1 -23 0 -48 4
-32 4 -46 11 -48 24 -5 27 73 24 88 -4z m-3405 -19 c3 -10 6 -47 6 -82 -1
-121 8 -504 14 -630 5 -84 4 -128 -3 -128 -18 0 -22 29 -17 128 3 53 1 153 -5
222 -14 185 -21 510 -10 510 5 0 11 -9 15 -20z m3431 -42 c4 -13 18 -47 32
-76 13 -29 22 -55 20 -58 -6 -5 -318 20 -443 36 -44 6 -140 13 -212 17 -120 5
-133 8 -133 25 0 10 6 18 13 18 42 0 547 -41 572 -46 16 -4 35 -14 42 -23 11
-14 12 -14 13 3 0 17 6 18 55 12 30 -3 55 -4 55 -2 0 2 -6 19 -14 37 -11 27
-22 35 -57 43 -62 16 -63 36 -1 36 44 0 52 -3 58 -22z m-5029 -27 c9 -1 11
-19 8 -63 -22 -320 -47 -635 -50 -645 -3 -8 -21 -13 -44 -13 -34 0 -43 4 -55
29 -8 15 -17 41 -20 56 -10 56 -30 66 -132 64 -50 -1 -96 1 -102 5 -5 3 -13
63 -16 133 -10 211 -17 454 -12 461 2 4 96 0 208 -10 112 -9 208 -17 215 -17z
m3303 -1 c500 -37 672 -50 694 -55 11 -3 147 -12 301 -20 154 -8 395 -24 535
-35 140 -11 258 -20 261 -20 3 0 4 -11 2 -24 -4 -21 -9 -23 -46 -20 -23 2
-168 11 -322 19 -626 34 -1315 75 -1400 84 -49 5 -156 13 -237 16 l-148 7 0
39 0 39 43 -5 c23 -3 166 -15 317 -25z m670 15 c276 -20 300 -23 300 -41 0
-18 -4 -18 -300 6 -135 11 -253 20 -262 20 -10 0 -18 7 -18 15 0 19 10 19 280
0z m-1877 -72 c11 -117 18 -760 8 -731 -5 15 -14 165 -20 335 -13 356 -13 463
-2 463 5 0 11 -30 14 -67z m-5271 46 l166 -12 7 -58 c4 -32 4 -71 1 -86 -3
-15 -8 -205 -11 -422 -3 -217 -8 -397 -11 -400 -3 -3 -84 -8 -180 -11 l-174
-5 0 503 c0 471 1 502 18 502 9 0 92 -5 184 -11z m623 -45 c44 -3 91 -7 104
-10 l24 -5 -7 -167 c-3 -92 -9 -248 -12 -347 l-6 -180 -65 -97 c-35 -53 -70
-101 -76 -106 -7 -5 -59 -13 -116 -17 l-104 -7 8 458 c4 253 8 467 8 478 1 17
8 18 82 12 44 -3 116 -8 160 -12z m5090 -26 c4 -24 5 -95 4 -158 -2 -63 1
-208 6 -322 5 -144 5 -208 -2 -208 -13 0 -21 145 -28 488 -3 143 -1 242 5 242
5 0 12 -19 15 -42z m-6115 -73 c0 -50 -4 -85 -10 -85 -5 0 -10 15 -10 33 0 41
12 137 16 137 2 0 4 -38 4 -85z m4389 79 l61 -7 0 -192 0 -193 -25 -6 c-16 -4
-25 -13 -25 -26 0 -11 -6 -20 -13 -20 -7 0 -29 -9 -50 -20 -20 -11 -43 -20
-49 -20 -10 0 -14 55 -16 234 -2 129 -1 240 3 245 7 13 29 13 114 5z m2646
-24 c182 -11 614 -36 960 -55 347 -20 640 -38 653 -41 12 -2 22 -9 22 -15 0
-8 -27 -10 -84 -7 l-84 4 5 -76 c4 -48 1 -84 -5 -96 -11 -18 -15 30 -16 157 0
17 -11 19 -295 35 l-114 7 7 -81 c4 -54 3 -82 -4 -82 -6 0 -10 32 -10 80 l0
79 -32 5 c-27 5 -375 26 -415 26 -10 0 -13 -37 -15 -147 -1 -121 -2 -136 -8
-83 -4 36 -8 102 -9 147 l-1 82 -42 5 c-35 5 -387 26 -423 26 -6 0 -9 -21 -7
-50 3 -32 0 -50 -7 -50 -6 0 -11 20 -11 49 l0 49 -47 6 c-27 3 -140 10 -253
16 -113 6 -210 13 -216 15 -6 2 -10 -6 -8 -18 7 -53 12 -687 5 -687 -4 0 -8
46 -9 103 -1 56 -5 216 -8 355 l-7 252 -24 0 c-13 0 -22 4 -19 8 6 10 85 7
521 -18z m-2332 -35 c-1 -16 -5 -77 -8 -135 -4 -58 -8 -143 -10 -190 -1 -47
-3 -88 -4 -92 0 -5 -17 -8 -36 -8 -33 0 -35 2 -35 33 0 17 -2 122 -5 232 l-5
201 53 -6 c50 -5 52 -6 50 -35z m-3050 -31 l57 -6 0 -258 0 -259 -28 8 c-44
13 -94 3 -122 -24 -20 -19 -37 -25 -73 -25 l-48 0 3 291 3 291 75 -6 c41 -4
101 -9 133 -12z m163 -17 c5 -5 7 -542 2 -541 -1 0 -19 7 -38 14 l-35 12 0
265 0 265 34 -6 c18 -3 35 -7 37 -9z m280 -159 c-8 -186 -8 -183 -30 -233 -19
-40 -24 -58 -25 -84 -1 -8 -4 -12 -7 -8 -3 3 -7 52 -9 109 -1 57 -6 163 -10
236 l-8 132 48 0 48 0 -7 -152z m1780 0 c-3 -68 -8 -179 -11 -248 -3 -69 -8
-149 -11 -177 -5 -50 -7 -53 -33 -53 l-27 0 0 300 1 300 43 0 44 0 -6 -122z
m241 106 l29 -6 -3 -156 c-2 -87 -6 -217 -9 -289 l-6 -133 -33 0 c-30 0 -33 3
-38 38 -2 20 -5 153 -6 295 -2 286 -7 266 66 251z m2340 -56 c-2 -13 -4 -5 -4
17 -1 22 1 32 4 23 2 -10 2 -28 0 -40z m-20 -10 c-2 -13 -4 -5 -4 17 -1 22 1
32 4 23 2 -10 2 -28 0 -40z m-20 -25 c-2 -16 -4 -5 -4 22 0 28 2 40 4 28 2
-13 2 -35 0 -50z m-6430 -200 c-3 -218 -6 -263 -20 -293 -17 -34 -17 -33 -12
95 3 72 8 157 10 190 2 33 7 106 11 163 4 56 8 102 11 102 2 0 2 -116 0 -257z
m6410 190 c-2 -16 -4 -5 -4 22 0 28 2 40 4 28 2 -13 2 -35 0 -50z m-20 -20
c-2 -16 -4 -5 -4 22 0 28 2 40 4 28 2 -13 2 -35 0 -50z m743 15 c0 -16 -3 -19
-11 -11 -6 6 -8 16 -5 22 11 17 16 13 16 -11z m1340 -131 l0 -133 -85 4 c-56
3 -90 1 -99 -7 -10 -8 -16 -9 -21 -1 -3 5 -35 10 -69 10 l-64 0 -1 120 -2 120
38 1 c54 2 276 15 291 17 9 2 12 -30 12 -131z m100 3 c0 -80 -4 -130 -10 -130
-6 0 -10 43 -10 108 0 59 -3 117 -6 130 -5 16 -2 22 10 22 14 0 16 -17 16
-130z m-534 108 c2 -3 7 -57 11 -120 l6 -115 -54 -6 c-30 -4 -82 -7 -115 -7
l-62 0 5 113 c2 61 6 117 8 124 2 6 16 13 32 15 40 5 163 2 169 -4z m-1749
-140 c-2 -18 -4 -4 -4 32 0 36 2 50 4 33 2 -18 2 -48 0 -65z m1815 27 c4 -74
-7 -103 -15 -41 -9 67 -9 96 2 96 5 0 11 -25 13 -55z m-1912 -27 c0 -51 -3
-68 -10 -58 -13 20 -13 130 0 130 6 0 10 -31 10 -72z m77 -20 c-2 -18 -4 -6
-4 27 0 33 2 48 4 33 2 -15 2 -42 0 -60z m-20 -55 c-2 -21 -4 -4 -4 37 0 41 2
58 4 38 2 -21 2 -55 0 -75z m885 -185 c-10 -10 -23 271 -13 287 3 6 10 -55 14
-134 5 -85 4 -148 -1 -153z m1387 -18 c-6 -20 -7 -15 -8 21 -1 26 -4 61 -7 78
l-6 31 -194 0 -194 0 -1 -72 c-1 -92 -17 -63 -18 32 l-1 65 204 -3 203 -3 8
23 c11 31 24 -138 14 -172z m-890 73 c-1 -110 -14 -92 -18 25 -1 45 2 72 8 72
7 0 11 -35 10 -97z m307 77 c89 0 144 -4 144 -10 0 -6 -77 -10 -210 -10 -126
0 -210 4 -210 9 0 10 92 20 118 14 8 -2 79 -3 158 -3z m767 -21 c-13 -13 -165
-7 -170 6 -2 6 30 9 88 7 59 -2 88 -7 82 -13z m-6985 -63 c15 -15 -26 -25 -78
-20 -65 7 -71 10 -39 24 25 10 105 7 117 -4z m3492 -92 c0 -8 -4 -14 -10 -14
-5 0 -10 9 -10 21 0 11 5 17 10 14 6 -3 10 -13 10 -21z m997 -486 c-1 -95 -3
-18 -3 172 0 190 2 267 3 173 2 -95 2 -251 0 -345z m170 10 c-1 -95 -3 -20 -3
167 0 187 2 265 3 173 2 -92 2 -245 0 -340z m100 0 c-1 -95 -3 -20 -3 167 0
187 2 265 3 173 2 -92 2 -245 0 -340z m-337 482 c0 -5 -4 -10 -10 -10 -5 0
-10 5 -10 10 0 6 5 10 10 10 6 0 10 -4 10 -10z m87 -492 c-1 -95 -3 -20 -3
167 0 187 2 265 3 173 2 -92 2 -245 0 -340z m20 0 c-1 -95 -3 -20 -3 167 0
187 2 265 3 173 2 -92 2 -245 0 -340z m33 490 c0 6 5 12 10 12 12 0 12 -337 0
-535 l-8 -130 3 167 c2 92 0 170 -4 172 -4 3 -8 -72 -10 -167 -1 -94 -4 -173
-7 -176 -2 -2 -3 148 -3 333 1 195 5 332 10 325 6 -10 9 -11 9 -1z m50 -238
l6 255 1 -290 c0 -159 -3 -310 -7 -335 -8 -40 -9 -37 -7 28 2 39 -1 72 -5 72
-4 0 -9 -33 -11 -72 -2 -40 -3 -10 -1 67 2 77 5 228 6 335 l3 195 5 -255 5
-255 5 255z m25 -408 c-3 -3 -6 -3 -7 -1 -2 2 -1 153 2 334 l5 330 3 -329 c1
-181 0 -331 -3 -334z m142 161 c-1 -93 -3 -17 -3 167 0 184 2 260 3 168 2 -93
2 -243 0 -335z m24 171 c0 -174 -3 -319 -6 -322 -3 -3 -5 142 -5 323 0 181 3
326 6 322 3 -3 6 -148 5 -323z m2179 296 c0 -7 -365 -10 -1075 -10 -710 0
-1075 3 -1075 10 0 7 365 10 1075 10 710 0 1075 -3 1075 -10z m-5640 -15 c0
-9 -9 -15 -22 -15 -13 0 -207 -7 -433 -15 -535 -19 -565 -19 -565 0 0 12 14
15 63 16 48 1 638 19 910 27 36 2 47 -2 47 -13z m3100 -4 c0 -4 -170 -11 -377
-15 -208 -3 -463 -9 -568 -11 -104 -3 -525 -12 -935 -20 -410 -8 -834 -17
-942 -21 -172 -5 -198 -4 -198 9 0 20 105 25 670 32 245 3 609 8 810 11 1536
26 1540 26 1540 15z m2540 -91 l0 -60 -274 0 c-151 0 -281 -3 -290 -6 -14 -5
-16 -29 -16 -165 0 -145 -2 -159 -17 -159 -17 0 -18 14 -17 173 1 94 2 193 3
219 l1 48 168 3 c92 1 229 4 305 5 l137 2 0 -60z m-1060 -195 l0 -245 -22 0
c-13 0 -246 -14 -518 -30 -272 -16 -507 -30 -522 -30 l-28 0 0 270 0 269 128
4 c70 1 315 4 545 5 l417 2 0 -245z m430 25 l0 -220 -24 0 c-23 0 -24 3 -28
98 -5 109 -24 160 -78 206 -39 32 -91 34 -140 5 -73 -45 -102 -109 -109 -248
-4 -70 -10 -106 -18 -109 -10 -3 -13 22 -13 102 0 93 3 113 25 155 28 57 104
127 146 136 45 10 88 -4 132 -44 l40 -36 -16 32 c-27 51 -78 76 -146 71 -69
-5 -111 -31 -152 -96 l-29 -46 0 107 0 107 205 0 205 0 0 -220z m-1980 73 l0
-128 -30 55 c-45 83 -90 120 -144 120 -55 0 -94 -30 -136 -104 -43 -73 -37
-80 8 -10 45 70 78 94 126 94 49 0 97 -45 141 -132 l35 -71 0 -143 c0 -137 -1
-144 -20 -144 -19 0 -20 7 -20 103 0 122 -20 223 -55 283 -29 49 -50 64 -92
64 -29 0 -79 -42 -101 -85 -22 -44 -44 -153 -51 -261 -4 -63 -9 -115 -12 -117
-5 -4 -1707 -287 -1727 -287 -9 0 -12 87 -12 400 l0 400 48 1 c26 0 475 20
997 43 523 24 971 44 998 45 l47 1 0 -127z m72 -155 c-3 -292 -4 -297 -44
-298 -17 0 -18 20 -18 290 l0 290 33 0 32 0 -3 -282z m-3094 -75 l-3 -347
-520 -62 c-286 -33 -524 -59 -528 -57 -4 3 -6 50 -3 106 2 56 5 231 5 388 l1
286 438 15 c240 8 476 16 525 16 l87 2 -2 -347z m-1244 298 c-13 -23 -51 -44
-174 -100 -153 -69 -160 -71 -236 -71 -44 0 -369 14 -724 30 -355 16 -655 30
-668 30 -12 0 -39 16 -60 36 -31 31 -32 32 -5 11 27 -21 46 -26 125 -31 87 -6
1096 -43 1309 -48 l96 -3 174 87 c96 48 175 87 177 87 2 1 -5 -12 -14 -28z
m2156 -193 l0 -162 -28 45 c-66 104 -165 160 -292 167 -132 6 -239 -37 -331
-135 -41 -43 -89 -112 -89 -128 0 -5 15 13 34 41 71 105 192 185 310 204 137
22 276 -45 367 -177 l29 -42 0 -259 c0 -279 1 -272 -51 -272 -18 0 -19 9 -19
135 0 210 -37 347 -122 450 -40 47 -118 85 -179 85 -103 0 -227 -96 -289 -225
-43 -91 -59 -172 -73 -375 -12 -180 -13 -185 -34 -188 -22 -3 -23 -1 -23 85 0
48 -3 265 -7 481 -3 215 -4 392 -2 393 2 0 171 9 374 18 204 10 382 19 398 20
l27 1 0 -162z m4718 35 l-3 -117 -70 -21 c-38 -12 -82 -25 -97 -29 l-28 -6 0
145 0 145 100 0 101 0 -3 -117z m-218 -38 l0 -144 -37 -10 c-21 -6 -100 -11
-175 -11 l-138 0 0 155 0 155 175 0 175 0 0 -145z m-5310 -359 l0 -483 -31 -7
c-17 -3 -38 -6 -45 -6 -12 0 -14 74 -14 444 0 244 3 464 6 490 7 46 7 46 45
46 l39 0 0 -484z m4726 398 c10 -8 13 -12 5 -8 -8 4 -28 11 -45 15 -29 6 -29
7 -5 8 14 1 34 -6 45 -15z m-76 2 c0 -2 -8 -10 -17 -17 -16 -13 -17 -12 -4 4
13 16 21 21 21 13z m-7140 -32 c252 -11 370 -20 407 -31 52 -16 93 -46 291
-213 86 -73 99 -87 87 -99 -12 -12 -25 -5 -91 55 -43 38 -111 99 -153 137
-114 102 -114 102 -544 127 -490 28 -517 28 -559 2 -19 -12 -63 -64 -102 -121
-61 -89 -86 -113 -86 -80 0 14 127 179 159 207 38 33 77 42 161 37 41 -3 235
-12 430 -21z m7205 -1 c21 -20 35 -57 34 -86 -1 -12 -5 -5 -10 17 -16 70 -60
96 -100 60 -13 -12 -19 -12 -25 -3 -4 7 -3 10 3 6 6 -4 16 0 23 8 16 20 55 19
75 -2z m-16 -47 c9 -11 7 -12 -12 -9 -30 6 -50 -19 -53 -65 -3 -63 30 -93 65
-59 11 10 11 8 2 -10 -26 -51 -81 -10 -81 60 0 73 47 122 79 83z m-1933 -28
c19 -23 19 -23 -2 -5 -24 20 -54 22 -74 5 -12 -11 -12 -10 -1 5 19 24 54 21
77 -5z m-3938 -475 l-3 -488 -34 -3 -34 -4 6 288 c4 158 7 376 7 485 0 211 -2
203 48 208 10 1 12 -99 10 -486z m-78 279 l0 -188 -112 -27 c-62 -15 -187 -45
-278 -67 -91 -22 -170 -40 -177 -40 -17 0 78 165 183 318 48 70 88 128 89 130
3 4 258 60 278 61 16 1 17 -14 17 -187z m3985 182 c8 -4 22 -19 30 -35 22 -41
18 -49 -5 -11 -22 35 -44 40 -71 16 -13 -12 -19 -12 -25 -3 -4 7 -3 10 3 6 6
-4 18 2 28 13 21 23 18 22 40 14z m1852 -26 c-3 -7 -5 -2 -5 12 0 14 2 19 5
13 2 -7 2 -19 0 -25z m95 -4 c-4 -20 -2 -25 8 -19 9 5 11 4 6 -3 -4 -7 -16
-12 -27 -12 -14 0 -19 7 -19 30 0 23 5 30 19 30 14 0 17 -6 13 -26z m65 -41
c-3 -10 -5 -4 -5 12 0 17 2 24 5 18 2 -7 2 -21 0 -30z m-160 -5 c-3 -7 -5 -2
-5 12 0 14 2 19 5 13 2 -7 2 -19 0 -25z m-1840 -4 c2 -7 -5 -10 -20 -7 -20 4
-26 -1 -36 -28 -14 -41 -14 -58 2 -39 7 8 20 16 30 18 16 3 16 1 5 -19 -10
-17 -10 -23 0 -26 19 -7 14 -22 -8 -20 -15 1 -19 6 -14 22 6 19 5 19 -11 3
-23 -22 -8 -72 23 -76 13 -2 22 2 22 9 0 7 3 9 7 6 7 -8 -25 -47 -38 -47 -17
0 -39 61 -39 110 0 65 23 112 52 108 12 -2 23 -8 25 -14z m40 -116 c-2 -24 -4
-7 -4 37 0 44 2 63 4 43 2 -21 2 -57 0 -80z m1953 91 c0 -15 -56 -69 -72 -69
-7 0 1 9 19 19 17 11 34 29 38 40 7 23 15 28 15 10z m-124 -39 c0 -12 -4 -16
-9 -11 -5 5 -6 14 -3 20 10 15 12 14 12 -9z m134 -3 c0 -2 -12 -14 -27 -28
l-28 -24 24 28 c23 25 31 32 31 24z m-82 -47 c22 -7 23 -8 6 -9 -11 -1 -29 6
-40 15 -10 8 -13 12 -6 9 8 -4 26 -11 40 -15z m-7882 -114 l5 -51 -20 24 c-17
18 -21 36 -20 85 l1 61 14 -34 c9 -19 18 -57 20 -85z m3665 71 c195 -103 180
-460 -23 -561 -97 -48 -190 -29 -262 55 -46 54 -67 121 -67 207 0 178 115 322
257 322 34 0 65 -8 95 -23z m2305 -72 c-16 -25 -59 -35 -70 -16 -3 4 5 6 18 4
17 -4 29 2 42 20 24 32 32 26 10 -8z m-188 8 c-3 -17 -136 -42 -1403 -262
-165 -29 -308 -54 -317 -57 -14 -4 -18 1 -18 19 0 23 5 24 248 66 1155 196
1469 249 1480 250 8 1 12 -7 10 -16z m108 5 c4 -7 3 -8 -4 -4 -7 4 -12 2 -12
-5 0 -7 -3 -10 -6 -6 -6 5 3 27 11 27 2 0 7 -5 11 -12z m79 -58 c-20 -22 -42
-25 -65 -10 -11 7 -6 8 16 4 21 -4 34 -1 43 10 8 9 16 16 19 16 3 0 -3 -9 -13
-20z m-5827 -39 l77 -39 446 -41 445 -41 120 25 c65 14 127 28 137 31 22 7 21
-5 -1 -34 -15 -19 -53 -32 -193 -67 -95 -25 -190 -45 -209 -45 -19 0 -199 19
-400 42 l-365 41 -75 55 c-41 30 -79 58 -83 62 -8 8 8 50 19 50 3 0 40 -18 82
-39z m-143 0 c8 -27 -5 -71 -21 -71 -10 0 -14 13 -14 45 0 32 4 45 14 45 8 0
17 -9 21 -19z m1963 -273 l-3 -283 -105 3 c-172 5 -476 36 -667 67 l-32 6 75
119 c42 66 79 122 82 124 4 2 54 -7 110 -21 l104 -26 -79 -81 c-43 -44 -60
-65 -38 -45 239 213 348 316 362 342 8 18 17 34 19 36 3 4 136 35 167 40 4 0
6 -126 5 -281z m1152 82 c0 -104 -4 -191 -8 -194 -19 -12 -876 -165 -959 -171
l-93 -8 0 222 c0 121 1 221 3 221 55 10 1044 126 1050 123 4 -2 7 -89 7 -193z
m-2959 64 l86 -62 339 -37 339 -36 198 51 c110 28 201 50 203 47 2 -2 -38 -73
-89 -158 l-94 -154 -39 3 c-79 7 -964 129 -969 134 -6 5 -85 267 -85 281 0 10
7 6 111 -69z m-84 -94 c18 -63 31 -115 29 -117 -2 -2 -25 0 -52 4 -62 11 -74
32 -74 134 0 69 2 77 23 87 12 6 26 9 32 8 5 -1 24 -54 42 -116z m1441 103
c-2 -5 -10 -20 -18 -36 -12 -24 -11 -32 3 -62 18 -39 7 -47 -25 -18 -34 30
-13 123 28 123 9 0 14 -3 12 -7z m40 -25 c24 -24 11 -88 -18 -88 -24 0 -33 15
-32 53 1 40 27 58 50 35z"/>
<path d="M7717 5443 c-11 -11 -8 -20 7 -20 8 0 12 6 9 14 -6 15 -7 15 -16 6z"/>
<path d="M7507 5413 c3 -7 6 -13 8 -13 2 0 5 6 8 13 3 8 -1 14 -8 14 -7 0 -11
-6 -8 -14z"/>
<path d="M7621 5324 c0 -11 3 -14 6 -6 3 7 2 16 -1 19 -3 4 -6 -2 -5 -13z"/>
<path d="M7852 5285 c0 -16 2 -22 5 -12 2 9 2 23 0 30 -3 6 -5 -1 -5 -18z"/>
<path d="M7702 5070 c0 -19 2 -27 5 -17 2 9 2 25 0 35 -3 9 -5 1 -5 -18z"/>
<path d="M7682 5055 c0 -16 2 -22 5 -12 2 9 2 23 0 30 -3 6 -5 -1 -5 -18z"/>
<path d="M7662 5035 c0 -16 2 -22 5 -12 2 9 2 23 0 30 -3 6 -5 -1 -5 -18z"/>
<path d="M7642 5020 c0 -19 2 -27 5 -17 2 9 2 25 0 35 -3 9 -5 1 -5 -18z"/>
<path d="M7620 5000 l-3 -45 -7 35 -7 35 -3 -35 -2 -35 -8 30 c-7 29 -8 29
-10 -10 -2 -39 -3 -39 -10 -10 -7 28 -8 27 -9 -14 -1 -49 24 -81 64 -81 25 0
55 29 55 52 0 17 -39 66 -41 52 -1 -5 -5 9 -9 31 l-7 40 -3 -45z"/>
<path d="M7872 4960 c0 -19 2 -27 5 -17 2 9 2 25 0 35 -3 9 -5 1 -5 -18z"/>
<path d="M7733 4835 c0 -27 2 -38 4 -22 2 15 2 37 0 50 -2 12 -4 0 -4 -28z"/>
<path d="M7713 4800 c0 -30 2 -43 4 -27 2 15 2 39 0 55 -2 15 -4 2 -4 -28z"/>
<path d="M7693 4770 c0 -25 2 -35 4 -22 2 12 2 32 0 45 -2 12 -4 2 -4 -23z"/>
<path d="M7883 4625 c0 -38 2 -53 4 -32 2 20 2 52 0 70 -2 17 -4 1 -4 -38z"/>
<path d="M7655 4210 c0 -55 3 -100 8 -100 9 0 9 171 -1 187 -4 7 -7 -33 -7
-87z"/>
<path d="M7980 4227 c3 -3 55 -13 115 -22 251 -37 487 -105 658 -191 98 -49
190 -105 225 -137 l22 -20 0 155 0 156 -64 11 c-206 36 -295 43 -621 48 -187
3 -338 3 -335 0z"/>
<path d="M7085 4249 c-831 -90 -1295 -189 -1597 -340 l-78 -39 0 -208 0 -208
113 111 c64 63 150 136 202 170 296 195 722 356 1255 471 253 55 266 60 105
43z"/>
<path d="M4285 4244 c-271 -48 -557 -177 -807 -362 l-58 -43 0 -165 0 -165 61
78 c96 122 312 330 417 401 51 35 135 84 187 108 93 44 260 94 316 94 26 0 29
3 29 35 0 33 -2 35 -32 34 -18 0 -69 -7 -113 -15z"/>
<path d="M9530 4055 l0 -115 85 0 85 0 0 115 0 115 -85 0 -85 0 0 -115z"/>
<path d="M4846 3725 c-114 -40 -186 -157 -186 -300 0 -78 22 -142 67 -194 46
-55 86 -74 153 -75 94 -1 171 58 223 172 16 36 21 67 22 132 0 73 -4 93 -28
142 -33 68 -83 112 -143 127 -53 14 -60 13 -108 -4z m146 -60 c84 -56 118
-211 69 -320 -26 -60 -74 -112 -118 -131 -42 -18 -117 -18 -151 0 -56 29 -113
114 -111 163 0 10 7 -3 15 -29 18 -58 73 -114 126 -128 119 -32 238 88 238
240 -1 214 -209 296 -330 129 -16 -23 -30 -39 -30 -35 0 4 12 25 27 46 70 96
177 123 265 65z m-68 -69 c103 -43 107 -225 6 -293 -88 -60 -190 10 -190 130
0 78 33 135 95 163 38 17 48 17 89 0z m-237 -108 c-3 -8 -6 -5 -6 6 -1 11 2
17 5 13 3 -3 4 -12 1 -19z m-10 -70 c-3 -7 -5 -2 -5 12 0 14 2 19 5 13 2 -7 2
-19 0 -25z"/>
<path d="M4860 3573 c-8 -3 -27 -17 -43 -31 -82 -77 -38 -232 66 -232 33 0 76
36 93 76 44 105 -28 219 -116 187z m-31 -72 c-35 -35 -38 -77 -8 -115 11 -14
16 -26 10 -26 -19 0 -41 44 -41 83 0 37 34 87 59 87 5 0 -4 -13 -20 -29z m26
-21 c-19 -37 -19 -59 2 -82 14 -16 15 -18 0 -18 -19 0 -47 37 -47 63 0 16 41
67 55 67 3 0 -1 -13 -10 -30z m87 -6 c10 -21 9 -31 -3 -52 -27 -49 -81 -34
-81 23 0 56 62 77 84 29z"/>
<path d="M4897 3473 c-11 -10 -8 -51 4 -59 18 -10 42 21 34 45 -6 21 -25 28
-38 14z"/>
<path d="M0 480 l0 -480 5700 0 5700 0 0 480 0 480 -5700 0 -5700 0 0 -480z
m1419 214 c30 -38 9 -84 -40 -84 -52 0 -77 53 -42 92 23 26 58 22 82 -8z m520
0 c30 -38 9 -84 -40 -84 -52 0 -77 53 -42 92 23 26 58 22 82 -8z m691 -139 c0
-140 2 -165 15 -165 10 0 15 -11 15 -35 l0 -35 -80 0 -80 0 0 35 c0 19 5 35
10 35 6 0 10 50 10 130 0 80 -4 130 -10 130 -5 0 -10 16 -10 35 l0 35 65 0 65
0 0 -165z m639 139 c30 -38 9 -84 -40 -84 -52 0 -77 53 -42 92 23 26 58 22 82
-8z m191 -139 c0 -140 2 -165 15 -165 10 0 15 -11 15 -35 l0 -35 -80 0 -80 0
0 35 c0 19 5 35 10 35 6 0 10 50 10 130 0 80 -4 130 -10 130 -5 0 -10 16 -10
35 l0 35 65 0 65 0 0 -165z m1288 125 c26 -16 32 -17 32 -5 0 11 12 15 50 15
l50 0 0 -65 0 -65 -50 0 c-39 0 -52 4 -60 20 -23 43 -90 50 -90 10 0 -17 39
-37 126 -64 11 -3 33 -19 48 -35 34 -36 38 -91 9 -130 -40 -53 -146 -65 -205
-21 -28 21 -28 21 -28 0 0 -17 -6 -20 -50 -20 l-51 0 3 68 3 67 47 3 c40 3 47
0 53 -18 8 -25 50 -43 82 -35 43 10 25 33 -44 56 -117 38 -164 113 -117 185
36 55 130 72 192 34z m805 1 c29 -15 37 -16 37 -5 0 10 13 14 45 14 l46 0 -3
-77 -3 -78 -46 -3 c-44 -3 -47 -1 -57 27 -19 54 -91 50 -112 -5 -19 -49 -7
-115 24 -136 17 -12 61 -9 74 4 16 16 15 28 -3 28 -10 0 -15 10 -15 30 l0 30
90 0 90 0 0 -30 c0 -20 -5 -30 -15 -30 -12 0 -15 -14 -15 -65 l0 -65 -54 0
c-30 0 -56 4 -58 10 -2 6 -20 3 -46 -6 -57 -19 -105 -10 -150 30 -45 39 -62
81 -62 151 0 142 120 233 233 176z m1470 0 c29 -15 37 -16 37 -5 0 10 13 14
45 14 l46 0 -3 -77 -3 -78 -46 -3 c-44 -3 -47 -1 -57 27 -19 54 -91 50 -112
-5 -19 -49 -7 -115 24 -136 17 -12 61 -9 74 4 16 16 15 28 -3 28 -10 0 -15 10
-15 30 l0 30 90 0 90 0 0 -30 c0 -20 -5 -30 -15 -30 -12 0 -15 -14 -15 -65 l0
-65 -54 0 c-30 0 -56 4 -58 10 -2 6 -21 3 -47 -6 -113 -39 -211 45 -211 180 0
143 120 235 233 177z m1650 0 c29 -15 37 -16 37 -5 0 10 13 14 45 14 l46 0 -3
-77 -3 -78 -46 -3 c-44 -3 -47 -1 -57 27 -19 54 -91 50 -112 -5 -19 -49 -7
-115 24 -136 17 -12 61 -9 74 4 16 16 15 28 -3 28 -10 0 -15 10 -15 30 l0 30
90 0 90 0 0 -30 c0 -20 -5 -30 -15 -30 -12 0 -15 -14 -15 -65 l0 -65 -54 0
c-30 0 -56 4 -58 10 -2 6 -20 3 -46 -6 -57 -19 -105 -10 -150 30 -45 39 -62
81 -62 151 0 142 120 233 233 176z m-7487 -10 c135 -61 138 -261 4 -328 -38
-20 -60 -23 -157 -23 l-113 0 0 35 c0 24 5 35 15 35 12 0 15 19 15 115 0 96
-3 115 -15 115 -10 0 -15 11 -15 35 l0 35 113 0 c87 0 121 -5 153 -19z m1944
-41 l0 -60 -45 0 c-41 0 -45 2 -45 25 0 23 -4 25 -40 25 l-40 0 0 -45 0 -45
50 0 50 0 0 -35 0 -35 -50 0 -50 0 0 -35 c0 -31 3 -35 25 -35 22 0 25 -4 25
-35 l0 -35 -100 0 -100 0 0 35 c0 24 5 35 15 35 12 0 15 19 15 115 0 96 -3
115 -15 115 -10 0 -15 11 -15 35 l0 35 160 0 160 0 0 -60z m1960 26 c0 -19 -5
-36 -11 -38 -7 -2 -1 -33 17 -85 l28 -81 32 81 c24 63 28 83 18 85 -9 2 -14
17 -14 38 l0 34 80 0 80 0 0 -34 c0 -24 -5 -35 -17 -39 -12 -3 -38 -54 -78
-151 l-60 -146 -51 0 -51 0 -69 150 c-50 108 -74 149 -86 150 -14 0 -18 8 -18
35 l0 35 100 0 100 0 0 -34z m1330 -1 c0 -28 -4 -35 -20 -35 -19 0 -20 -7 -20
-152 0 -126 -3 -159 -18 -188 -20 -41 -71 -70 -124 -70 -38 0 -38 0 -38 41 0
31 3 40 14 36 8 -3 22 0 33 8 16 12 18 31 21 169 l3 156 -25 0 c-23 0 -26 4
-26 35 l0 35 100 0 100 0 0 -35z m295 21 c40 -17 55 -42 55 -93 0 -69 -54
-113 -140 -113 l-40 0 0 -40 c0 -33 3 -40 20 -40 16 0 20 -7 20 -35 l0 -35
-90 0 -90 0 0 35 c0 24 5 35 15 35 12 0 15 19 15 115 0 96 -3 115 -15 115 -10
0 -15 11 -15 35 l0 35 115 0 c77 0 127 -5 150 -14z m1225 -1 c37 -19 50 -43
50 -92 0 -69 -54 -113 -140 -113 l-40 0 0 -40 c0 -33 3 -40 20 -40 16 0 20 -7
20 -35 l0 -35 -90 0 -90 0 0 35 c0 24 5 35 15 35 12 0 15 19 15 115 0 96 -3
115 -15 115 -10 0 -15 11 -15 35 l0 35 120 0 c88 0 129 -4 150 -15z m290 -75
c33 -49 63 -90 65 -90 3 0 5 25 5 55 0 48 -2 55 -20 55 -16 0 -20 7 -20 35 l0
35 80 0 80 0 0 -35 c0 -24 -5 -35 -15 -35 -13 0 -15 -23 -15 -150 l0 -150 -60
0 -60 0 -65 97 -65 98 0 -63 c0 -55 2 -62 20 -62 16 0 20 -7 20 -35 l0 -35
-85 0 -85 0 0 35 c0 24 5 35 15 35 12 0 15 19 15 115 0 96 -3 115 -15 115 -10
0 -15 11 -15 35 l0 35 80 0 79 0 61 -90z m1366 71 c135 -61 138 -261 4 -328
-38 -20 -60 -23 -157 -23 l-113 0 0 35 c0 24 5 35 15 35 12 0 15 19 15 115 0
96 -3 115 -15 115 -10 0 -15 11 -15 35 l0 35 113 0 c87 0 121 -5 153 -19z
m334 -16 c0 -25 -4 -35 -16 -35 -12 0 -11 -6 7 -31 l22 -32 25 29 25 29 -21 3
c-18 3 -22 10 -22 38 l0 34 90 0 90 0 0 -35 c0 -30 -3 -35 -24 -35 -29 0 -102
-91 -90 -112 23 -41 89 -118 100 -118 9 0 14 -12 14 -35 l0 -35 -105 0 -105 0
0 35 c0 19 5 35 11 35 5 0 2 13 -8 30 -21 37 -26 37 -53 3 l-22 -28 21 -3 c17
-3 21 -11 21 -38 l0 -34 -90 0 -90 0 0 35 c0 30 3 35 24 35 22 0 61 39 90 88
11 18 -73 141 -96 142 -14 0 -18 8 -18 35 l0 35 110 0 110 0 0 -35z m540 -25
l0 -60 -45 0 c-41 0 -45 2 -45 25 0 23 -4 25 -40 25 l-40 0 0 -45 0 -45 50 0
50 0 0 -35 0 -35 -50 0 -50 0 0 -35 c0 -31 3 -35 25 -35 22 0 25 -4 25 -35 l0
-35 -100 0 -100 0 0 35 c0 24 5 35 15 35 12 0 15 19 15 115 0 96 -3 115 -15
115 -10 0 -15 11 -15 35 l0 35 160 0 160 0 0 -60z m-8350 -4 c0 -28 4 -35 23
-38 17 -2 23 -11 25 -35 3 -30 1 -33 -22 -33 -25 0 -26 -1 -26 -71 0 -71 0
-71 25 -65 23 6 25 4 25 -28 0 -38 -12 -46 -71 -46 -63 0 -79 24 -79 120 0 62
-3 82 -15 86 -9 4 -15 19 -15 40 0 24 5 34 15 34 9 0 15 9 15 24 0 25 31 44
78 45 19 1 22 -4 22 -33z m264 -40 c51 -21 66 -50 66 -128 0 -54 3 -68 15 -68
10 0 15 -11 15 -35 l0 -35 -60 0 c-35 0 -60 4 -60 11 0 5 -10 3 -22 -5 -28
-20 -80 -20 -117 -1 -33 16 -41 33 -41 79 0 62 86 115 140 86 19 -10 21 -9 18
7 -4 22 -75 31 -108 13 -17 -9 -22 -7 -30 15 -15 39 -13 41 28 58 47 20 113
21 156 3z m-954 -96 c0 -60 4 -100 10 -100 6 0 10 -16 10 -35 l0 -35 -75 0
-75 0 0 35 c0 19 5 35 10 35 6 0 10 28 10 65 0 37 -4 65 -10 65 -5 0 -10 16
-10 35 l0 35 65 0 65 0 0 -100z m221 90 c13 -7 19 -7 19 0 0 6 27 10 65 10
l65 0 0 -40 c0 -29 -4 -40 -15 -40 -12 0 -15 -17 -15 -96 0 -67 -5 -106 -16
-130 -30 -62 -141 -93 -217 -60 -59 26 -61 30 -43 65 15 29 18 30 39 17 39
-24 77 -28 103 -11 30 19 34 51 5 35 -56 -29 -137 9 -159 75 -23 69 7 153 62
175 30 12 84 12 107 0z m299 -90 c0 -60 4 -100 10 -100 6 0 10 -16 10 -35 l0
-35 -75 0 -75 0 0 35 c0 19 5 35 10 35 6 0 10 28 10 65 0 37 -4 65 -10 65 -5
0 -10 16 -10 35 l0 35 65 0 65 0 0 -100z m1330 0 c0 -60 4 -100 10 -100 6 0
10 -16 10 -35 l0 -35 -75 0 -75 0 0 35 c0 19 5 35 10 35 6 0 10 28 10 65 0 37
-4 65 -10 65 -5 0 -10 16 -10 35 l0 35 65 0 65 0 0 -100z m430 85 c36 -19 60
-62 60 -110 l0 -35 -85 0 c-47 0 -85 -3 -85 -7 1 -34 48 -48 93 -29 37 15 47
10 71 -32 13 -23 -78 -55 -142 -50 -48 4 -60 10 -88 41 -89 97 -31 237 98 237
27 0 62 -7 78 -15z m231 -1 c11 -14 13 -14 21 0 5 9 22 16 38 16 29 0 30 -1
30 -50 0 -49 -1 -50 -30 -50 -17 0 -39 9 -51 21 -21 21 -50 23 -56 3 -2 -6 23
-21 56 -33 65 -23 91 -50 91 -91 0 -59 -88 -97 -148 -66 -18 9 -32 12 -32 6 0
-5 -16 -10 -35 -10 l-35 0 0 50 c0 49 1 50 30 50 17 0 39 -9 51 -21 11 -11 30
-19 42 -17 37 5 25 22 -26 38 -95 30 -126 92 -72 145 29 30 104 35 126 9z
m419 -129 l0 -35 -80 0 -80 0 0 35 0 35 80 0 80 0 0 -35z m1670 0 l0 -35 -80
0 -80 0 0 35 0 35 80 0 80 0 0 -35z m1470 0 l0 -35 -80 0 -80 0 0 35 0 35 80
0 80 0 0 -35z m1660 0 l0 -35 -80 0 -80 0 0 35 0 35 80 0 80 0 0 -35z"/>
<path d="M1070 505 c0 -65 4 -115 9 -115 56 0 86 52 79 137 -5 60 -30 93 -69
93 -18 0 -19 -9 -19 -115z"/>
<path d="M6590 575 c0 -41 2 -45 23 -45 32 0 60 31 50 56 -9 24 -22 34 -50 34
-21 0 -23 -5 -23 -45z"/>
<path d="M7810 575 c0 -41 2 -45 23 -45 24 0 57 28 57 48 0 19 -31 42 -56 42
-22 0 -24 -4 -24 -45z"/>
<path d="M9480 505 c0 -66 4 -115 10 -115 25 0 60 25 71 51 18 46 7 138 -21
161 -12 10 -31 18 -41 18 -18 0 -19 -9 -19 -115z"/>
<path d="M2284 415 c-4 -9 -2 -21 4 -27 15 -15 54 1 50 20 -4 23 -46 28 -54 7z"/>
<path d="M1600 501 c-15 -29 -12 -77 6 -95 30 -31 54 -9 54 49 0 60 -37 88
-60 46z"/>
<path d="M3612 508 c-21 -21 -13 -28 28 -28 38 0 40 2 30 20 -12 22 -40 26
-58 8z"/>
</g>
</svg>
