<?xml version="1.0" standalone="no"?>
<!DOCTYPE svg PUBLIC "-//W3C//DTD SVG 20010904//EN"
 "http://www.w3.org/TR/2001/REC-SVG-20010904/DTD/svg10.dtd">
<svg version="1.0" xmlns="http://www.w3.org/2000/svg"
 width="1024.000000pt" height="1024.000000pt" viewBox="0 0 1024.000000 1024.000000"
 preserveAspectRatio="xMidYMid meet">
<metadata>
Created by potrace 1.16, written by Peter Selinger 2001-2019
</metadata>
<g transform="translate(0.000000,1024.000000) scale(0.100000,-0.100000)"
fill="#000000" stroke="none">
<path d="M8160 9182 c-80 -48 -215 -131 -300 -183 -156 -96 -1984 -1194 -2353
-1414 -109 -64 -204 -127 -212 -139 -11 -17 -13 -128 -13 -596 1 -316 5 -582
9 -591 13 -27 254 -171 729 -439 129 -73 243 -140 253 -148 35 -31 81 -18 235
68 81 46 195 112 255 147 l107 64 30 -25 c29 -24 87 -46 120 -46 34 0 118 50
157 92 56 62 86 122 107 221 4 15 12 27 18 27 6 0 19 6 27 14 9 8 153 97 321
198 168 101 383 233 479 292 l175 108 37 -21 c47 -27 117 -27 167 -2 76 39
158 150 177 239 5 24 12 32 29 32 37 0 152 62 401 215 301 185 322 200 331
228 4 12 7 109 5 216 -2 188 -12 323 -47 594 -10 70 -15 129 -12 132 2 3 18 8
35 11 l30 6 11 -94 c6 -51 14 -118 17 -149 6 -55 7 -57 38 -62 18 -2 42 -1 55
4 27 10 28 30 8 209 -12 106 -17 127 -36 142 -28 23 -38 22 -100 -2 -28 -11
-54 -20 -59 -20 -5 0 -11 33 -13 74 -3 44 -11 85 -21 99 -9 14 -80 61 -159
104 -380 212 -575 322 -701 394 -76 44 -150 82 -165 85 -21 4 -57 -13 -172
-84z m305 -30 c77 -43 280 -156 450 -251 171 -95 313 -176 317 -180 4 -4 -140
-95 -320 -203 -721 -431 -1421 -848 -1492 -888 -41 -24 -295 -174 -565 -335
-269 -160 -510 -303 -535 -317 l-45 -26 -280 160 c-425 243 -595 338 -605 338
-30 0 11 28 218 150 125 74 353 209 507 300 403 238 372 222 378 206 3 -7 72
-51 154 -98 81 -47 259 -149 396 -227 229 -132 276 -153 283 -126 2 6 -95 65
-214 133 -119 67 -300 170 -401 227 -102 58 -189 106 -195 108 -6 3 -9 7 -6 9
7 8 417 258 605 370 217 129 943 568 1085 656 63 39 117 72 120 72 3 0 68 -35
145 -78z m849 -483 c41 -32 34 -53 -31 -84 -55 -26 -179 -98 -603 -350 -113
-67 -356 -211 -540 -320 -184 -109 -585 -346 -890 -528 -305 -182 -627 -373
-715 -425 -88 -52 -177 -105 -197 -118 -21 -13 -49 -24 -64 -24 -14 0 -74 28
-133 61 -58 34 -187 108 -286 164 -99 57 -217 125 -261 151 -45 27 -125 72
-178 99 -94 49 -96 51 -96 86 0 61 19 65 91 21 35 -22 138 -81 229 -132 91
-51 259 -147 373 -212 115 -66 222 -125 239 -132 38 -14 -13 -42 708 387 296
176 700 415 805 477 104 61 349 207 600 357 110 66 288 173 395 237 107 64
265 159 350 211 85 52 160 95 166 95 6 0 23 -9 38 -21z m26 -137 c0 -38 -1
-40 -92 -94 -51 -30 -187 -112 -303 -183 -176 -107 -762 -454 -1165 -690 -95
-56 -445 -264 -1142 -680 l-248 -147 0 -403 0 -402 -41 -27 c-22 -15 -44 -25
-47 -21 -4 4 -8 201 -10 438 l-3 432 48 36 c26 21 122 81 213 134 91 54 350
208 575 343 226 135 541 323 700 417 160 94 418 247 575 340 738 437 923 544
938 545 1 0 2 -17 2 -38z m70 -750 l0 -87 -80 -53 c-44 -28 -82 -52 -85 -52
-3 0 -5 40 -5 88 l0 89 83 51 c45 28 83 51 85 52 1 0 2 -39 2 -88z m-680 -287
l0 -155 -33 36 c-44 49 -113 58 -181 25 -92 -45 -211 -211 -231 -324 -5 -26
-17 -45 -39 -61 -34 -26 -201 -126 -210 -126 -8 0 -5 300 3 329 5 19 82 70
341 227 184 111 338 203 343 203 4 1 7 -69 7 -154z m663 24 c-38 -36 -602
-379 -624 -379 -5 0 -9 11 -9 25 0 14 6 25 13 25 8 0 115 61 238 135 223 135
247 154 235 198 -3 13 16 31 77 73 l82 54 3 -57 c2 -44 -1 -60 -15 -74z
m-3728 -409 c88 -51 227 -131 308 -179 82 -47 178 -108 213 -136 l65 -50 2
-348 c1 -191 2 -347 1 -347 -1 0 -32 20 -70 45 -37 25 -73 44 -79 42 -5 -2
-12 -36 -15 -75 l-5 -71 -230 130 c-126 72 -267 152 -312 177 l-83 47 0 76 0
76 -38 17 c-21 10 -50 27 -64 39 l-26 22 -6 363 -6 364 93 -50 c51 -27 164
-91 252 -142z m2914 140 c26 -13 45 -91 38 -151 -11 -92 -80 -186 -147 -202
-46 -11 -70 25 -71 107 -2 95 37 174 110 229 41 30 45 31 70 17z m-321 -396
c-17 -16 -376 -237 -679 -418 l-235 -141 -12 60 c-6 32 -10 60 -9 60 1 1 40
25 87 53 l85 52 3 -32 c5 -46 16 -54 49 -31 38 27 365 223 430 258 51 27 52
29 55 78 l3 50 115 68 115 68 3 -56 c2 -37 -1 -60 -10 -69z m-758 -114 l0
-170 -97 -63 -97 -63 -31 34 c-79 87 -232 35 -331 -113 l-34 -50 0 120 1 120
56 35 c32 19 161 99 288 177 126 78 233 142 238 142 4 1 7 -76 7 -169z m-1725
-618 c182 -104 364 -209 405 -234 l75 -44 3 -57 3 -57 -76 45 c-41 25 -119 69
-173 98 -93 51 -459 263 -607 352 l-70 41 -5 53 c-3 28 -4 54 -2 56 2 2 29
-12 60 -30 31 -18 206 -118 387 -223z m1391 210 c37 -24 44 -108 17 -193 -24
-72 -98 -152 -138 -147 -72 8 -93 125 -42 230 44 91 118 140 163 110z m-316
-306 c0 -33 -5 -38 -87 -89 -180 -111 -399 -229 -428 -230 l-30 -2 -3 65 -3
65 46 27 45 28 0 -31 c0 -37 24 -48 59 -27 14 8 64 38 111 65 47 28 128 75
180 106 52 31 98 56 103 57 4 0 7 -15 7 -34z"/>
<path d="M5397 7153 c-4 -3 -7 -77 -7 -164 0 -135 2 -160 18 -178 22 -27 751
-443 763 -436 5 4 9 84 9 179 l0 172 -37 18 c-40 19 -446 251 -621 355 -106
62 -114 66 -125 54z"/>
<path d="M8496 7158 c-46 -46 -67 -134 -42 -172 25 -40 60 -34 95 15 51 70 51
152 0 179 -17 9 -25 6 -53 -22z"/>
<path d="M7077 6260 c-35 -27 -63 -116 -50 -155 5 -16 19 -35 31 -43 20 -13
24 -12 56 20 53 53 69 143 34 185 -15 19 -42 16 -71 -7z"/>
<path d="M1570 9131 c-124 -71 -337 -191 -474 -268 -138 -77 -258 -150 -269
-164 -11 -16 -21 -50 -24 -88 -5 -52 -9 -61 -22 -56 -91 35 -149 29 -161 -16
-4 -14 -11 -92 -15 -173 -8 -159 -4 -176 42 -176 54 0 60 11 67 127 5 59 11
128 15 153 6 40 9 45 31 42 14 -1 27 -6 31 -10 3 -4 2 -63 -3 -132 -5 -69 -10
-281 -11 -472 l-2 -346 25 -27 c31 -34 365 -234 403 -242 23 -5 27 -10 27 -42
0 -48 52 -157 98 -204 77 -80 176 -106 256 -67 25 12 46 28 46 36 0 19 3 18
52 -15 40 -26 120 -74 633 -376 105 -62 261 -155 349 -208 87 -54 164 -97 171
-97 7 0 23 -33 36 -72 71 -221 264 -330 372 -210 19 20 19 20 125 -46 59 -36
194 -117 300 -180 l193 -115 37 17 c68 32 709 404 830 482 l82 54 0 631 c0
556 -2 635 -16 665 -11 23 -38 47 -87 77 -90 55 -629 369 -877 509 -102 58
-303 174 -447 257 -145 83 -388 220 -540 305 -153 85 -444 249 -648 365 -203
116 -376 211 -385 211 -8 0 -116 -58 -240 -129z m293 58 c23 -12 249 -139 502
-283 253 -145 523 -298 600 -341 399 -223 531 -299 545 -312 13 -12 13 -13 0
-8 -9 3 -81 -32 -175 -86 -320 -183 -590 -343 -609 -360 -17 -16 -18 -19 -4
-24 9 -4 31 1 49 10 40 21 656 381 724 423 44 27 52 29 70 18 25 -16 334 -193
470 -268 84 -47 617 -357 665 -387 13 -8 12 -10 -5 -17 -20 -8 -161 -89 -606
-347 -129 -75 -243 -137 -253 -137 -19 0 -182 92 -591 332 -365 214 -1595 921
-2197 1262 -60 34 -108 63 -108 66 0 3 42 28 93 56 314 173 508 281 622 347
72 41 138 75 148 76 10 1 37 -9 60 -20z m-920 -510 c23 -12 132 -74 242 -137
110 -63 247 -142 305 -175 58 -33 337 -193 620 -357 283 -163 578 -332 655
-375 77 -43 300 -172 495 -285 195 -114 406 -235 467 -269 l113 -63 352 205
c555 322 550 319 564 305 6 -7 14 -25 18 -39 7 -32 -7 -46 -84 -84 -30 -15
-131 -74 -225 -130 -180 -109 -492 -288 -562 -324 -23 -11 -52 -21 -64 -21
-12 0 -137 67 -278 149 -325 189 -390 226 -761 439 -168 96 -372 214 -455 262
-82 48 -260 149 -395 225 -135 76 -355 202 -490 280 -400 232 -522 302 -572
326 -52 25 -56 33 -32 67 19 27 34 28 87 1z m192 -252 c116 -66 262 -150 325
-187 107 -63 230 -133 695 -396 99 -55 322 -183 495 -283 173 -101 492 -285
709 -409 217 -125 412 -243 433 -263 l38 -36 0 -471 0 -471 -92 58 c-51 32
-165 99 -253 149 -204 116 -201 113 -208 160 -12 74 -73 175 -146 245 -79 74
-120 91 -199 85 -49 -4 -60 -9 -87 -40 l-30 -36 -225 130 c-389 225 -823 479
-882 517 -49 31 -58 42 -68 80 -40 160 -195 321 -309 321 -38 0 -98 -31 -119
-61 -7 -11 -17 -19 -22 -19 -4 0 -74 38 -155 84 l-147 84 1 143 c1 79 4 145 6
147 2 2 23 -9 47 -25 44 -30 92 -58 983 -568 595 -341 833 -479 1040 -600 130
-76 238 -139 675 -392 118 -68 110 -84 110 210 l0 253 -42 24 c-24 13 -140 80
-258 149 -309 179 -805 465 -1170 674 -626 358 -867 496 -975 559 -342 200
-396 230 -410 224 -11 -4 -15 -23 -15 -78 0 -40 -4 -122 -10 -183 -5 -60 -10
-136 -11 -167 -1 -32 -4 -58 -6 -58 -3 0 -14 5 -25 11 -20 11 -20 16 -13 173
9 216 22 354 37 387 15 33 -10 44 283 -124z m-238 -805 c43 -27 124 -75 181
-106 l102 -58 -6 -52 c-4 -28 -8 -52 -9 -54 -5 -5 -58 24 -203 111 -91 54
-136 87 -143 104 -9 24 -13 103 -5 103 3 0 40 -22 83 -48z m528 -243 c96 -85
131 -236 70 -307 -21 -24 -24 -25 -53 -13 -36 15 -93 74 -117 122 -19 36 -31
125 -21 163 8 31 43 66 68 66 9 0 33 -14 53 -31z m3345 -366 l0 -388 -59 -29
c-66 -32 -71 -42 -71 -146 0 -79 14 -89 71 -50 52 35 59 36 52 10 -3 -12 -22
-29 -43 -40 -20 -10 -155 -88 -301 -172 -226 -132 -445 -256 -526 -297 -44
-22 -14 17 39 50 77 50 78 51 78 139 0 43 -4 81 -9 84 -4 3 -34 -8 -65 -25
-32 -17 -59 -29 -61 -27 -3 2 -5 170 -5 374 l-1 369 88 58 c87 57 177 111 468
283 138 81 337 194 343 194 1 0 2 -174 2 -387z m-2965 64 c61 -35 279 -163
486 -284 207 -122 407 -237 444 -256 l69 -36 -3 -58 c-1 -32 -4 -59 -6 -61 -3
-3 -100 54 -635 373 -140 83 -312 184 -381 224 l-126 73 1 59 c1 56 2 58 21
44 11 -8 70 -43 130 -78z m1270 -680 c61 -64 80 -109 80 -193 0 -82 -18 -114
-66 -114 -36 0 -93 49 -122 104 -30 57 -32 193 -3 225 30 33 64 27 111 -22z
m1695 -91 l0 -45 -112 -69 c-62 -38 -232 -138 -378 -223 -146 -84 -298 -172
-339 -196 -41 -23 -75 -42 -76 -40 -5 13 9 126 16 121 5 -3 66 27 136 67 355
201 719 412 728 420 18 18 25 8 25 -35z m-1283 -232 c109 -65 231 -138 270
-163 l73 -46 0 -52 c0 -29 -2 -53 -6 -53 -10 0 -218 122 -379 222 l-160 100 0
54 c0 30 1 54 2 54 2 0 92 -52 200 -116z"/>
<path d="M1350 7321 c-33 -63 26 -201 86 -201 62 0 59 127 -4 193 -30 32 -67
35 -82 8z"/>
<path d="M4595 7203 c-44 -25 -127 -74 -185 -108 -58 -34 -185 -108 -282 -164
l-178 -103 0 -213 c0 -126 4 -216 10 -220 11 -7 101 43 478 263 l282 166 -1
135 c-2 200 -11 285 -29 288 -8 1 -51 -18 -95 -44z"/>
<path d="M2990 6351 c-29 -56 10 -177 63 -196 24 -8 31 -6 43 10 16 22 19 102
4 139 -22 60 -88 88 -110 47z"/>
<path d="M3455 5192 c-351 -211 -473 -284 -855 -507 -102 -59 -293 -172 -425
-250 -493 -291 -934 -549 -1155 -675 -80 -45 -155 -91 -167 -102 -14 -14 -25
-42 -34 -87 l-11 -67 -61 -11 c-33 -7 -66 -18 -74 -26 -9 -9 -19 -68 -30 -167
-15 -147 -15 -154 3 -167 29 -21 73 -16 84 10 5 12 14 85 20 161 6 77 13 143
16 148 7 11 34 10 34 -2 0 -6 -7 -56 -15 -112 -46 -306 -57 -417 -64 -673 -5
-148 -6 -287 -3 -308 4 -34 12 -42 86 -91 44 -29 175 -109 291 -176 116 -67
291 -171 390 -230 251 -150 239 -144 291 -130 50 14 235 118 412 231 124 80
125 80 146 61 33 -30 62 -42 102 -42 105 0 230 126 274 275 7 24 26 52 48 71
20 17 303 191 628 386 539 324 592 353 605 338 43 -52 125 -67 193 -35 53 26
123 103 161 179 19 38 35 75 35 83 0 32 101 113 251 202 85 51 178 109 205
130 l49 37 2 550 3 550 -23 44 c-19 38 -35 51 -122 98 -207 112 -628 359 -801
470 -45 29 -92 52 -105 51 -13 0 -186 -98 -384 -217z m697 -9 c173 -104 382
-226 466 -273 83 -47 152 -87 152 -90 0 -3 -22 -17 -48 -31 -163 -88 -2094
-1220 -2621 -1536 -96 -58 -195 -115 -219 -126 l-44 -22 -61 34 c-34 18 -98
55 -142 81 -44 27 -230 132 -413 233 l-333 185 68 40 c37 22 151 87 253 144
197 111 475 273 815 476 116 69 416 246 669 393 l459 268 31 -23 c28 -21 239
-143 675 -390 144 -82 180 -95 187 -71 3 9 -397 242 -743 434 -62 35 -113 66
-113 69 1 4 96 63 213 132 116 69 259 155 317 192 58 37 108 67 112 68 4 0
148 -84 320 -187z m684 -418 c7 -19 14 -39 14 -44 0 -5 -53 -37 -117 -71 -211
-112 -812 -460 -1313 -760 -85 -51 -285 -169 -445 -262 -159 -94 -360 -212
-445 -263 -85 -51 -252 -150 -370 -220 -118 -70 -228 -139 -245 -154 -69 -62
-63 -64 -293 68 -114 65 -281 160 -372 211 -91 51 -218 124 -284 163 l-118 70
6 41 c4 23 10 44 14 48 4 4 66 -24 137 -63 214 -117 628 -351 655 -369 47 -33
166 -90 187 -90 11 0 159 82 329 183 338 201 752 445 1079 637 116 68 291 172
390 230 99 59 266 157 370 217 440 255 625 363 705 411 47 28 89 51 93 52 4 0
15 -16 23 -35z m11 -292 c-4 -104 -7 -291 -7 -418 l0 -230 -68 -39 c-37 -21
-132 -79 -210 -128 l-144 -90 -21 20 c-40 36 -67 44 -121 38 -122 -16 -236
-132 -286 -291 -18 -56 -29 -67 -144 -131 -55 -32 -168 -99 -251 -149 -160
-97 -453 -271 -675 -400 -74 -43 -143 -85 -153 -93 -15 -14 -20 -13 -40 5 -35
32 -62 43 -109 43 -134 0 -282 -162 -322 -351 -5 -21 -37 -43 -178 -124 -95
-54 -176 -100 -180 -102 -5 -2 -8 41 -8 97 0 96 1 101 23 109 13 5 61 34 108
64 46 30 130 80 185 111 112 62 113 65 114 176 l0 45 353 209 c796 472 904
536 1167 696 256 155 445 270 765 467 72 44 130 86 130 94 -1 123 -19 400 -26
405 -13 8 -162 -73 -544 -297 -181 -106 -440 -256 -575 -334 -135 -78 -456
-267 -715 -420 -258 -153 -524 -310 -590 -348 -66 -39 -156 -93 -200 -120 -44
-28 -104 -61 -132 -74 -47 -20 -53 -26 -53 -53 0 -16 -4 -30 -10 -30 -5 0 -10
22 -10 48 0 70 32 99 260 234 107 63 328 194 490 290 162 96 414 245 560 330
146 86 330 195 410 243 242 146 934 545 1095 631 55 30 104 54 109 54 5 0 6
-77 3 -187z m3 -743 l0 -60 -47 -34 c-27 -19 -94 -63 -151 -98 -57 -35 -125
-77 -152 -94 l-48 -32 -11 61 c-8 48 -8 63 2 69 6 4 100 61 207 126 107 66
196 120 198 121 1 1 2 -26 2 -59z m-555 -303 c18 -25 20 -104 4 -156 -25 -82
-107 -165 -158 -159 -34 4 -51 40 -50 108 0 68 17 117 57 168 54 68 115 84
147 39z m-335 -265 l0 -57 -77 -48 c-227 -139 -1096 -657 -1104 -657 -5 0 -9
17 -9 38 0 20 -3 47 -6 59 -5 17 3 26 43 49 109 62 798 469 1083 640 30 19 58
34 63 34 4 0 7 -26 7 -58z m-2074 -679 c14 -5 15 -33 9 -249 -7 -219 -6 -244
8 -250 15 -5 269 131 349 187 14 11 29 19 32 19 3 0 6 -26 6 -57 l0 -58 -78
-49 c-135 -86 -376 -229 -409 -243 l-33 -13 0 52 c0 52 1 54 46 82 36 23 44
33 40 50 -3 12 -6 40 -6 64 0 49 -10 52 -52 17 -16 -14 -35 -22 -41 -18 -7 4
-48 30 -92 58 -44 28 -107 66 -140 85 -170 95 -503 291 -595 350 -58 37 -119
74 -136 83 -17 9 -34 27 -38 39 -8 33 -7 108 2 108 4 0 23 -11 42 -23 42 -29
915 -535 947 -550 32 -14 70 13 82 60 6 21 13 146 16 278 7 283 19 353 23 137
2 -128 5 -154 18 -159z m735 -65 c73 -117 -82 -396 -176 -318 -39 32 -38 143
1 225 21 44 107 125 134 125 12 0 28 -13 41 -32z m-1823 -1 c20 -13 63 -38 94
-55 60 -32 261 -150 620 -364 119 -71 219 -136 222 -146 11 -34 3 -82 -12 -82
-8 0 -76 38 -151 84 -75 46 -212 129 -306 183 -401 236 -461 272 -483 290 -17
13 -26 33 -29 66 -3 26 -3 47 1 47 3 0 23 -10 44 -23z m900 -406 c37 -23 42
-30 42 -63 0 -21 -3 -38 -6 -38 -3 0 -48 27 -100 61 -92 60 -94 62 -94 100 l0
40 58 -37 c31 -21 76 -49 100 -63z"/>
<path d="M4176 3360 c-35 -42 -51 -101 -40 -141 21 -72 81 -59 120 26 28 59
30 92 8 123 -22 31 -57 28 -88 -8z"/>
<path d="M2506 2350 c-51 -61 -58 -156 -13 -184 43 -27 110 58 110 140 0 77
-50 100 -97 44z"/>
<path d="M6210 5318 c-47 -28 -254 -147 -460 -265 -206 -118 -391 -227 -410
-242 -72 -56 -70 -36 -70 -613 0 -314 4 -527 10 -543 6 -17 45 -48 112 -91 57
-36 238 -151 403 -255 165 -105 307 -196 315 -204 8 -7 23 -15 34 -16 12 -3
26 -24 41 -67 26 -72 57 -121 110 -176 59 -60 92 -76 157 -76 49 0 62 4 91 29
l33 30 225 -136 c407 -247 763 -453 782 -453 7 0 20 -26 29 -59 22 -75 91
-177 145 -215 72 -50 177 -46 222 8 11 13 17 12 49 -8 21 -13 78 -47 127 -76
50 -29 155 -94 234 -143 163 -101 217 -128 240 -119 9 3 171 99 361 212 190
114 401 240 470 281 69 40 135 83 146 94 21 21 21 28 18 296 -1 151 -7 310
-13 354 -30 219 -50 376 -56 428 -6 55 -6 57 17 57 24 0 25 -2 39 -162 l14
-163 40 0 c60 0 65 19 49 192 -7 78 -18 152 -24 163 -8 15 -21 20 -50 20 -21
0 -42 -4 -45 -10 -3 -5 -14 -10 -24 -10 -15 0 -20 11 -26 48 -13 85 -26 103
-111 153 -43 25 -209 122 -369 216 -159 93 -364 213 -455 265 -453 262 -718
414 -1070 615 -212 121 -479 276 -595 343 -115 68 -298 174 -405 236 -112 66
-205 114 -220 114 -14 -1 -63 -24 -110 -52z m477 -196 c191 -110 378 -217 415
-238 37 -22 68 -42 68 -45 0 -4 -9 -9 -19 -12 -11 -2 -144 -79 -298 -169 -153
-91 -338 -201 -412 -244 -132 -78 -163 -104 -122 -104 11 0 186 98 388 217
203 119 387 227 411 241 23 13 48 33 56 44 14 20 32 10 548 -285 578 -331
1100 -633 1408 -814 107 -64 225 -133 263 -155 37 -21 67 -42 67 -46 0 -8
-187 -118 -515 -304 -115 -66 -253 -146 -306 -179 -53 -32 -105 -59 -117 -59
-27 0 -310 160 -1062 602 -325 191 -424 248 -555 323 -60 34 -207 119 -325
189 -118 71 -334 197 -480 281 -752 433 -726 417 -700 435 13 8 205 120 429
249 223 129 424 244 446 257 22 13 45 22 52 19 7 -2 169 -94 360 -203z m-1137
-482 c91 -54 298 -174 460 -267 319 -183 733 -426 815 -478 27 -17 95 -56 150
-85 55 -29 143 -79 195 -110 164 -99 715 -421 950 -555 124 -71 254 -146 290
-168 102 -62 113 -61 265 28 72 43 249 146 395 230 146 84 299 173 340 198 45
27 79 42 84 37 5 -5 11 -33 14 -62 l4 -53 -393 -224 c-217 -123 -437 -251
-490 -283 -53 -32 -99 -58 -103 -58 -11 0 -90 53 -106 71 -8 10 -85 57 -170
106 -85 49 -351 204 -590 345 -239 140 -592 346 -784 458 -192 111 -435 254
-540 317 -266 161 -850 494 -976 558 -55 28 -63 51 -34 93 18 26 -1 35 224
-98z m-187 -41 c89 -45 605 -340 882 -504 160 -95 333 -197 385 -228 248 -145
1032 -602 1355 -790 198 -115 375 -220 393 -234 29 -21 32 -29 32 -74 0 -52
-12 -62 -32 -28 -7 11 -67 53 -133 91 -282 166 -420 247 -770 448 -407 234
-786 457 -1170 687 -138 83 -360 213 -495 290 -135 77 -283 163 -329 192 -46
28 -90 51 -98 51 -10 0 -13 -43 -13 -220 0 -217 0 -220 23 -233 12 -8 72 -42
133 -76 l111 -63 7 -130 c3 -72 4 -133 2 -135 -6 -6 -32 8 -188 105 l-138 84
0 282 c0 154 -3 332 -7 394 -3 61 -3 112 1 112 4 0 26 -10 49 -21z m122 -914
c169 -102 168 -101 162 -147 -8 -62 0 -75 82 -120 42 -23 147 -84 234 -135
118 -70 157 -99 157 -113 0 -17 -13 -12 -87 37 -141 90 -642 406 -702 441 -18
10 -21 21 -21 78 l0 66 23 -14 c12 -8 81 -50 152 -93z m1003 -264 l322 -192 0
-139 c0 -76 3 -145 6 -154 10 -26 -6 -20 -120 47 l-109 62 -22 61 c-49 139
-135 240 -227 269 -73 24 -117 15 -157 -31 l-31 -35 0 156 c0 86 3 154 8 152
4 -2 152 -90 330 -196z m-118 -220 c109 -86 133 -309 34 -319 -41 -4 -81 29
-119 100 -27 47 -30 62 -30 141 0 76 3 91 19 103 24 17 50 10 96 -25z m440
-384 c0 -54 2 -58 33 -76 17 -10 70 -42 117 -71 295 -180 346 -210 362 -210
15 0 18 8 18 49 l0 49 115 -61 c126 -67 122 -60 107 -155 l-7 -42 -190 109
c-104 60 -320 187 -480 284 l-290 175 -3 65 -3 65 110 -61 110 -62 1 -58z
m1074 -208 c44 -24 78 -47 78 -51 -1 -5 -2 -50 -3 -100 0 -69 -3 -87 -10 -70
-5 13 -37 52 -72 86 -98 98 -195 113 -264 39 l-33 -34 -120 63 -120 63 0 157
0 156 233 -132 c127 -73 268 -152 311 -177z m629 -101 c8 -148 9 -338 2 -338
-4 0 -19 7 -35 15 -29 15 -30 18 -30 84 0 52 4 70 15 75 12 4 15 31 15 150 0
118 3 144 13 140 10 -4 16 -38 20 -126z m1070 65 c-4 -46 -10 -63 -31 -80 -26
-22 -168 -108 -437 -264 -88 -51 -185 -109 -215 -129 -87 -57 -275 -160 -294
-160 -9 0 -39 11 -67 25 -58 30 -62 26 -57 -56 3 -54 3 -54 53 -81 l50 -27 0
-61 c0 -43 -3 -59 -12 -56 -20 8 -554 334 -567 347 -6 5 -2 11 9 15 20 8 19 9
177 -89 167 -102 237 -139 249 -131 9 5 10 50 5 172 l-7 164 38 -22 c21 -13
60 -37 87 -54 l49 -30 61 33 c82 44 788 465 851 507 28 18 53 33 57 33 4 1 4
-25 1 -56z m-1782 -220 c110 -105 126 -309 27 -321 -35 -4 -92 47 -126 112
-22 43 -26 64 -27 134 0 76 2 85 24 103 30 24 55 18 102 -28z m1767 -118 c-14
-12 -69 -47 -124 -79 -201 -119 -364 -216 -578 -346 -121 -73 -226 -134 -233
-137 -10 -4 -13 8 -13 45 l0 50 68 40 c37 22 173 102 302 177 129 75 282 165
340 199 58 35 135 80 172 100 37 21 71 43 75 49 5 7 9 -8 11 -33 3 -37 -1 -48
-20 -65z"/>
<path d="M6302 3157 c-36 -43 -19 -140 34 -186 37 -33 69 -32 80 3 29 87 -66
241 -114 183z"/>
<path d="M7730 2310 c-35 -35 -20 -140 27 -192 22 -24 69 -23 83 1 24 46 4
133 -41 179 -37 38 -42 39 -69 12z"/>
</g>
</svg>
