<?xml version="1.0" standalone="no"?>
<!DOCTYPE svg PUBLIC "-//W3C//DTD SVG 20010904//EN"
 "http://www.w3.org/TR/2001/REC-SVG-20010904/DTD/svg10.dtd">
<svg version="1.0" xmlns="http://www.w3.org/2000/svg"
 width="800.000000pt" height="501.000000pt" viewBox="0 0 800.000000 501.000000"
 preserveAspectRatio="xMidYMid meet">

<g transform="translate(0.000000,501.000000) scale(0.100000,-0.100000)"
fill="#000000" stroke="none">
<path d="M2177 4963 c-4 -27 -7 -214 -7 -418 0 -203 -5 -424 -10 -490 -12
-151 -12 -157 -1 -151 5 4 12 43 15 89 7 106 19 1017 13 1017 -2 0 -7 -21 -10
-47z"/>
<path d="M2288 4838 c-7 -325 -8 -888 -2 -912 3 -14 12 -27 19 -30 10 -4 11 2
3 27 -11 37 -11 157 -2 700 5 270 3 387 -4 387 -7 0 -12 -60 -14 -172z"/>
<path d="M5490 4723 c0 -159 -2 -300 -5 -315 -4 -21 -1 -28 10 -28 14 0 16 36
15 315 -1 189 -5 315 -11 315 -6 0 -9 -115 -9 -287z"/>
<path d="M5614 4734 c3 -152 9 -294 12 -315 6 -33 4 -39 -11 -39 -14 0 -15 -3
-6 -14 6 -7 14 -40 17 -73 l7 -60 -58 -11 c-32 -7 -63 -12 -68 -12 -5 0 -7 23
-5 50 1 28 0 50 -4 50 -9 0 -11 -13 -9 -61 l2 -36 -68 -11 c-37 -6 -115 -18
-173 -27 -58 -9 -107 -18 -109 -21 -8 -7 32 -4 124 11 50 8 140 22 200 30 61
8 144 23 185 32 41 9 104 20 140 24 l65 7 -75 -3 c-41 -1 -85 -6 -97 -10 -21
-7 -23 -4 -23 24 0 18 -6 34 -14 37 -17 7 -9 41 11 48 11 5 12 10 5 19 -16 19
-25 117 -27 282 -3 323 -5 355 -17 355 -8 0 -9 -70 -4 -276z m41 -364 c3 -5
-3 -10 -15 -10 -12 0 -18 5 -15 10 3 6 10 10 15 10 5 0 12 -4 15 -10z"/>
<path d="M6755 4379 c-22 -4 -74 -8 -115 -8 -45 1 -126 -10 -200 -26 -79 -17
-169 -28 -245 -31 -108 -4 -227 -21 -310 -44 -23 -6 -18 -7 20 -3 28 2 64 9
80 15 17 5 100 14 185 18 89 5 198 18 255 30 55 12 156 26 225 30 69 5 142 12
163 16 l37 7 0 -467 0 -466 -34 0 c-19 0 -85 -7 -148 -15 -62 -8 -387 -49
-723 -90 -335 -42 -700 -86 -810 -100 -362 -45 -1572 -194 -1985 -245 -223
-28 -877 -109 -1454 -180 -578 -72 -1054 -130 -1058 -130 -4 0 -8 187 -8 415
0 325 3 415 13 416 25 1 143 18 192 28 28 6 84 15 125 21 41 6 100 15 130 21
55 10 118 19 285 38 281 33 336 41 395 60 49 16 104 22 225 27 124 5 189 13
289 35 84 19 180 33 275 39 80 5 166 14 191 20 25 6 76 15 113 20 38 5 73 13
79 16 12 8 200 29 388 44 63 5 133 14 155 20 22 6 58 15 80 19 23 4 46 11 53
15 6 4 69 13 139 21 71 8 173 21 228 30 55 9 168 25 250 36 83 11 182 24 220
30 39 5 113 14 165 19 52 5 129 16 170 25 41 9 122 20 180 25 58 4 119 13 135
19 l30 11 -35 -5 c-19 -3 -82 -10 -140 -14 -58 -5 -139 -17 -180 -26 -41 -9
-118 -20 -170 -25 -52 -5 -126 -14 -165 -19 -38 -6 -137 -20 -220 -31 -82 -11
-195 -27 -250 -35 -55 -9 -157 -22 -228 -30 -70 -8 -133 -17 -139 -21 -7 -4
-30 -11 -53 -15 -22 -4 -58 -13 -80 -19 -22 -6 -89 -15 -150 -20 -206 -17
-382 -37 -394 -45 -7 -4 -43 -11 -80 -16 -36 -5 -86 -13 -111 -19 -25 -6 -112
-16 -194 -21 -82 -5 -166 -13 -185 -19 -48 -13 -46 -14 -49 18 -1 15 -10 33
-19 40 -9 6 -11 12 -5 12 7 0 12 7 12 15 0 21 -20 19 -21 -2 0 -10 0 -37 1
-59 l1 -42 -68 -15 c-37 -9 -138 -18 -223 -21 -115 -4 -173 -11 -225 -26 -38
-12 -124 -28 -190 -36 -112 -13 -159 -19 -373 -44 -45 -5 -87 -12 -92 -15 -10
-6 -60 -13 -232 -34 -42 -5 -86 -14 -97 -20 -11 -6 -33 -11 -49 -11 -16 0 -54
-5 -85 -11 l-57 -12 0 -531 c0 -302 9 -809 20 -1176 11 -355 20 -761 20 -904
l0 -259 108 7 c59 4 145 11 192 16 121 12 277 13 285 0 3 -5 16 -10 28 -10 14
0 18 -3 11 -10 -6 -6 -58 -16 -117 -22 -89 -10 -107 -15 -107 -29 0 -20 28
-29 99 -29 43 0 3379 276 5800 480 194 17 361 30 371 30 10 0 26 7 34 16 18
18 21 44 5 44 -5 0 -7 -4 -4 -10 7 -12 -50 -12 -80 -1 -18 7 -20 18 -20 105
l0 97 50 -3 50 -3 6 -55 6 -55 2 45 c1 25 4 81 6 125 11 206 27 1847 18 1856
-5 5 -26 12 -46 16 -31 5 -36 3 -40 -18 l-4 -24 -2 23 c-1 24 -2 24 -86 17
-84 -7 -85 -7 -87 16 0 13 -2 31 -3 39 -1 8 1 20 4 25 12 21 8 33 -7 28 -15
-4 -15 -3 -2 9 14 12 24 101 10 93 -14 -8 -25 26 -28 80 -1 33 -9 89 -16 125
-8 36 -17 106 -21 155 -7 114 -14 160 -31 207 -11 31 -10 37 2 42 9 3 13 10 9
16 -6 10 -130 70 -146 70 -5 0 -9 51 -9 115 l0 115 -37 -1 c-21 -1 -56 -5 -78
-10z m122 -326 c-2 -16 -4 -5 -4 22 0 28 2 40 4 28 2 -13 2 -35 0 -50z m32
-550 c1 -52 -2 -61 -14 -57 -13 5 -15 43 -14 263 l2 256 12 -200 c7 -110 14
-228 14 -262z m-555 -295 c24 -34 19 -61 -19 -109 -19 -24 -35 -48 -35 -52 0
-5 18 -7 40 -4 28 3 40 1 40 -8 0 -15 -31 -25 -77 -25 -44 0 -44 25 2 91 39
57 42 71 19 90 -13 10 -19 10 -36 0 -30 -19 -46 2 -17 23 33 22 65 20 83 -6z
m-150 -20 c24 -34 19 -59 -19 -107 -19 -24 -35 -48 -35 -53 0 -6 17 -7 40 -3
31 5 40 4 40 -8 0 -13 -45 -27 -92 -27 -29 0 -21 39 18 96 41 59 40 94 -1 94
-13 0 -27 -5 -30 -10 -4 -6 -11 -8 -16 -4 -6 4 -3 14 7 25 24 26 69 25 88 -3z
m-221 -25 c8 -10 16 -31 17 -48 5 -74 0 -97 -29 -126 -31 -31 -71 -39 -71 -14
0 9 10 15 26 15 19 0 28 8 40 35 17 42 18 53 2 37 -17 -17 -63 -15 -78 4 -19
22 -16 70 5 94 22 25 67 26 88 3z m82 -43 c0 -7 -6 -15 -12 -17 -8 -3 -13 4
-13 17 0 13 5 20 13 18 6 -3 12 -11 12 -18z m11 -111 c10 -17 -13 -36 -27 -22
-12 12 -4 33 11 33 5 0 12 -5 16 -11z m-1876 -67 c0 -11 -22 -32 -32 -32 -5 0
-4 9 2 20 11 20 30 28 30 12z m70 -17 c0 -8 7 -15 15 -15 19 0 19 -10 -1 -24
-20 -15 -10 -86 12 -86 8 0 14 -7 14 -15 0 -20 -46 -20 -54 1 -3 9 -6 33 -6
54 0 21 -6 41 -12 44 -10 5 -10 7 0 12 6 3 12 14 12 25 0 10 5 19 10 19 6 0
10 -7 10 -15z m220 -16 c6 -10 10 -33 10 -52 0 -67 -71 -91 -99 -33 -34 71 52
154 89 85z m-117 -6 c-19 -13 -23 -25 -23 -69 0 -30 -4 -54 -9 -54 -8 0 -21
115 -15 130 1 3 17 6 36 7 33 2 33 2 11 -14z m-163 -22 c18 -35 12 -51 -20
-51 -19 0 -33 -6 -37 -16 -8 -21 15 -35 46 -27 17 4 22 2 19 -8 -2 -8 -18 -15
-35 -17 -54 -5 -83 65 -47 116 19 27 60 29 74 3z m-454 -2 c14 -23 5 -69 -20
-102 -33 -43 -33 -50 4 -42 23 5 30 3 30 -9 0 -11 -9 -16 -29 -16 -16 0 -36
-3 -45 -6 -26 -10 -19 28 14 77 16 24 30 52 30 61 0 21 -20 28 -43 16 -24 -12
-33 -3 -17 17 15 18 66 20 76 4z m94 -25 c0 -7 -9 -16 -20 -19 -11 -3 -20 -11
-20 -17 0 -6 9 -8 20 -5 11 3 20 1 20 -3 0 -15 -19 -22 -40 -15 -26 8 -28 69
-3 84 20 11 43 -3 43 -25z m240 17 c12 -24 13 -121 1 -121 -5 0 -12 25 -16 56
-5 44 -10 55 -23 52 -13 -2 -18 -16 -20 -61 -3 -65 -21 -78 -23 -17 -2 63 -3
65 -24 65 -17 0 -20 -8 -23 -57 -4 -82 -22 -72 -22 11 l0 69 31 7 c18 4 35 3
41 -3 8 -8 15 -6 25 4 20 20 40 18 53 -5z m-2700 -281 c-6 -11 -15 -20 -21
-20 -6 0 -6 7 1 20 6 11 15 20 21 20 6 0 6 -7 -1 -20z m86 -20 c8 0 14 -4 14
-10 0 -5 -7 -10 -15 -10 -11 0 -15 -11 -15 -40 0 -27 5 -43 15 -46 21 -9 19
-24 -4 -24 -22 0 -31 19 -31 64 0 18 -5 37 -12 44 -8 8 -8 12 -1 12 6 0 14 10
18 23 6 19 8 19 12 5 2 -10 11 -18 19 -18z m186 -5 c8 -17 8 -37 2 -63 -8 -34
-12 -37 -44 -37 -32 0 -36 3 -44 37 -7 29 -6 42 8 62 22 35 62 35 78 1z m3474
10 c67 -20 126 -72 155 -137 19 -42 24 -70 24 -138 0 -125 -28 -182 -168 -345
-69 -80 -147 -190 -147 -206 0 -12 41 -11 209 6 80 8 147 12 150 9 3 -3 8 -41
10 -85 3 -72 1 -79 -15 -79 -11 0 -134 -11 -274 -25 -140 -14 -261 -25 -267
-25 -10 0 -13 24 -13 86 0 77 3 93 31 148 30 60 105 164 175 241 58 65 91 118
109 173 60 182 -115 294 -248 159 l-42 -43 -47 61 -47 60 42 43 c94 97 236
135 363 97z m-3576 -5 c0 -4 -7 -10 -15 -14 -11 -4 -15 -20 -15 -56 0 -27 -4
-50 -10 -50 -6 0 -10 28 -10 64 0 61 1 64 25 64 14 0 25 -4 25 -8z m-151 -32
c10 -26 -9 -48 -42 -48 -12 0 -17 -6 -15 -17 2 -12 13 -18 31 -18 15 1 26 -4
24 -10 -5 -15 -46 -18 -63 -5 -16 14 -19 73 -4 101 15 27 58 25 69 -3z m-479
-73 c0 -50 -4 -85 -10 -85 -6 0 -10 28 -10 64 0 61 -1 64 -22 59 l-23 -6 24
27 c14 14 28 26 33 26 4 0 8 -38 8 -85z m150 74 c0 -4 -5 -11 -11 -15 -6 -3
-9 -14 -6 -24 2 -10 1 -24 -4 -31 -6 -9 -9 2 -9 32 0 34 4 46 15 46 8 0 15 -4
15 -8z m224 -40 c10 -54 -1 -102 -14 -59 -5 14 -8 40 -9 58 -2 65 -41 27 -41
-41 0 -29 -4 -46 -10 -42 -5 3 -10 29 -10 56 0 43 -3 50 -17 47 -14 -2 -19
-15 -21 -56 -4 -71 -22 -66 -22 7 0 58 1 60 30 66 16 4 34 4 39 1 5 -4 13 -1
16 4 4 6 17 10 28 8 17 -2 24 -13 31 -49z m-274 21 c0 -14 -7 -20 -21 -20 -12
0 -19 -5 -16 -12 2 -7 12 -12 21 -12 9 1 16 -2 16 -7 0 -5 -11 -9 -24 -9 -27
0 -41 32 -25 62 13 25 49 24 49 -2z m2544 -132 c3 -13 12 -216 21 -453 8 -236
18 -465 22 -507 5 -67 3 -79 -11 -84 -9 -4 -19 -4 -21 -2 -5 5 -45 901 -45
1005 0 49 3 63 15 63 8 0 17 -10 19 -22z m-1313 -150 c118 -66 187 -321 159
-587 -27 -252 -120 -370 -290 -371 -116 0 -187 64 -237 213 -25 78 -27 92 -27
277 -1 174 1 202 21 265 39 125 109 201 206 226 49 12 123 2 168 -23z m4747
-915 c9 -67 9 -99 2 -103 -6 -4 -79 -12 -163 -18 -211 -16 -602 -49 -787 -67
-85 -8 -267 -23 -405 -35 -137 -11 -297 -25 -355 -30 -101 -10 -400 -36 -920
-80 -135 -11 -292 -25 -350 -31 -58 -5 -159 -14 -225 -19 -66 -5 -196 -16
-290 -24 -93 -9 -280 -25 -415 -36 -135 -11 -344 -29 -465 -40 -363 -32 -552
-48 -930 -80 -198 -16 -378 -32 -400 -35 -22 -2 -96 -9 -165 -15 -69 -6 -143
-13 -165 -15 -45 -5 -283 -25 -296 -25 -5 0 -9 42 -9 94 l0 94 48 6 c57 7 171
17 1102 101 399 35 1004 90 1345 120 341 31 845 76 1120 100 275 25 570 52
655 60 85 8 313 28 505 46 193 17 584 52 870 79 286 26 556 48 600 49 l81 1
12 -97z m19 -35 c-3 -8 -6 -5 -6 6 -1 11 2 17 5 13 3 -3 4 -12 1 -19z m140
-204 c-3 -3 -12 -4 -19 -1 -8 3 -5 6 6 6 11 1 17 -2 13 -5z m-5970 -500 c-3
-3 -12 -4 -19 -1 -8 3 -5 6 6 6 11 1 17 -2 13 -5z"/>
<path d="M5910 3140 c-16 -30 -3 -60 25 -60 34 0 48 31 29 58 -19 28 -40 28
-54 2z"/>
<path d="M4427 2903 c-13 -13 -7 -71 9 -84 14 -11 18 -10 30 6 17 22 18 40 4
66 -11 19 -31 25 -43 12z"/>
<path d="M4157 2873 c-14 -13 -6 -23 18 -23 18 0 23 4 19 15 -6 16 -26 20 -37
8z"/>
<path d="M3810 2860 c0 -5 5 -10 10 -10 6 0 10 5 10 10 0 6 -4 10 -10 10 -5 0
-10 -4 -10 -10z"/>
<path d="M1600 2549 c-16 -29 -4 -69 20 -69 22 0 34 31 26 66 -8 30 -31 31
-46 3z"/>
<path d="M1357 2533 c-13 -12 -7 -23 13 -23 11 0 20 7 20 15 0 15 -21 21 -33
8z"/>
<path d="M995 2520 c-3 -5 1 -10 10 -10 9 0 13 5 10 10 -3 6 -8 10 -10 10 -2
0 -7 -4 -10 -10z"/>
<path d="M2087 2090 c-47 -37 -62 -106 -61 -280 0 -221 31 -344 93 -369 68
-29 115 40 132 189 12 107 -1 295 -26 379 -28 92 -83 124 -138 81z"/>
<path d="M5497 4339 c4 -15 8 -17 14 -8 8 14 3 29 -11 29 -4 0 -6 -9 -3 -21z"/>
<path d="M2160 3871 c0 -25 6 -27 13 -6 4 8 2 17 -3 20 -6 4 -10 -3 -10 -14z"/>
<path d="M2150 3793 c0 -25 2 -44 5 -41 9 9 13 88 4 88 -5 0 -9 -21 -9 -47z"/>
<path d="M1043 3526 c-90 -29 -165 -108 -211 -218 -21 -53 -26 -79 -26 -158 0
-148 49 -247 152 -308 63 -37 174 -39 240 -4 201 106 263 429 116 600 -72 85
-177 119 -271 88z m151 -50 c54 -23 102 -72 131 -138 58 -127 31 -290 -64
-391 -56 -61 -109 -86 -179 -87 -94 0 -163 49 -211 150 -22 47 -26 69 -26 145
0 80 4 97 31 155 68 144 202 214 318 166z"/>
<path d="M1182 3363 c-5 -10 -24 -62 -41 -115 -18 -54 -36 -100 -40 -103 -4
-2 -29 42 -54 98 -39 87 -49 102 -69 102 l-23 0 -2 -175 c-1 -97 2 -182 7
-189 4 -8 15 -11 24 -8 13 5 16 26 17 129 l0 123 41 -87 c54 -117 66 -116 108
5 17 50 36 96 41 102 5 5 9 -39 9 -113 0 -102 3 -124 16 -129 34 -13 37 11 28
194 -9 172 -10 178 -31 181 -13 2 -25 -4 -31 -15z"/>
</g>
</svg>
