<?xml version="1.0" standalone="no"?>
<!DOCTYPE svg PUBLIC "-//W3C//DTD SVG 20010904//EN"
 "http://www.w3.org/TR/2001/REC-SVG-20010904/DTD/svg10.dtd">
<svg version="1.0" xmlns="http://www.w3.org/2000/svg"
 width="2134.000000pt" height="2134.000000pt" viewBox="0 0 2134.000000 2134.000000"
 preserveAspectRatio="xMidYMid meet">

<g transform="translate(0.000000,2134.000000) scale(0.100000,-0.100000)"
fill="#000000" stroke="none">
<path d="M13580 19313 c-743 -52 -1445 -219 -2123 -504 -159 -67 -532 -250
-672 -329 -462 -262 -866 -558 -1235 -905 -69 -64 -126 -121 -128 -125 -3 -7
159 -24 338 -35 l85 -6 120 101 c810 685 1831 1175 2872 1379 767 151 1584
151 2348 0 1868 -369 3544 -1628 4374 -3287 101 -201 208 -456 280 -666 62
-180 147 -474 139 -481 -2 -3 -31 59 -63 138 -382 931 -1049 1673 -1953 2169
-582 320 -1236 520 -1942 594 -212 22 -678 30 -877 15 -489 -37 -894 -115
-1343 -261 -301 -97 -699 -279 -990 -453 -91 -54 -350 -226 -350 -232 0 -2 93
-34 208 -70 114 -37 331 -107 482 -155 295 -95 1103 -354 1730 -555 1601 -513
3031 -972 3115 -999 55 -18 407 -131 782 -251 375 -121 681 -221 679 -223 -6
-6 -921 243 -1596 435 -2245 636 -4678 1410 -7160 2278 -169 59 -427 140 -578
181 -151 41 -277 74 -280 74 -4 0 34 -22 83 -48 194 -103 350 -203 470 -301
44 -35 112 -80 152 -98 98 -45 371 -135 708 -233 154 -45 395 -119 535 -165
446 -146 584 -190 1070 -344 1977 -624 3972 -1207 6345 -1852 363 -99 665
-181 670 -183 6 -2 -16 -9 -48 -15 -56 -12 -64 -11 -330 54 -2459 597 -5700
1509 -8412 2367 -425 134 -454 143 -461 135 -11 -11 -3 -365 16 -659 19 -297
64 -944 75 -1073 3 -33 10 -125 15 -205 5 -80 12 -172 15 -205 5 -55 37 -563
50 -780 46 -780 73 -1970 63 -2776 -6 -554 -16 -756 -54 -1174 -13 -139 -19
-174 -35 -189 -18 -19 -18 -17 -12 130 9 240 -10 274 -152 274 l-83 0 -7 36
c-3 20 -3 205 2 412 14 648 8 1675 -12 2202 -23 566 -48 1129 -60 1330 -3 47
-16 299 -30 560 -14 261 -27 495 -30 520 -3 25 -12 250 -20 500 -31 959 -45
1058 -180 1270 -323 507 -1205 815 -2570 900 -251 16 -934 13 -1220 -5 -1360
-84 -2535 -403 -3134 -850 -297 -221 -441 -478 -540 -960 -11 -55 -43 -217
-70 -360 -301 -1563 -454 -2695 -502 -3710 -11 -225 -7 -1081 5 -1155 3 -14 7
-131 10 -260 7 -251 10 -316 27 -590 19 -317 36 -460 62 -509 29 -57 97 -104
196 -135 77 -25 117 -30 1261 -176 261 -33 500 -64 530 -68 53 -7 56 -9 77
-52 31 -62 62 -175 127 -460 59 -255 65 -270 115 -270 87 0 128 -40 138 -134
7 -68 -11 -124 -44 -137 -59 -22 -310 -1 -353 30 -35 25 -62 107 -131 396 -64
269 -85 343 -103 362 -8 10 -663 123 -924 160 l-42 6 0 -47 c0 -89 84 -475
176 -806 91 -326 128 -380 311 -450 179 -69 736 -235 1123 -334 524 -135 721
-165 1170 -181 533 -18 1588 -26 2369 -18 l645 6 28 31 c16 17 42 65 58 107
42 109 155 507 259 914 79 309 88 352 75 366 -11 12 -35 16 -92 18 -101 2
-618 19 -941 31 -378 15 -354 16 -370 -22 -7 -18 -62 -178 -121 -355 -118
-349 -153 -431 -191 -450 -38 -20 -139 -15 -379 17 -123 16 -250 30 -281 30
-52 0 -61 3 -75 26 -36 55 -30 179 11 220 21 21 33 24 102 24 43 0 130 -9 193
-20 148 -26 195 -26 217 -1 26 30 58 118 129 346 88 282 111 352 137 405 l22
45 465 6 c256 4 743 9 1082 12 l616 5 274 87 c508 161 969 310 2798 900 2547
822 4262 1362 5615 1768 645 194 1403 403 1428 394 21 -7 -71 -64 -176 -110
-223 -97 -807 -298 -1492 -512 -751 -235 -1113 -354 -2215 -730 -928 -316
-1534 -525 -2280 -785 -538 -188 -1496 -529 -2020 -720 -592 -215 -742 -270
-1120 -412 -206 -77 -388 -145 -405 -150 -16 -5 -124 -13 -240 -18 -233 -9
-293 -21 -349 -71 -19 -16 -42 -49 -50 -72 -9 -23 -106 -359 -217 -747 -110
-388 -210 -721 -221 -742 -24 -43 -64 -74 -116 -91 -29 -10 -350 -11 -1472 -6
-1784 9 -1931 15 -2354 100 -320 64 -789 192 -1221 333 -290 95 -625 218 -681
251 -97 57 -192 263 -323 696 -60 200 -89 313 -145 561 l-42 187 -157 5 c-147
4 -157 3 -157 -14 0 -35 50 -305 75 -410 42 -174 98 -357 228 -755 69 -209
133 -406 142 -438 32 -112 101 -158 374 -252 328 -113 726 -225 1344 -381 709
-178 1030 -221 1892 -254 502 -19 796 -30 1025 -40 1466 -62 1625 -56 2010 77
187 65 379 156 616 294 55 33 105 59 110 59 5 0 22 -20 37 -44 15 -25 58 -77
94 -116 36 -39 64 -72 62 -74 -2 -1 -143 -74 -314 -161 -170 -87 -373 -190
-450 -230 -77 -40 -243 -125 -370 -190 -126 -65 -315 -161 -420 -215 -104 -54
-280 -144 -390 -200 -110 -56 -281 -144 -380 -195 -99 -51 -281 -144 -405
-208 -124 -63 -398 -203 -610 -312 -212 -108 -486 -249 -610 -312 -124 -64
-306 -157 -405 -208 -213 -109 -499 -256 -830 -425 -132 -67 -312 -160 -400
-205 -88 -45 -365 -187 -615 -315 -250 -128 -509 -260 -575 -295 -66 -34 -264
-136 -440 -225 -176 -90 -328 -169 -338 -175 -15 -10 -1 -15 85 -28 57 -9 229
-37 383 -61 154 -24 312 -47 350 -51 39 -3 167 -20 285 -36 118 -17 278 -33
355 -36 l140 -6 344 192 c493 276 680 382 1396 791 911 521 1690 973 3850
2235 565 330 1200 699 1565 910 442 255 736 425 1325 770 246 144 845 495 990
580 77 46 228 134 335 197 1725 1015 3717 2127 3975 2219 45 16 52 16 87 2 24
-10 51 -13 71 -9 37 8 229 114 487 271 269 164 500 289 500 271 0 -7 -193
-145 -325 -233 -66 -44 -201 -126 -300 -183 -246 -140 -349 -205 -424 -264
-61 -48 -68 -57 -132 -191 -73 -152 -96 -211 -87 -220 10 -10 183 76 393 195
209 118 270 149 295 150 26 0 -17 -33 -305 -232 -248 -172 -469 -326 -675
-469 -1568 -1096 -1902 -1320 -3485 -2344 -1592 -1029 -2128 -1395 -3085
-2105 -686 -509 -1021 -749 -1373 -981 -174 -115 -205 -138 -192 -149 32 -27
475 -66 868 -77 l238 -6 32 23 c87 64 565 449 1017 821 1042 856 1218 992
2185 1684 232 165 439 314 460 330 l40 29 -30 -31 c-16 -17 -142 -135 -280
-264 -137 -128 -313 -292 -390 -364 -77 -72 -252 -237 -390 -366 -137 -129
-257 -241 -266 -249 -8 -8 -208 -195 -443 -415 -349 -325 -425 -400 -409 -406
10 -4 101 -8 203 -8 109 -1 234 -8 305 -17 164 -22 179 -17 308 98 253 225
504 469 820 798 442 461 902 920 1147 1144 159 146 1180 1053 1321 1174 66 57
47 10 -33 -81 -677 -767 -1014 -1176 -1317 -1597 -73 -102 -146 -202 -162
-222 -27 -35 -39 -74 -20 -66 5 1 460 450 1012 997 l1004 993 340 276 c732
594 949 776 1235 1037 894 814 1408 1552 1693 2430 183 563 265 1218 237 1901
-44 1105 -369 2128 -980 3084 -388 607 -938 1201 -1530 1651 -1041 792 -2257
1253 -3555 1349 -125 9 -749 11 -865 3z m-6504 -2250 c56 -36 75 -120 64 -268
-12 -143 -52 -219 -133 -248 -63 -23 -254 -34 -697 -41 -118 -2 -332 -14 -475
-26 -186 -15 -309 -20 -430 -17 -264 6 -287 24 -286 218 0 155 47 291 111 324
21 11 61 15 142 15 98 0 680 29 893 44 39 3 149 8 245 12 96 4 240 9 320 13
152 7 205 1 246 -26z m2201 -814 c116 -25 177 -99 202 -244 14 -83 56 -625 96
-1250 29 -467 50 -993 50 -1285 0 -234 -5 -259 -68 -328 -95 -102 -237 -140
-669 -177 -98 -8 -199 -20 -224 -25 -26 -6 -48 -9 -49 -8 -2 2 43 86 99 188
57 102 180 326 275 498 95 171 175 312 178 312 3 0 3 -84 -2 -187 -9 -222 -9
-324 0 -353 8 -25 54 -50 93 -50 60 0 59 -4 73 455 23 754 14 1277 -22 1372
-20 53 -109 31 -136 -35 -12 -29 -14 -73 -12 -226 2 -105 3 -272 3 -371 l1
-180 -259 -470 c-371 -674 -406 -737 -477 -866 l-64 -116 -90 -12 c-49 -7
-200 -33 -334 -57 -323 -59 -427 -74 -541 -74 -113 0 -159 11 -204 50 -58 51
-66 114 -42 330 8 69 17 208 21 310 3 102 8 217 10 255 3 39 10 174 15 300 15
323 54 1039 74 1355 3 41 8 120 12 175 3 55 7 197 8 315 1 176 4 222 18 252
33 74 84 89 294 88 154 0 351 11 754 45 102 9 262 18 355 22 94 3 172 8 175
10 8 8 340 -7 387 -18z m-2452 -54 c33 -12 69 -38 106 -74 45 -46 59 -69 78
-126 12 -39 26 -98 31 -130 20 -131 -10 -831 -70 -1640 -56 -746 -70 -953 -85
-1215 -18 -343 -35 -815 -35 -998 0 -122 1 -133 18 -128 9 3 132 34 272 70
140 36 491 126 780 200 289 74 729 187 979 251 510 130 549 145 652 248 32 32
82 94 111 138 36 54 56 75 63 68 5 -6 10 -57 10 -117 0 -102 -2 -110 -36 -182
-42 -87 -99 -155 -166 -198 -84 -53 -563 -195 -1548 -458 -456 -122 -937 -254
-1136 -311 -27 -8 -41 -183 -37 -473 7 -583 3 -810 -16 -885 -55 -214 -183
-354 -367 -401 -84 -22 -308 -15 -831 26 -209 16 -444 30 -522 29 -99 0 -159
5 -201 16 -214 57 -281 234 -242 640 9 96 15 277 16 500 1 193 4 389 7 437 l7
87 -34 20 c-72 45 -431 171 -791 280 -93 28 -243 74 -335 101 -93 28 -267 84
-388 125 -385 130 -450 163 -504 257 -62 107 -79 214 -51 312 10 38 21 70 23
72 2 2 16 -28 32 -67 43 -112 113 -180 250 -245 190 -91 401 -157 910 -288
363 -93 507 -135 689 -201 67 -23 144 -46 172 -50 l51 -6 6 83 c4 46 11 211
17 368 9 263 23 577 35 760 2 41 7 120 10 175 3 55 8 138 10 185 3 47 19 328
35 625 17 297 34 608 40 690 5 83 12 202 15 265 3 63 8 129 10 145 2 17 9 147
15 290 6 143 17 291 25 329 42 199 161 320 358 360 100 21 349 36 617 37 118
0 283 6 365 13 83 7 236 12 340 11 157 -1 199 -5 240 -20z m-2205 -140 c41
-21 56 -75 41 -146 -7 -29 -16 -150 -21 -269 -5 -118 -15 -296 -20 -395 -18
-301 -50 -797 -55 -855 -23 -252 -66 -951 -74 -1188 l-9 -294 -29 -56 c-23
-47 -36 -61 -78 -82 -45 -23 -61 -25 -170 -24 -94 1 -153 8 -275 33 -85 18
-192 35 -237 38 -46 3 -83 8 -83 11 0 3 26 55 59 116 56 107 444 868 466 913
13 30 23 29 36 -4 8 -20 7 -78 -1 -203 -17 -232 -11 -381 14 -409 32 -36 78
-23 105 27 5 9 12 58 15 107 4 50 9 113 11 140 2 28 7 88 10 135 3 47 9 150
15 230 24 351 51 867 53 1000 2 126 0 149 -16 173 -41 64 -98 5 -116 -120 -6
-43 -20 -190 -31 -327 -23 -275 -20 -267 -113 -434 -30 -53 -70 -126 -89 -162
-20 -36 -88 -162 -153 -280 -65 -118 -194 -354 -287 -525 -92 -170 -178 -318
-191 -329 -19 -16 -33 -18 -108 -12 -197 15 -462 67 -513 100 -38 25 -92 129
-102 194 -7 48 -5 64 46 337 35 186 97 586 140 900 16 121 44 321 60 445 80
580 140 932 171 992 25 48 103 134 139 153 32 16 98 23 295 30 88 3 196 8 240
10 44 2 154 7 245 10 336 11 457 17 491 25 54 13 88 11 119 -5z m6356 -390
c167 -42 294 -118 294 -176 0 -23 1 -23 -135 0 -60 10 -111 18 -113 16 -1 -1
36 -389 83 -861 47 -472 92 -931 101 -1019 16 -167 61 -603 71 -692 8 -72 -3
-118 -38 -158 -61 -69 -147 -68 -213 5 -19 22 -38 50 -41 62 -2 13 -14 158
-25 323 -27 404 -68 990 -80 1150 -5 72 -12 173 -15 225 -3 52 -8 120 -10 150
-3 30 -12 159 -20 285 -9 127 -22 324 -30 438 -13 184 -13 211 0 237 24 47 38
49 171 15z m968 -145 c242 -55 498 -125 546 -150 35 -18 42 -27 59 -83 29 -95
56 -283 116 -822 170 -1502 225 -2254 225 -3055 0 -168 5 -543 11 -834 5 -291
8 -530 6 -532 -2 -3 -195 -72 -428 -155 -265 -94 -432 -148 -445 -145 -19 5
-23 15 -27 63 -3 32 -4 423 -1 868 6 1211 5 1345 -11 1577 -27 382 -59 672
-155 1398 -146 1106 -199 1690 -167 1843 10 48 40 79 70 72 12 -2 103 -23 201
-45z m2332 -359 c219 -57 324 -99 324 -130 0 -28 -39 -28 -173 0 -208 42 -347
104 -347 154 0 14 1 25 3 25 2 0 89 -22 193 -49z m-891 -270 c88 -21 304 -80
480 -129 176 -49 346 -95 378 -103 69 -15 95 -43 129 -135 18 -48 22 -81 22
-176 0 -65 -3 -121 -7 -124 -6 -6 -982 191 -1244 251 -13 3 -29 18 -37 33 -25
49 -46 190 -46 315 l0 120 83 -6 c45 -3 154 -24 242 -46z m1630 -216 c126 -22
343 -80 409 -109 52 -23 56 -27 70 -78 22 -75 89 -469 130 -758 58 -402 97
-785 127 -1235 16 -237 24 -1599 10 -1652 -11 -41 -13 -42 -99 -73 -100 -36
-388 -123 -478 -143 -38 -9 -67 -11 -77 -5 -27 15 -31 74 -11 207 16 112 18
198 19 771 0 800 -12 960 -125 1680 -115 728 -143 931 -162 1164 -13 167 -7
233 25 246 24 9 26 8 162 -15z m927 4 c91 -18 378 -103 378 -111 0 -4 -7 -8
-15 -8 -16 0 -427 120 -434 126 -7 7 16 4 71 -7z m973 -201 c124 -30 298 -86
323 -104 16 -11 22 -24 20 -42 -3 -26 -6 -27 -53 -24 -61 3 -241 52 -321 87
-66 29 -114 70 -114 97 0 20 11 19 145 -14z m-810 -227 c94 -22 275 -65 402
-95 128 -31 242 -61 253 -68 12 -7 35 -40 51 -74 49 -99 50 -210 3 -228 -22
-9 -834 170 -851 187 -24 24 -43 124 -43 230 0 54 3 96 8 93 4 -2 84 -22 177
-45z m-2545 -81 c223 -43 508 -99 633 -123 125 -25 230 -47 233 -50 4 -3 31
-223 60 -489 54 -483 56 -510 38 -690 l-6 -58 -590 0 c-385 0 -596 4 -609 10
-29 16 -49 63 -69 168 -56 288 -131 1086 -121 1285 0 15 6 27 13 27 7 0 195
-36 418 -80z m3975 -53 c72 -19 143 -40 160 -48 34 -16 71 -67 85 -118 36
-128 106 -531 144 -826 61 -474 68 -655 53 -1380 l-8 -380 -237 -72 c-130 -40
-241 -73 -245 -73 -5 0 -5 228 -2 508 13 942 16 879 -85 1452 -109 617 -138
866 -106 927 8 17 21 33 28 36 30 12 91 5 213 -26z m799 -322 c152 -34 370
-99 399 -118 29 -19 57 -93 57 -149 l0 -38 -51 0 c-59 0 -251 31 -382 61 -134
32 -167 72 -167 208 0 73 -9 70 144 36z m-1876 -116 c224 -50 410 -96 415
-103 43 -65 142 -703 121 -777 l-10 -34 -413 -3 c-297 -1 -418 1 -427 9 -34
28 -80 254 -129 624 -45 347 -45 375 12 375 13 0 208 -41 431 -91z m2784 70
c92 -23 196 -68 217 -92 18 -22 181 -1011 181 -1099 1 -58 -7 -180 -35 -578
-11 -146 -15 -167 -38 -179 -48 -24 -189 -64 -343 -96 l-31 -6 -7 63 c-6 58 5
330 20 493 12 128 6 397 -10 510 -9 61 -34 202 -56 315 -58 297 -72 401 -74
531 -2 169 13 180 176 138z m-692 -345 c181 -36 239 -54 255 -78 24 -38 71
-298 90 -496 4 -46 2 -70 -7 -82 -26 -35 -175 -42 -356 -18 -40 6 -96 10 -123
10 -56 0 -51 -11 -74 150 -19 131 -40 270 -64 425 -10 66 -17 123 -15 126 5 9
161 -10 294 -37z m1405 -102 c22 -15 42 -36 43 -46 4 -17 -1 -18 -42 -13 -26
4 -56 12 -67 17 -22 12 -43 56 -33 72 9 14 54 1 99 -30z m29 -141 c38 -9 42
-25 56 -205 6 -78 12 -157 15 -177 l5 -36 -45 -6 c-58 -8 -72 -2 -84 36 -22
69 -63 367 -53 395 3 10 45 8 106 -7z m-10427 -1316 c61 -18 108 -67 120 -122
13 -61 9 -607 -5 -708 -24 -172 -109 -293 -258 -366 -61 -30 -74 -33 -222 -41
-188 -10 -415 -36 -732 -83 -300 -44 -600 -82 -715 -90 -49 -3 -115 -8 -145
-11 -62 -6 -166 8 -207 28 -37 18 -73 74 -73 114 0 53 25 114 140 349 113 230
153 289 237 346 117 81 360 181 678 279 94 29 271 88 394 132 487 172 662 210
788 173z m-6642 -68 c287 -101 921 -394 1015 -470 152 -121 316 -589 256 -730
-31 -74 -86 -92 -196 -66 -84 20 -358 68 -705 125 -264 42 -505 99 -587 138
-131 62 -174 164 -182 437 -7 250 18 480 60 545 49 74 165 82 339 21z m15938
-1001 c-24 -14 -70 -39 -104 -57 -40 -22 -70 -47 -90 -75 -39 -58 -38 -68 9
-59 35 6 89 34 227 119 59 36 75 40 82 19 11 -31 -157 -130 -379 -224 -105
-45 -110 -42 -82 50 29 100 108 163 279 222 100 34 111 35 58 5z m-1749 -831
c8 -67 23 -102 47 -108 50 -13 10 -40 -288 -193 -170 -86 -362 -185 -428 -219
-66 -34 -232 -120 -370 -190 -137 -70 -299 -153 -360 -185 -60 -31 -222 -115
-360 -185 -137 -70 -313 -160 -390 -200 -77 -40 -257 -132 -400 -205 -143 -73
-309 -158 -370 -190 -60 -31 -204 -106 -320 -165 -115 -59 -292 -150 -393
-202 -101 -52 -186 -93 -188 -90 -8 7 54 168 78 204 31 44 70 64 808 429 700
346 762 377 1093 550 285 149 311 168 357 260 l35 71 200 102 c110 55 313 159
450 231 338 175 474 236 614 271 64 16 127 38 141 49 14 10 28 19 31 19 3 1 9
-24 13 -54z m-14193 -145 c720 -105 1007 -135 1874 -195 39 -2 113 -7 165 -10
52 -2 138 -7 190 -10 52 -3 284 -13 515 -22 754 -29 3415 -21 3801 12 198 18
256 12 291 -30 29 -33 29 -47 -2 -83 -64 -76 -175 -81 -2225 -85 -942 -2
-1861 7 -1880 18 -3 1 -95 5 -205 9 -110 4 -225 9 -255 11 -30 3 -104 7 -165
10 -235 12 -871 58 -965 70 -19 2 -129 14 -245 25 -481 48 -1215 149 -1266
175 -34 18 -59 52 -59 81 0 31 37 74 65 74 12 0 178 -23 366 -50z m84 -364
c1627 -241 2912 -314 4815 -276 239 5 710 14 1045 21 419 7 630 15 673 24 35
7 78 11 95 9 53 -8 117 -35 127 -54 34 -63 -14 -112 -129 -132 -58 -10 -915
-22 -2326 -34 -737 -6 -1430 2 -1720 21 -33 2 -125 7 -205 10 -155 6 -174 7
-525 30 -647 43 -1512 144 -2020 236 -174 31 -238 53 -274 94 -37 42 -38 58
-10 86 27 27 37 26 454 -35z m2335 -826 c85 -6 243 -17 350 -25 107 -8 323
-24 480 -36 214 -15 289 -24 300 -35 19 -19 20 -194 3 -439 -7 -93 -15 -264
-18 -380 -7 -233 -10 -262 -34 -289 -39 -44 -63 -48 -194 -32 -139 18 -270 29
-662 56 -331 23 -495 52 -516 91 -23 43 -29 154 -29 504 0 370 7 490 31 541
17 35 72 65 108 59 14 -3 96 -9 181 -15z m5230 -531 c0 -29 -39 -180 -130
-504 -94 -334 -125 -425 -195 -570 -62 -129 -123 -214 -203 -283 -68 -58 -144
-114 -149 -108 -2 2 6 25 18 52 73 167 150 421 280 924 81 314 106 394 129
415 17 15 215 92 243 94 4 1 7 -8 7 -20z m1105 -771 c-39 -85 -42 -98 -21 -98
26 0 175 50 365 122 101 38 184 68 186 66 11 -13 52 -159 46 -162 -18 -11
-174 -92 -456 -236 -165 -85 -313 -162 -330 -172 -44 -26 -55 -24 -45 11 7 27
13 79 25 251 11 139 18 181 33 200 19 21 225 112 230 101 1 -4 -13 -42 -33
-83z"/>
<path d="M6350 16049 c-365 -24 -666 -39 -840 -43 -216 -5 -268 -15 -338 -66
-49 -35 -83 -85 -105 -155 -19 -60 -25 -110 -32 -280 -3 -71 -8 -159 -10 -195
-3 -36 -10 -159 -15 -275 -11 -239 -18 -375 -25 -490 -5 -72 -26 -491 -40
-780 -3 -60 -10 -200 -15 -310 -18 -367 -30 -599 -35 -730 -3 -71 -10 -215
-15 -320 -5 -104 -12 -246 -15 -315 -3 -69 -10 -215 -15 -325 -5 -110 -12
-263 -15 -340 -20 -519 -24 -584 -42 -740 -23 -199 -23 -405 0 -471 17 -49 69
-110 112 -132 11 -5 70 -13 130 -16 61 -4 142 -9 180 -12 183 -12 708 -35 950
-40 l270 -6 53 32 c56 33 104 95 122 160 19 67 39 285 42 455 2 94 2 361 0
593 -1 233 0 427 2 430 2 4 7 95 10 202 4 107 9 209 11 225 2 17 6 93 10 170
3 77 8 165 10 195 2 30 7 98 10 150 6 109 7 115 40 620 31 461 82 1292 90
1455 3 66 8 161 10 210 21 407 35 935 26 976 -35 153 -155 192 -521 168z m82
-413 c56 -21 92 -60 110 -119 17 -57 15 -282 -5 -432 -9 -66 -18 -178 -22
-250 -5 -122 -8 -183 -20 -395 -3 -47 -7 -143 -10 -215 -9 -199 -43 -820 -61
-1100 -10 -164 -21 -264 -31 -290 -24 -65 -77 -129 -128 -154 -45 -22 -53 -23
-159 -15 -61 5 -223 7 -361 4 -298 -6 -412 1 -457 27 -22 12 -43 39 -63 78
-30 60 -30 61 -29 220 1 98 11 252 27 395 25 225 40 476 52 885 9 300 15 474
20 555 3 41 7 122 11 180 10 171 32 392 44 431 14 49 62 113 110 148 72 52
253 70 655 67 229 -2 277 -5 317 -20z m-607 -3926 c226 -5 458 -11 517 -12 63
-2 108 -7 109 -13 3 -18 3 -68 1 -153 l-2 -83 -122 5 c-68 4 -305 11 -528 16
-223 5 -485 12 -583 16 l-178 6 2 120 1 121 187 -7 c102 -3 371 -11 596 -16z
m-520 -500 c132 -5 353 -12 490 -15 138 -4 272 -8 298 -10 26 -2 115 -5 198
-6 l151 -2 -7 -116 c-3 -64 -9 -119 -13 -122 -4 -3 -79 -2 -167 2 -88 3 -268
10 -400 13 -132 4 -355 11 -495 16 -140 5 -274 10 -297 10 l-43 0 0 120 c0
118 0 120 23 120 12 0 130 -4 262 -10z m-55 -525 c193 -5 347 -11 530 -20 52
-2 185 -7 295 -11 110 -3 214 -7 230 -9 17 -2 49 -4 73 -4 l43 -1 -2 -102 c-4
-157 19 -141 -198 -134 -239 8 -425 15 -526 21 -44 3 -172 7 -285 11 -113 4
-252 9 -310 13 l-105 6 3 115 c2 63 6 118 9 123 2 4 14 5 26 3 12 -3 110 -7
217 -11z"/>
<path d="M11780 15381 c-15 -30 -12 -141 10 -296 11 -77 20 -168 20 -202 0
-55 2 -63 19 -63 11 0 28 15 40 35 25 42 44 51 76 37 51 -23 80 -116 119 -377
101 -669 172 -1647 128 -1751 -19 -45 -54 -58 -85 -33 -46 36 -50 28 -44 -78
4 -54 18 -174 32 -268 46 -300 50 -574 26 -1670 -5 -203 -6 -461 -3 -572 l5
-203 26 0 c38 0 146 31 409 117 l233 77 -6 70 c-3 39 -8 539 -11 1111 l-5
1040 -89 865 c-49 476 -114 1117 -146 1425 -52 512 -59 562 -78 582 -23 24
-236 87 -482 142 -159 36 -180 38 -194 12z m548 -564 c68 -72 105 -312 162
-1052 31 -398 54 -649 70 -765 16 -111 12 -170 -15 -227 -34 -73 -65 -73 -102
2 -36 71 -50 158 -123 765 -73 612 -109 1169 -80 1246 11 30 36 54 55 54 6 0
21 -10 33 -23z"/>
<path d="M14931 14568 c-38 -14 -39 -58 -4 -278 9 -58 17 -106 18 -107 0 -1
20 7 42 18 71 35 94 5 132 -169 55 -248 131 -919 131 -1156 0 -76 -4 -98 -18
-116 -18 -22 -19 -22 -52 -5 l-33 17 7 -63 c48 -451 60 -739 53 -1269 -4 -234
-10 -483 -13 -554 l-7 -129 48 7 c90 14 330 77 383 101 51 23 52 25 53 67 12
505 15 1197 6 1361 -24 440 -74 905 -178 1657 -27 201 -53 388 -56 415 -8 68
-16 81 -71 109 -107 54 -387 114 -441 94z m421 -458 c32 -65 59 -194 88 -420
12 -91 32 -235 45 -320 38 -245 58 -439 52 -512 -10 -154 -86 -157 -132 -5
-50 167 -169 1134 -151 1229 7 41 42 91 60 86 6 -2 23 -28 38 -58z"/>
<path d="M17369 14054 c-38 -46 -9 -296 36 -311 6 -1 18 11 28 28 21 38 36 34
61 -14 52 -106 150 -854 126 -962 -12 -52 -22 -60 -61 -46 -18 6 -34 10 -36 8
-1 -2 4 -48 12 -103 25 -174 34 -437 28 -893 l-6 -444 24 6 c13 3 95 22 182
43 157 37 158 38 153 63 -10 53 -17 277 -21 666 -4 402 -13 577 -41 845 -15
149 -72 593 -79 620 -2 8 -6 65 -10 125 -8 132 -29 249 -50 282 -20 30 -40 37
-192 74 -143 34 -137 33 -154 13z m295 -333 c52 -100 145 -822 119 -920 -9
-34 -36 -61 -49 -49 -21 22 -81 353 -110 611 -16 146 -17 349 -1 375 13 19 25
14 41 -17z"/>
<path d="M19134 13579 l10 -111 25 5 c14 3 33 8 42 12 41 16 57 -35 90 -284
29 -222 37 -432 17 -449 -12 -10 -20 -8 -42 9 l-26 20 0 -492 0 -492 63 6 c34
3 99 17 145 31 l82 27 1 42 c1 23 1 92 0 152 -2 68 6 173 19 275 27 202 23
360 -15 655 -26 204 -77 519 -95 587 -20 73 -120 117 -265 118 l-60 0 9 -111z
m266 -156 c0 -35 14 -124 55 -343 22 -118 30 -259 16 -292 -24 -62 -49 -18
-80 143 -23 114 -61 419 -61 487 0 41 0 42 35 42 34 0 35 -1 35 -37z"/>
<path d="M9005 11533 c-130 -27 -232 -113 -279 -232 -18 -46 -24 -154 -11
-211 12 -56 50 -123 96 -169 109 -109 271 -137 412 -71 216 102 273 390 111
569 -80 90 -220 138 -329 114z"/>
<path d="M2871 11514 c-65 -17 -126 -61 -163 -116 -37 -55 -48 -98 -48 -194 0
-70 4 -89 31 -142 57 -115 151 -168 283 -160 40 3 88 13 111 23 178 85 214
377 65 526 -74 74 -164 94 -279 63z"/>
<path d="M5625 8271 c-40 -25 -340 -332 -391 -401 -54 -72 -60 -90 -31 -90 12
0 76 -7 142 -15 143 -17 224 -19 262 -4 15 5 44 28 63 51 33 37 40 41 100 47
36 3 99 3 140 0 41 -3 121 -10 176 -14 l101 -8 13 115 c12 115 11 300 -2 313
-14 14 -157 24 -348 25 -173 0 -198 -2 -225 -19z"/>
<path d="M17550 9521 c-14 -5 -40 -16 -59 -26 -29 -14 -823 -483 -1088 -641
l-82 -49 271 -3 271 -2 105 61 c219 128 918 581 979 634 l38 34 -205 0 c-113
-1 -216 -4 -230 -8z"/>
<path d="M15598 8361 c-85 -23 -195 -75 -311 -147 -50 -31 -276 -162 -501
-292 -637 -364 -1168 -687 -1180 -717 -5 -13 39 -15 325 -15 285 0 334 2 362
16 47 24 185 121 527 369 430 313 733 515 1039 695 l124 73 -29 16 c-46 24
-270 26 -356 2z"/>
<path d="M12935 6793 c-60 -37 -193 -117 -295 -178 -161 -97 -1696 -1016
-2945 -1763 -1573 -941 -3661 -2208 -3717 -2256 l-22 -20 24 -7 c24 -7 275
-36 525 -60 66 -6 216 -14 334 -18 l214 -6 131 83 c72 46 147 94 166 107 19
12 121 78 225 145 105 67 250 161 323 208 202 132 1335 886 1612 1074 556 376
788 532 1470 987 393 262 886 586 1095 720 854 549 896 576 1295 839 162 107
299 198 304 203 6 5 -118 9 -310 9 l-319 -1 -110 -66z"/>
<path d="M4420 6251 c-30 -10 -424 -140 -875 -290 -768 -254 -1318 -440 -1860
-629 -498 -174 -750 -264 -758 -271 -12 -12 59 -37 123 -45 30 -4 150 -21 265
-37 116 -16 224 -32 240 -34 250 -33 576 -31 740 5 58 13 201 61 340 115 132
51 562 218 955 369 393 152 783 303 865 335 83 32 311 121 507 196 196 76 355
141 353 145 -3 4 -25 10 -49 13 -25 4 -141 29 -258 57 -384 92 -488 104 -588
71z"/>
<path d="M5220 5870 c-184 -77 -432 -180 -550 -229 -1215 -501 -1343 -557
-1920 -834 -112 -54 -99 -55 135 -1 476 110 937 275 1870 669 287 122 658 272
815 330 69 25 179 76 245 113 l120 67 -70 6 c-38 4 -124 9 -190 13 l-120 6
-335 -140z"/>
<path d="M4990 5513 c-63 -25 -216 -80 -340 -123 -274 -95 -372 -132 -517
-196 -136 -59 -147 -78 -50 -89 34 -4 161 -22 282 -41 240 -37 372 -48 776
-64 146 -6 324 -17 395 -25 123 -14 204 -25 669 -94 413 -62 677 -77 805 -47
89 20 239 86 612 269 174 85 362 176 417 203 56 26 100 48 99 50 -5 4 -82 13
-173 19 -49 3 -193 12 -320 20 -126 8 -257 17 -290 20 -33 2 -134 9 -225 15
-91 5 -228 15 -305 20 -77 5 -246 17 -375 25 -129 8 -266 17 -305 20 -207 16
-975 65 -1005 64 -19 0 -87 -21 -150 -46z"/>
</g>
</svg>
