<?xml version="1.0" standalone="no"?>
<!DOCTYPE svg PUBLIC "-//W3C//DTD SVG 20010904//EN"
 "http://www.w3.org/TR/2001/REC-SVG-20010904/DTD/svg10.dtd">
<svg version="1.0" xmlns="http://www.w3.org/2000/svg"
 width="3000.000000pt" height="2000.000000pt" viewBox="0 0 3000.000000 2000.000000"
 preserveAspectRatio="xMidYMid meet">

<g transform="translate(0.000000,2000.000000) scale(0.100000,-0.100000)"
fill="#000000" stroke="none">
<path d="M14790 14857 c-3 -2 -86 -7 -185 -11 -179 -6 -210 -8 -420 -27 -401
-35 -862 -112 -1263 -210 -1968 -481 -3713 -1636 -4932 -3264 -1083 -1446
-1696 -3200 -1737 -4973 l-6 -272 866 0 867 0 0 296 c0 275 -1 295 -17 293
-10 -1 -245 -1 -521 0 l-504 1 7 78 c77 905 297 1762 671 2617 56 130 286 586
335 666 l34 56 356 -206 c196 -113 374 -216 396 -228 l40 -23 128 223 c70 122
135 235 144 250 15 26 15 29 -1 41 -9 6 -183 108 -387 226 l-370 214 66 95
c503 728 1166 1407 1886 1932 193 140 568 389 588 389 3 0 30 -42 60 -92 140
-245 341 -593 344 -596 4 -5 53 21 160 83 50 29 146 85 215 125 69 40 127 74
129 76 4 3 -29 60 -256 452 -68 117 -126 219 -129 227 -9 23 300 171 651 313
658 265 1376 445 2100 526 133 15 519 46 578 46 l27 0 0 -385 0 -385 290 0
290 0 0 385 0 385 25 0 c55 0 458 -32 580 -45 728 -83 1443 -262 2100 -527
346 -140 660 -290 652 -312 -3 -8 -61 -110 -129 -227 -227 -390 -261 -450
-257 -453 2 -2 60 -36 129 -76 69 -40 166 -96 215 -125 107 -62 156 -88 160
-83 3 3 204 351 344 596 30 50 57 92 60 92 20 0 395 -249 588 -389 720 -525
1383 -1204 1886 -1932 l66 -95 -370 -214 c-204 -118 -378 -220 -387 -226 -16
-12 -16 -15 -1 -41 9 -15 74 -128 144 -250 l128 -223 40 23 c22 12 200 115
396 228 l356 206 34 -56 c55 -89 281 -543 348 -696 363 -831 582 -1692 658
-2587 l7 -78 -504 -1 c-276 -1 -511 -1 -520 0 -17 2 -18 -18 -18 -293 l0 -296
867 0 866 0 -6 273 c-7 285 -24 520 -58 797 -288 2364 -1528 4504 -3444 5940
-1109 832 -2379 1380 -3747 1620 -114 20 -417 62 -528 74 -162 17 -257 26
-365 31 -66 4 -133 9 -150 10 -48 6 -660 17 -665 12z"/>
<path d="M18194 12042 c-27 -4 -40 -18 -151 -172 -245 -340 -790 -1091 -823
-1135 -21 -27 -74 -102 -120 -165 -46 -63 -99 -137 -120 -165 -20 -27 -120
-165 -222 -305 -101 -140 -358 -493 -569 -785 -598 -822 -1075 -1481 -1148
-1582 l-66 -92 -46 0 c-135 -2 -339 -57 -488 -131 -439 -220 -707 -673 -688
-1160 8 -203 48 -356 139 -531 270 -521 865 -784 1430 -633 460 123 803 490
905 967 25 115 24 370 0 485 -22 100 -56 202 -98 293 l-32 68 86 193 c47 106
215 486 375 843 159 358 437 981 617 1385 180 404 431 967 557 1250 475 1066
568 1278 568 1296 0 45 -56 85 -106 76z"/>
</g>
</svg>
