<?xml version="1.0" standalone="no"?>
<!DOCTYPE svg PUBLIC "-//W3C//DTD SVG 20010904//EN"
 "http://www.w3.org/TR/2001/REC-SVG-20010904/DTD/svg10.dtd">
<svg version="1.0" xmlns="http://www.w3.org/2000/svg"
 width="1280.000000pt" height="1280.000000pt" viewBox="0 0 1280.000000 1280.000000"
 preserveAspectRatio="xMidYMid meet">

<g transform="translate(0.000000,1280.000000) scale(0.100000,-0.100000)"
fill="#000000" stroke="none">
<path d="M6130 8907 c-3 -3 -53 -7 -110 -8 -126 -2 -216 -13 -290 -36 -42 -13
-68 -31 -115 -78 -64 -63 -108 -137 -98 -163 7 -17 17 -6 67 73 36 58 106 110
169 126 26 6 50 9 53 7 2 -3 -18 -19 -45 -36 -82 -53 -150 -142 -108 -142 6 0
32 21 57 46 45 47 116 86 178 99 31 6 32 6 32 -27 0 -29 -16 -88 -74 -271 -17
-55 -11 -77 29 -112 31 -26 317 -687 303 -700 -3 -3 -45 9 -94 26 -323 110
-564 144 -1019 143 -344 0 -508 -13 -790 -59 -256 -43 -299 -60 -411 -167
-129 -123 -237 -306 -248 -423 -4 -38 -14 -101 -22 -140 -24 -112 -42 -252
-48 -370 -8 -148 -31 -449 -61 -795 -13 -157 -31 -377 -40 -490 -9 -113 -20
-252 -25 -309 -6 -58 -10 -261 -10 -453 0 -369 3 -395 47 -413 10 -4 99 -18
197 -31 98 -13 181 -25 182 -27 4 -4 -168 -56 -311 -93 -116 -31 -130 -40
-121 -80 11 -48 39 -75 87 -85 63 -12 1249 -11 1410 1 454 36 791 112 1344
305 99 35 818 276 1599 535 1182 394 1424 478 1452 502 19 17 55 37 80 46 l46
17 -1 380 c-2 384 -5 424 -41 515 -11 28 -20 72 -20 99 l0 47 -122 49 c-68 26
-202 79 -298 117 -520 205 -561 220 -592 209 -35 -13 -54 -5 -114 48 -30 26
-96 58 -230 113 -104 41 -376 151 -604 243 -228 92 -431 175 -452 186 l-37 19
43 93 c193 408 179 373 165 414 -6 21 -60 153 -120 293 -59 141 -131 314 -159
385 -28 72 -67 159 -86 195 -38 73 -42 90 -16 91 99 6 191 -40 242 -122 16
-27 34 -49 39 -49 22 0 21 23 -2 63 -35 58 -91 112 -143 137 -91 42 -156 50
-454 57 -157 3 -287 3 -290 0z m375 -116 c34 -7 50 4 -220 -144 -60 -33 -154
-87 -207 -119 -85 -51 -103 -59 -140 -56 -41 3 -43 4 -40 33 2 17 19 79 38
139 18 59 34 114 34 120 0 33 23 36 265 35 132 -1 254 -4 270 -8z m178 -29
c16 -16 59 -110 112 -242 48 -118 102 -251 120 -295 105 -251 137 -341 132
-370 -7 -41 -197 -405 -212 -405 -7 0 -66 24 -131 54 -65 29 -162 72 -215 95
l-97 42 -73 157 c-41 86 -122 255 -181 375 -60 120 -108 223 -108 231 0 28 44
57 360 237 91 51 183 106 204 121 48 35 56 35 89 0z m-1331 -1663 c33 -18 60
-92 53 -147 -9 -70 -35 -194 -45 -219 l-10 -23 -834 0 c-532 0 -837 4 -841 10
-11 18 25 284 44 320 37 73 -4 70 849 70 530 0 770 -3 784 -11z m565 -275 c10
-14 13 -116 13 -455 l0 -438 -59 -163 c-73 -203 -90 -237 -116 -243 -37 -9
-326 -24 -340 -18 -21 7 -19 40 14 209 16 82 50 257 75 389 26 132 53 272 61
310 8 39 23 123 35 187 31 178 40 217 58 234 24 24 240 13 259 -12z m491 -18
c12 -12 14 -100 13 -532 -1 -285 -6 -523 -11 -528 -4 -4 -50 -13 -101 -18 -72
-7 -95 -6 -105 4 -20 19 -21 1062 -2 1085 10 13 28 15 103 9 56 -4 95 -11 103
-20z m372 -7 c63 -18 122 -38 130 -46 13 -12 15 -73 18 -410 2 -218 1 -407 -3
-420 -5 -23 -8 -23 -135 -23 -117 0 -132 2 -150 20 -19 19 -20 33 -20 445 0
426 3 465 35 465 5 0 62 -14 125 -31z m385 -103 c54 -14 102 -30 106 -38 5 -7
9 -180 9 -384 0 -330 -2 -373 -16 -378 -9 -3 -62 -6 -119 -6 -81 0 -107 3
-119 16 -14 13 -16 64 -16 403 0 400 1 411 41 411 9 0 60 -11 114 -24z m335
-90 l75 -22 3 -344 c2 -248 -1 -346 -9 -351 -12 -7 -196 -5 -203 2 -4 4 -9
622 -7 717 1 18 6 22 34 21 17 0 66 -10 107 -23z m-2202 -56 c12 -12 22 -26
22 -33 0 -30 -134 -696 -146 -725 -12 -30 -17 -33 -51 -30 l-38 3 3 50 c2 28
12 104 22 170 32 202 35 255 17 255 -17 0 -31 -55 -43 -166 -6 -55 -14 -72
-75 -160 -37 -55 -78 -111 -89 -126 l-22 -28 -628 0 c-564 0 -629 2 -641 16
-16 19 -15 21 11 416 11 164 20 305 20 313 0 9 11 27 25 40 l24 25 784 0 c774
0 783 0 805 -20z m2482 -24 l65 -21 8 -75 c11 -111 4 -527 -9 -540 -7 -7 -45
-10 -100 -8 l-89 3 -3 338 -2 339 32 -7 c18 -4 62 -17 98 -29z m218 -60 c29
-8 64 -22 78 -31 l25 -16 -3 -264 c-2 -145 -7 -267 -11 -271 -4 -5 -39 -10
-76 -12 -106 -6 -101 -21 -101 303 0 150 3 280 6 289 7 19 15 20 82 2z m255
-67 c24 -6 41 -18 46 -32 12 -33 11 -470 -1 -484 -13 -17 -120 -17 -136 -1 -9
9 -12 83 -12 270 l0 258 33 0 c17 0 49 -5 70 -11z m310 -76 l47 -15 0 -219 0
-219 -80 0 c-67 0 -81 3 -89 19 -7 11 -9 101 -7 231 3 228 5 235 56 224 14 -3
46 -12 73 -21z m207 -44 c30 -6 54 -18 60 -29 11 -21 13 -349 2 -366 -6 -10
-103 -19 -149 -15 -10 1 -13 50 -13 211 l0 210 25 0 c13 0 47 -5 75 -11z m249
-64 c3 -4 8 -79 10 -168 4 -181 1 -187 -70 -187 -72 0 -69 -8 -69 195 0 138 3
184 13 188 13 4 105 -18 116 -28z m135 -25 l26 -10 0 -154 c0 -166 0 -166 -56
-166 -60 0 -62 6 -58 162 2 79 4 151 4 161 0 20 42 23 84 7z m147 -35 l30 -16
-3 -136 -3 -136 -28 -10 c-21 -7 -34 -5 -52 7 -25 16 -25 19 -25 155 0 141 2
148 38 150 7 1 26 -6 43 -14z m-4250 -310 c-10 -67 -21 -85 -51 -85 -38 0 -44
17 -20 56 32 53 72 105 77 101 2 -2 -1 -35 -6 -72z m-1436 -615 c24 0 55 -42
55 -74 0 -59 -66 -95 -121 -65 -26 13 -41 55 -34 91 7 30 50 61 73 53 8 -3 20
-5 27 -5z m254 -17 c11 -10 24 -32 27 -50 5 -27 1 -37 -25 -64 -27 -26 -37
-30 -64 -25 -64 12 -89 86 -45 133 26 28 77 31 107 6z m972 -3 c20 0 49 -42
49 -71 0 -43 -15 -65 -51 -78 -63 -22 -126 46 -97 105 14 31 55 57 76 49 8 -3
18 -5 23 -5z m246 -6 c27 -7 47 -54 39 -91 -7 -30 -50 -63 -81 -63 -9 0 -30
13 -46 29 -67 67 -8 151 88 125z"/>
</g>
</svg>
