<?xml version="1.0" standalone="no"?>
<!DOCTYPE svg PUBLIC "-//W3C//DTD SVG 20010904//EN"
 "http://www.w3.org/TR/2001/REC-SVG-20010904/DTD/svg10.dtd">
<svg version="1.0" xmlns="http://www.w3.org/2000/svg"
 width="840.000000pt" height="481.000000pt" viewBox="0 0 840.000000 481.000000"
 preserveAspectRatio="xMidYMid meet">
<metadata>
Created by potrace 1.16, written by Peter Selinger 2001-2019
</metadata>
<g transform="translate(0.000000,481.000000) scale(0.100000,-0.100000)"
fill="#000000" stroke="none">
<path d="M5931 4354 c-203 -87 -382 -207 -524 -350 -204 -204 -303 -423 -314
-689 -8 -202 25 -348 143 -630 42 -101 56 -213 35 -278 -36 -110 -260 -263
-512 -352 l-76 -27 18 -70 c46 -175 51 -450 10 -613 -90 -365 -306 -654 -626
-838 -44 -25 -105 -55 -135 -67 -30 -12 -59 -26 -64 -31 -6 -5 54 16 132 46
895 343 1536 770 1842 1228 107 161 179 351 200 535 31 255 -62 560 -239 787
-161 206 -206 296 -217 429 -7 80 10 166 50 266 58 142 221 341 386 471 44 34
80 66 80 70 0 17 -24 59 -33 59 -6 0 -44 -21 -84 -46 -58 -36 -77 -44 -86 -35
-15 15 3 30 95 77 l68 34 -17 35 c-9 19 -19 35 -22 35 -3 0 -53 -21 -110 -46z
m-298 -375 c7 -11 -9 -38 -59 -104 -105 -140 -162 -277 -179 -432 l-7 -63 -39
0 c-44 0 -43 -2 -29 90 27 168 95 306 230 468 52 63 65 69 83 41z m-128 -991
c16 -29 43 -75 61 -103 89 -141 147 -293 160 -422 l7 -63 -60 0 -60 0 -11 83
c-16 116 -43 191 -134 365 -44 84 -79 154 -77 155 11 7 75 36 80 36 3 1 19
-23 34 -51z m52 -940 c29 -18 53 -36 53 -41 0 -38 -184 -238 -305 -332 -90
-69 -205 -149 -209 -143 -2 1 -21 34 -43 72 l-40 70 81 51 c160 101 311 228
371 315 15 22 30 40 33 40 3 0 30 -14 59 -32z"/>
<path d="M3355 2804 c-91 -10 -211 -37 -293 -65 -369 -129 -657 -447 -754
-836 -30 -118 -33 -407 -6 -520 57 -233 158 -415 322 -579 137 -137 278 -225
454 -284 675 -226 1392 198 1527 902 18 96 21 293 6 389 -78 485 -447 871
-926 970 -92 19 -258 30 -330 23z m310 -324 c203 -51 392 -183 512 -360 197
-290 197 -683 2 -972 -92 -136 -208 -235 -360 -307 -118 -57 -185 -72 -336
-78 -113 -5 -146 -2 -227 16 -106 25 -231 81 -322 146 -163 117 -297 323 -340
524 -21 100 -18 289 6 389 82 343 371 606 725 662 86 13 247 4 340 -20z"/>
<path d="M3340 1911 c0 -336 2 -380 16 -385 9 -3 183 -6 388 -6 276 0 375 3
384 12 8 8 12 47 12 110 l0 98 -290 0 -290 0 0 275 0 275 -110 0 -110 0 0
-379z"/>
</g>
</svg>
