<svg class="logo-svg" xmlns="http://www.w3.org/2000/svg" viewBox="370 0 1490 377" style="height:26px;width:auto;display:block;">
  <path class="arc-main" d="M0 0 C1.0103833 0.27328125 2.0207666 0.5465625 3.06176758 0.828125 C11.74630163 3.19407076 20.38514472 5.70563142 29 8.3125 C31.35921163 9.02278941 33.71872888 9.73205387 36.07836914 10.44091797 C37.74448997 10.94165482 39.4103401 11.44329323 41.07592773 11.94580078 C45.6297696 13.31615183 50.1897464 14.66006973 54.76171875 15.96875 C66.11315513 19.22253034 77.36386535 22.66711853 88.54394531 26.47216797 C95.65605295 28.89158358 102.81443818 31.12194061 110 33.3125 C115.0952095 34.8768805 120.18630896 36.45433044 125.27514648 38.03930664 C126.80117577 38.51345236 128.32787245 38.98545533 129.85522461 39.45532227 C138.15479013 42.01005862 146.26469105 44.68077414 154.24389648 48.13549805 C158.84592001 50.10080546 163.55291767 51.77780274 168.25 53.5 C179.52256578 57.68537163 190.61479118 62.2293147 201.68603516 66.91748047 C205.25681482 68.42060667 208.8365171 69.9014668 212.41796875 71.37890625 C229.83286069 78.57670598 247.00622062 86.1590241 264 94.3125 C264.98291016 94.78397461 265.96582031 95.25544922 266.97851562 95.74121094 C280.27872054 102.16341407 293.14575905 109.22778349 305.95263672 116.57714844 C309.18732247 118.41917266 312.43680994 120.23246389 315.69140625 122.0390625 C316.80668701 122.65869873 317.92196777 123.27833496 319.07104492 123.91674805 C321.20910197 125.10308296 323.34850206 126.28700196 325.48950195 127.46801758 C338.79489835 134.87010771 338.79489835 134.87010771 343 138.3125 C343 138.9725 343 139.6325 343 140.3125 C338.87382465 139.68567899 335.6203254 138.31334405 331.890625 136.4609375 C331.29962509 136.17028915 330.70862518 135.87964081 330.09971619 135.58018494 C328.81939229 134.95052136 327.540209 134.31853431 326.26205444 133.68447876 C322.78773987 131.9629459 319.3027592 130.26340041 315.81640625 128.56640625 C315.09193802 128.21376205 314.36746979 127.86111786 313.62104797 127.49778748 C302.47644683 122.09531665 291.16166531 117.06073825 279.87104797 111.97317505 C274.41456982 109.51028248 268.98692903 106.98785561 263.56298828 104.45410156 C247.6377855 97.02377561 231.59819283 89.88614107 214.83129883 84.55859375 C211.02070216 83.33463363 207.25494813 81.99262742 203.48828125 80.640625 C193.71425552 77.16462519 183.86244962 73.93466416 173.99804688 70.72583008 C171.00280055 69.75091155 168.00916474 68.77116005 165.015625 67.79101562 C148.66677849 62.4521851 132.3653654 57.35434681 115.5625 53.625 C114.84008118 53.46319244 114.11766235 53.30138489 113.37335205 53.13467407 C90.18416297 47.98341038 66.69374977 44.25723564 43.26855469 40.36083984 C39.48495627 39.73132992 35.7041636 39.08994988 31.92675781 38.42431641 C12.46542421 35.01189333 -6.55319467 33.93943352 -26.3125 34 C-28.11723785 34.00223572 -28.11723785 34.00223572 -29.95843506 34.0045166 C-59.87140015 34.07082601 -89.19362321 36.29365353 -118.75878906 40.82714844 C-121.76028716 41.27660446 -124.76354489 41.68177215 -127.7734375 42.0703125 C-160.72694422 46.48883108 -193.30704035 54.78400335 -225.5625 62.6875 C-226.56959015 62.9340332 -227.5766803 63.18056641 -228.61428833 63.43457031 C-240.49205882 66.35205021 -252.31011837 69.43257043 -264.07723999 72.76849365 C-266.84298569 73.55100588 -269.61294687 74.31815567 -272.3828125 75.0859375 C-282.65124718 77.94721681 -292.9010516 80.85842578 -303.125 83.875 C-311.91743079 86.4678802 -320.7431688 88.8753195 -329.63720703 91.09594727 C-346.56657613 95.38444658 -363.07614411 101.27528926 -379.63330078 106.79516602 C-382.283006 107.67842809 -384.93339517 108.55958614 -387.58447266 109.4387207 C-401.25787944 113.97335018 -414.89856451 118.56679505 -428.41789246 123.54666138 C-437.03170578 126.71426328 -445.72134015 129.62846751 -454.4375 132.5 C-455.9447596 132.99905266 -457.45192091 133.49840225 -458.95898438 133.99804688 C-461.89160748 134.96988568 -464.82462356 135.94052097 -467.75805664 136.90991211 C-471.95173739 138.29615273 -476.14455923 139.68493748 -480.3359375 141.078125 C-482.11363525 141.66835449 -482.11363525 141.66835449 -483.92724609 142.27050781 C-486.9794158 143.30551975 -489.99076967 144.4123332 -492.99609375 145.57421875 C-495.55825569 146.51817315 -498.15237108 147.34620341 -500.75 148.1875 C-504.75337447 149.50702019 -508.62929368 150.95753471 -512.5 152.625 C-517.90274592 154.93234878 -523.38799818 156.89505215 -528.9375 158.8125 C-538.54933899 162.1357612 -548.04852746 165.62767258 -557.41796875 169.59375 C-563.96375473 172.3269451 -570.57692724 174.87165954 -577.20800781 177.38861084 C-580.91752205 178.79678462 -584.62454847 180.21148845 -588.33203125 181.625 C-589.11059479 181.92163544 -589.88915833 182.21827087 -590.6913147 182.52389526 C-599.13112732 185.74060208 -607.56226659 188.97979463 -615.99203491 192.22271729 C-618.4194308 193.15650604 -620.84703789 194.08974409 -623.2746582 195.02294922 C-631.71653089 198.26962768 -640.15210576 201.53203543 -648.58018494 204.81436157 C-653.05180893 206.55583686 -657.52663383 208.28870488 -662.00390625 210.015625 C-694.4724661 222.5895079 -725.73224433 237.3623504 -756.57003784 253.48719788 C-760.66314833 255.62450748 -764.77212475 257.72827711 -768.890625 259.81640625 C-783.94237699 267.47216053 -798.47960652 275.71354094 -812.91699219 284.45654297 C-815.76772928 286.17267406 -818.63266013 287.86034588 -821.5078125 289.53515625 C-832.03797699 295.69166777 -841.96852328 302.37820928 -851.75585938 309.65380859 C-856.36047678 313.0571779 -861.02538465 316.37815669 -865.67895508 319.71411133 C-869.81230242 322.68963296 -873.8292374 325.76218995 -877.8125 328.9375 C-898.08174198 344.21695641 -920.72192373 352.04977603 -946 350.3125 C-954.09186309 348.85563165 -960.5178792 345.25187605 -967 340.3125 C-968.546875 339.19875 -968.546875 339.19875 -970.125 338.0625 C-977.34718902 331.1543192 -983.01988105 322.71586069 -983.4375 312.5625 C-983.12102235 302.00005849 -979.08074391 293.98802639 -972 286.3125 C-971.37609375 285.63445312 -970.7521875 284.95640625 -970.109375 284.2578125 C-954.09246029 268.5465641 -926.76303242 262.14512501 -906.28515625 254.62890625 C-902.67973878 253.30497944 -899.08003733 251.97085111 -895.49609375 250.58984375 C-887.05373354 247.33840844 -878.53429842 244.50068193 -869.88549805 241.84692383 C-865.55110627 240.50453989 -861.31500473 239.07750019 -857.1171875 237.3515625 C-850.31507489 234.56517104 -843.29244024 232.4893057 -836.27734375 230.3125 C-830.51485533 228.50244229 -824.90555359 226.52776001 -819.31933594 224.23242188 C-815.73083868 222.80911054 -812.06666704 221.68427728 -808.375 220.5625 C-799.77776787 217.90124448 -791.23908284 215.08301766 -782.71240234 212.20410156 C-776.62423503 210.15704752 -770.50971167 208.22437569 -764.36669922 206.34863281 C-758.47726795 204.53610589 -752.61405516 202.64273634 -746.75 200.75 C-745.77102753 200.43443146 -745.77102753 200.43443146 -744.77227783 200.11248779 C-732.5876972 196.18251032 -720.43794285 192.15073801 -708.30371094 188.06811523 C-701.20293229 185.68332937 -694.08272644 183.39118687 -686.91650391 181.21044922 C-682.92032055 179.98008237 -678.95950817 178.65530163 -675 177.3125 C-668.77899403 175.22157625 -662.54207001 173.21164485 -656.26171875 171.3046875 C-652.5644535 170.18001041 -648.87540765 169.02988455 -645.1875 167.875 C-644.51356201 167.66407715 -643.83962402 167.4531543 -643.14526367 167.23583984 C-641.77520644 166.80703459 -640.4051707 166.37816066 -639.03515625 165.94921875 C-637.05500441 165.32970867 -635.074459 164.71147615 -633.09375 164.09375 C-625.07730127 161.5930681 -617.06712604 159.07312032 -609.06054688 156.54101562 C-604.10615163 154.97499417 -599.14843413 153.42016731 -594.1875 151.875 C-586.83128456 149.58328849 -579.48972395 147.2461453 -572.15112305 144.89868164 C-566.27660798 143.02334939 -560.38794447 141.19853512 -554.49243164 139.39038086 C-550.77832395 138.24408338 -547.07009165 137.07976774 -543.36328125 135.91015625 C-518.3271585 128.01885677 -518.3271585 128.01885677 -507.10180664 125.00195312 C-501.93471642 123.60414069 -496.84385358 122.01848268 -491.75 120.375 C-483.79571605 117.80947498 -475.77509127 115.58241879 -467.70239258 113.42211914 C-462.12535709 111.92032467 -456.65746187 110.25536838 -451.19921875 108.36328125 C-445.11210151 106.36397168 -438.92641501 104.69106229 -432.76171875 102.94921875 C-426.84999514 101.27734893 -420.9565827 99.54532506 -415.0625 97.8125 C-407.37656418 95.55693198 -399.67343446 93.38980592 -391.9375 91.3125 C-384.47471728 89.30606648 -377.07196717 87.15257022 -369.6875 84.875 C-353.2116484 79.79862631 -336.59164738 75.26335901 -319.9375 70.8125 C-312.01385548 68.69308093 -304.1176065 66.50625515 -296.25 64.1875 C-263.86181099 54.67282763 -231.38987396 45.71116252 -198.59960938 37.68603516 C-189.7293308 35.51347046 -180.86805823 33.30468211 -172.00738525 31.09332275 C-169.21761749 30.39808132 -166.42699684 29.70635698 -163.63623047 29.01513672 C-156.45239894 27.22928261 -149.29427116 25.43328551 -142.19921875 23.31640625 C-132.16084794 20.39781579 -121.90687794 18.36124885 -111.6875 16.1875 C-109.44821691 15.70780025 -107.20895954 15.22798046 -104.96972656 14.74804688 C-83.33550251 10.1243691 -61.66576116 5.66882591 -39.97460938 1.3203125 C-36.84572517 0.69148134 -33.72265565 0.04263822 -30.60351562 -0.6328125 C-19.29440928 -3.0614572 -11.13752147 -3.10997986 0 0 Z " transform="translate(1357,2.6875)"/>
  <path class="arc-secondary" d="M0 0 C25.84910567 -0.3264093 51.66300771 0.21470101 77.5 0.9375 C79.08853148 0.98150695 80.67706297 1.02551331 82.26559448 1.06951904 C91.22762796 1.31931007 100.18901204 1.58566896 109.14984131 1.87554932 C111.52043007 1.95217509 113.89106763 2.02732845 116.26177979 2.10003662 C134.96858172 2.68646762 153.61174097 4.12508262 172.26927948 5.55111313 C174.90480492 5.75227492 177.54043042 5.95207643 180.17608643 6.15151978 C203.25058454 7.89901521 226.3185301 9.71551104 249.375 11.6875 C250.51161072 11.78373657 251.64822144 11.87997314 252.8192749 11.97912598 C273.79624765 13.76405694 294.70754949 16.05258065 315.5625 18.9375 C325.9906854 20.35235551 336.42638383 21.68362832 346.875 22.9375 C348.23047643 23.10068492 349.58594512 23.26393411 350.94140625 23.42724609 C353.04138663 23.68016965 355.1413699 23.93306903 357.24136353 24.18588257 C359.49425702 24.45713343 361.74713015 24.7285529 364 25 C364.82610779 25.09945923 365.65221558 25.19891846 366.50335693 25.3013916 C371.81790105 25.94195106 377.13164527 26.58869479 382.44464111 27.24197388 C384.15807525 27.45176379 385.87173249 27.6597414 387.58563232 27.86569214 C397.28804933 29.03253589 406.8725433 30.42423688 416.45776367 32.33789062 C420.04696857 33.00877929 423.62553834 33.50025758 427.25 33.9375 C434.66598198 34.88373007 441.93043383 36.32295191 449.25 37.83203125 C453.1808146 38.64007734 457.11694947 39.40406228 461.0625 40.13671875 C479.0034791 43.48620644 496.8462276 47.27158836 514.68371582 51.12944412 C516.66111 51.55679662 518.63875222 51.98298357 520.61645508 52.40890503 C559.87640327 60.87719321 559.87640327 60.87719321 577.6875 66.5 C579.62999799 67.10224137 581.57270816 67.70379876 583.515625 68.3046875 C584.44439453 68.59311523 585.37316406 68.88154297 586.33007812 69.17871094 C590.18826588 70.36551997 594.06145889 71.49815466 597.9375 72.625 C605.25631321 74.7621384 612.53386971 77.01402789 619.80467224 79.30909729 C621.90610695 79.97045044 624.00906763 80.62668338 626.11254883 81.28149414 C638.04679651 85.00771551 649.90761164 88.93588761 661.74487305 92.95898438 C664.82483396 94.00418559 667.90748407 95.04118436 670.99023438 96.078125 C710.7675509 109.53510179 710.7675509 109.53510179 718 124 C718.82349827 130.50698633 717.82040818 135.64238616 714 141 C708.4673457 147.33531917 702.34048565 149.60857344 694.1015625 150.3515625 C692.65146021 150.41207884 691.20085251 150.46145313 689.75 150.5 C689.08371582 150.53077637 688.41743164 150.56155273 687.73095703 150.59326172 C676.4065687 150.59594713 665.45605243 143.94112323 655.62109375 138.921875 C653.9219558 138.06556488 653.9219558 138.06556488 652.18849182 137.19195557 C649.20374638 135.6872213 646.22150444 134.17777533 643.24078369 132.6651001 C627.6322894 124.74436377 612.03851519 116.90709203 596.00289917 109.88189697 C593.28241169 108.68403853 590.58068822 107.44640644 587.87890625 106.20703125 C569.59124842 97.92407602 550.84102554 90.90675194 532 84 C530.85660156 83.58057129 529.71320312 83.16114258 528.53515625 82.72900391 C491.39303342 69.2147124 452.74107475 59.95906033 414.13623047 51.68261719 C410.76389261 50.94860998 407.39937895 50.18438169 404.03515625 49.4140625 C391.78466514 46.61757984 379.59812445 44.13705077 367.16455078 42.32666016 C363.53643172 41.77912764 359.92473147 41.14304303 356.3125 40.5 C355.26497559 40.31401245 355.26497559 40.31401245 354.19628906 40.12426758 C349.49912547 39.28345116 344.81203304 38.39543318 340.125 37.5 C333.5542235 36.2464026 326.96358396 35.16847411 320.34814453 34.17773438 C311.35604161 32.80758548 302.42910509 31.04720395 293.49902344 29.32470703 C265.28899354 23.93650212 236.77884715 20.78966046 208.27159119 17.45457458 C197.16897469 16.15301166 186.07682136 14.7738466 174.98835754 13.35690308 C126.6791548 7.2315797 77.6895947 5.04177749 29.03515625 3.59545898 C27.90027771 3.56114777 26.76539917 3.52683655 25.59613037 3.4914856 C23.50691736 3.42950336 21.41760489 3.37073594 19.32818604 3.31613159 C12.85445755 3.12854462 6.44282111 2.65737377 0 2 C0 1.34 0 0.68 0 0 Z " transform="translate(1132,133)"/>
</svg>